<svg width="173" height="62" viewBox="0 0 173 62" fill="none" xmlns="http://www.w3.org/2000/svg">
<path d="M11.1311 42.071C11.0685 42.5396 10.9208 42.923 10.6865 43.2185C10.4522 43.5153 10.1727 43.7483 9.84519 43.92C9.51773 44.0917 9.16766 44.2129 8.79361 44.2834C8.41956 44.354 8.0615 44.3886 7.71806 44.3886C7.31339 44.3886 6.91934 44.346 6.5373 44.2595C6.15659 44.1743 5.81718 44.0412 5.52033 43.8614C5.22481 43.6817 4.99186 43.4634 4.82014 43.2065C4.64842 42.9496 4.56324 42.6568 4.56324 42.3293C4.56324 41.6903 4.59378 41.1006 4.65635 40.5629C4.71891 40.0251 4.81209 39.482 4.93722 38.9362C5.33656 37.1098 5.70665 35.4126 6.04876 33.8445C6.39087 32.2764 6.78759 30.8055 7.23618 29.4318C7.68478 28.058 7.98559 26.7082 8.13868 25.3824C8.2891 24.0566 8.44348 22.7308 8.5939 21.4049C8.74699 20.0791 8.80961 18.6987 8.78565 17.2624C8.76036 15.8261 8.73507 14.2873 8.70578 12.646C8.70578 12.5049 8.70578 12.3225 8.70578 12.1015C8.70578 11.8805 8.68309 11.6729 8.63916 11.4772C8.5939 11.2828 8.51674 11.1151 8.40492 10.974C8.29444 10.8343 8.12804 10.7637 7.90574 10.7637C7.55032 10.7637 7.11768 10.8928 6.60652 11.1497C6.09536 11.4067 5.55888 11.7541 4.9958 12.1907C4.43272 12.6273 3.87097 13.1385 3.30789 13.7229C2.74481 14.3072 2.22837 14.9355 1.75315 15.6064C1.66529 15.8407 1.52422 16.0084 1.33253 16.1096C1.13952 16.2108 0.925157 16.2614 0.689543 16.2614C0.614999 16.2614 0.53784 16.1948 0.455308 16.063C0.374108 15.9299 0.300824 15.7702 0.232935 15.5838C0.166378 15.3961 0.1118 15.1978 0.0665413 14.9875C0.0226133 14.7771 0 14.5854 0 14.4137C0 14.3205 0.0306262 14.242 0.0931903 14.1794C0.654936 12.3384 1.28987 10.7983 2.00071 9.55767C2.71021 8.31704 3.45972 7.32667 4.24776 6.58655C5.0358 5.8451 5.83848 5.3193 6.65714 5.00648C7.4758 4.69499 8.2598 4.53791 9.00924 4.53791C9.97699 4.53791 10.7797 4.72162 11.42 5.08768C12.059 5.45375 12.566 5.96889 12.9414 6.6318C13.3155 7.29472 13.5765 8.09474 13.7255 9.03054C13.8733 9.96634 13.9478 11.0033 13.9478 12.1428C13.9478 13.016 13.8626 14.041 13.6922 15.2177C13.5218 16.3945 13.3408 17.6324 13.1545 18.9343C12.9654 20.2362 12.7271 21.5261 12.4343 22.8066C12.1414 24.0872 11.8579 25.2826 11.585 26.3927C12.0895 24.3175 12.6859 22.3248 13.3728 20.4145C14.061 18.503 14.8104 16.718 15.6237 15.0567C16.4357 13.3954 17.301 11.8899 18.2168 10.5401C19.1326 9.19028 20.0764 8.03218 21.0482 7.06576C22.0186 6.09802 23.0023 5.34991 23.998 4.81878C24.9924 4.28898 25.9787 4.02276 26.9598 4.02276C27.676 4.02276 28.3389 4.17849 28.9473 4.49131C29.5556 4.8028 30.0787 5.28735 30.5153 5.94228C30.9519 6.59721 31.2914 7.42384 31.5337 8.4222C31.7759 9.42057 31.8957 10.6066 31.8957 11.979C31.8957 12.1042 31.8837 12.2985 31.8611 12.5647C31.8371 12.8296 31.8065 13.1345 31.7679 13.4766C31.7293 13.82 31.6827 14.1901 31.6282 14.5881C31.5736 14.9861 31.523 15.3801 31.4764 15.7702C31.3513 16.706 31.2195 17.7203 31.0784 18.8118L31.5696 18.7879C32.1766 16.4797 32.9247 14.4044 33.8126 12.5634C34.7005 10.7224 35.6961 9.15833 36.801 7.87111C37.9072 6.58388 39.0986 5.5975 40.3751 4.91063C41.6517 4.22375 42.9749 3.88165 44.3446 3.88165C45.2897 3.88165 46.1297 4.16252 46.8645 4.72427C47.6006 5.28601 48.2157 6.0461 48.7108 7.00586C49.206 7.96563 49.5854 9.08779 49.8476 10.375C50.1112 11.6622 50.243 13.0227 50.243 14.4577C50.243 15.7995 50.1112 17.2038 49.8489 18.6694C49.5867 20.1363 49.3259 21.5939 49.0636 23.0449C48.804 24.4945 48.5471 25.9215 48.2955 27.3232C48.0452 28.7249 47.8056 30.0548 47.5793 31.3114C47.3543 32.568 47.1494 33.7247 46.9631 34.7817C46.778 35.8386 46.6862 36.6386 46.6862 37.1804C46.6862 37.8619 46.8526 38.3558 47.1853 38.6606C47.5195 38.9668 48.0026 39.1199 48.6389 39.1199C48.9983 39.1199 49.3764 39.0227 49.7744 38.827C50.1725 38.6327 50.5705 38.3744 50.9672 38.055C51.3652 37.7355 51.7592 37.3681 52.1492 36.9554C52.5392 36.5414 52.9133 36.1168 53.2727 35.6802C54.0993 34.6818 54.918 33.5357 55.73 32.2405C55.73 32.2565 55.8005 32.4202 55.9403 32.7317C56.0494 32.9966 56.2292 33.4492 56.4781 34.0895C56.7284 34.7284 57.0784 35.6496 57.531 36.8503C56.751 38.2227 55.9483 39.3848 55.1203 40.3366C54.2924 41.2883 53.4511 42.0644 52.5938 42.6647C51.7365 43.2651 50.8659 43.6977 49.9847 43.9639C49.1035 44.2288 48.229 44.362 47.3611 44.362C46.5185 44.362 45.6958 44.2142 44.8931 43.9174C44.0891 43.6205 43.3769 43.1799 42.7539 42.5955C42.1296 42.0111 41.6304 41.2857 41.2577 40.4191C40.8837 39.5538 40.696 38.5595 40.696 37.436C40.696 37.3109 40.6999 37.1791 40.7079 37.038C40.7159 36.8982 40.7279 36.7571 40.7425 36.6173C40.8051 35.5724 40.9423 34.4515 41.1566 33.2588C41.3709 32.0648 41.5919 30.8282 41.8221 29.5476C42.0511 28.267 42.284 26.9678 42.5197 25.6486C42.7566 24.3308 42.9908 23.0143 43.2251 21.7044C43.4607 20.3932 43.691 19.1047 43.9147 17.8401C44.1396 16.5755 44.2514 15.472 44.2514 14.5295C44.2514 13.828 44.2275 13.1917 44.1796 12.622C44.133 12.0523 44.0385 11.569 43.8974 11.171C43.7549 10.773 43.5526 10.4655 43.2851 10.2472C43.0189 10.0289 42.6647 9.91975 42.2255 9.91975C41.3416 9.91975 40.5083 10.2073 39.7243 10.7823C38.9402 11.3574 38.1974 12.1494 37.4985 13.1611C36.7983 14.1714 36.1435 15.3682 35.5338 16.7512C34.9255 18.1343 34.3504 19.6305 33.8086 21.2399C33.2668 22.8479 32.8063 24.5331 32.4282 26.2943C32.0515 28.0554 31.6348 29.879 31.1836 31.7639C30.7297 33.6502 30.3822 35.4339 30.1413 37.1178C29.899 38.8004 29.6274 40.4191 29.3266 41.9726C29.2174 42.4105 29.0511 42.7806 28.8261 43.0854C28.6012 43.3902 28.3442 43.6365 28.0513 43.8229C27.7585 44.0105 27.4483 44.1477 27.1222 44.2328C26.7961 44.318 26.47 44.362 26.1438 44.362C25.8164 44.362 25.4929 44.2994 25.1734 44.1743C24.8539 44.0491 24.5744 43.8508 24.3321 43.5779C24.0898 43.305 23.8955 42.9576 23.7491 42.537C23.6013 42.1163 23.5268 41.6012 23.5268 40.9928C23.2259 40.5868 23.1687 39.888 23.3577 38.8936C23.5454 37.8992 23.7744 36.7185 24.042 35.3487C24.3095 33.9803 24.621 32.4535 24.9764 30.7682C25.3331 29.0817 25.658 27.4018 25.9495 25.7258C26.2423 24.0499 26.5538 22.3767 26.8853 20.7074C27.2167 19.0381 27.3818 17.5007 27.3818 16.0963C27.3818 15.1285 27.3565 14.2633 27.3086 13.4992C27.2607 12.7351 27.1475 12.0869 26.9691 11.5571C26.7908 11.0273 26.5378 10.6213 26.2064 10.3404C25.8749 10.0595 25.4343 9.91975 24.8859 9.91975C24.432 9.91975 23.9155 10.2166 23.3337 10.809C22.752 11.4013 22.1264 12.2213 21.4569 13.2649C20.786 14.3099 20.0951 15.5385 19.3829 16.9509C18.6721 18.3632 17.9652 19.8861 17.2624 21.5247C16.5595 23.162 15.8807 24.8752 15.2271 26.6603C14.5721 28.4467 14.0237 30.2464 13.5804 32.0608C13.1372 33.8752 12.7072 35.6363 12.2892 37.3441C11.8672 39.0533 11.4825 40.6294 11.1311 42.071Z" fill="white"/>
<path d="M68.4891 39.3822C67.9274 39.8973 67.2299 40.4471 66.3952 41.0314C65.5606 41.6158 64.6594 42.1549 63.693 42.6461C62.7253 43.1373 61.7389 43.5473 60.7326 43.8748C59.7262 44.2023 58.7704 44.366 57.8666 44.366C57.0559 44.366 56.373 44.2528 55.8192 44.0265C55.2655 43.8002 54.8169 43.4848 54.4734 43.0788C54.13 42.6727 53.8851 42.1776 53.736 41.5932C53.5882 41.0088 53.5137 40.3645 53.5137 39.663C53.5137 38.6806 53.6229 37.5332 53.8412 36.2233C54.2911 33.5131 54.58 31.9903 54.7078 31.6562C54.9207 30.9906 55.3454 29.5143 55.983 27.2274C56.5754 25.3651 56.9414 24.1511 57.0798 23.5894C57.1571 23.1953 57.3714 22.8399 57.7228 22.5245C58.045 22.2409 58.4096 22.008 58.8143 21.8269C59.2216 21.6459 59.6423 21.5114 60.0789 21.4249C60.5155 21.3384 60.9109 21.2945 61.2637 21.2945C61.9066 21.2945 62.3446 21.4156 62.5735 21.6565C62.8025 21.8988 62.9183 22.2223 62.9183 22.6283C62.9183 22.9717 62.8371 23.4562 62.6774 24.0832C62.5176 24.7102 62.3339 25.4237 62.1302 26.2251C61.9252 27.0264 61.6217 28.0567 61.2197 29.3173C60.8164 30.5766 60.5422 31.6508 60.3958 32.54C60.248 33.4292 60.0617 34.3118 59.838 35.189C59.6131 36.0662 59.5013 36.8636 59.5013 37.5811C59.5013 38.2826 59.5797 38.8404 59.7355 39.253C59.8912 39.6657 60.2107 39.872 60.6953 39.872C61.257 39.872 61.8813 39.6777 62.5669 39.2876C63.2537 38.8976 63.9473 38.4264 64.6488 37.8726C65.3503 37.3189 66.0372 36.7451 66.7081 36.1528C67.379 35.5604 67.9714 35.0532 68.4865 34.6313V39.3822H68.4891ZM58.0303 14.8264C58.0303 14.4643 58.1088 14.0543 58.2646 13.5977C58.4203 13.1412 58.6746 12.7112 59.0247 12.3105C59.3761 11.9085 59.8433 11.5704 60.429 11.2949C61.0134 11.0193 61.7429 10.8809 62.6161 10.8809C63.1619 10.8809 63.6771 10.9434 64.1603 11.0699C64.6435 11.1963 65.0654 11.3894 65.4235 11.6489C65.7816 11.9085 66.0665 12.2519 66.2781 12.6766C66.4885 13.1012 66.5936 13.6057 66.5936 14.1875C66.5936 14.7226 66.5084 15.243 66.3366 15.7462C66.1649 16.2494 65.8921 16.6993 65.518 17.092C65.1439 17.486 64.6714 17.8042 64.103 18.0491C63.5333 18.2941 62.8517 18.4152 62.0557 18.4152C60.6832 18.4152 59.6689 18.0891 59.014 17.4355C58.3578 16.7832 58.0303 15.9126 58.0303 14.8264Z" fill="white"/>
<path d="M66.852 39.4752C66.852 38.4462 66.9145 37.2562 67.0397 35.9064C67.1648 34.5566 67.3205 33.0751 67.5082 31.4604C67.6959 29.8457 67.9063 28.3907 68.1406 27.0969C68.3749 25.8016 68.6012 24.6941 68.8195 23.7743C68.9912 23.0568 69.3226 22.4565 69.8138 21.9719C70.305 21.4887 70.9719 21.2464 71.8146 21.2464C72.6572 21.2464 73.2415 21.5034 73.569 22.0185C73.8965 22.5337 74.0601 23.2192 74.0601 24.0778C74.0601 24.3121 74.0362 24.6276 73.9896 25.0256C73.943 25.4236 73.8844 25.8602 73.8139 26.3354C73.7433 26.8106 73.6701 27.3032 73.5916 27.809C73.5131 28.3162 73.4399 28.8926 73.3693 29.5408C73.2988 30.1878 73.2402 30.6723 73.1936 30.9918C73.147 31.3113 73.123 31.5256 73.123 31.6347H73.5916C73.6848 31.463 73.8338 31.1862 74.0362 30.8041C74.2385 30.4221 74.4728 29.8723 74.7377 29.1548C75.0026 28.4373 75.2875 27.801 75.5923 27.2473C75.8958 26.6935 76.1807 26.1637 76.4469 25.6565C76.7118 25.1494 76.9541 24.7008 77.1724 24.3108C77.3907 23.9207 77.5545 23.6319 77.6636 23.4455C78.1628 22.6029 78.7326 22.0265 79.3715 21.7137C80.0105 21.4022 80.7213 21.2451 81.5013 21.2451C82.2814 21.2451 82.9017 21.5726 83.3609 22.2275C83.8201 22.8824 84.0518 23.7876 84.0518 24.9417C84.0518 25.1134 84.0172 25.4023 83.9466 25.807C83.8761 26.2116 83.7869 26.6962 83.6778 27.2579C83.5686 27.8197 83.4474 28.5451 83.3156 29.4344C83.1839 30.3236 83.0628 31.1196 82.9523 31.8211C82.8432 32.5226 82.7539 33.2175 82.6834 33.903C82.6128 34.5899 82.5782 35.2209 82.5782 35.7986C82.5782 36.7663 82.6993 37.561 82.9403 38.1853C83.1826 38.8097 83.5606 39.1211 84.0758 39.1211C84.2635 39.1211 84.5283 39.0506 84.8718 38.9108C85.3869 38.7231 85.7144 38.5594 85.8542 38.4196C86.5411 37.8898 86.8991 37.6316 86.9311 37.6476C86.9776 37.6635 87.5008 37.3507 88.4992 36.7117C89.7478 35.9157 91.2374 34.9413 92.9679 33.7872L92.9439 39.0293L91.7738 39.9185C91.6806 39.997 90.9472 40.4017 89.5748 41.1352C87.594 42.1961 86.3534 42.8351 85.8542 43.0534C84.6375 43.5991 83.8814 43.912 83.5846 43.9892C82.8045 44.2394 81.9858 44.3632 81.1273 44.3632C80.27 44.3632 79.5485 43.7429 78.9628 42.5036C78.3785 41.263 78.0856 39.4499 78.0856 37.0632C78.0856 36.1274 78.1482 35.117 78.2733 34.0335C78.3984 32.9486 78.5541 31.7838 78.7418 30.5352H78.3678L72.2379 42.7033C71.9104 43.3582 71.5589 43.7948 71.1849 44.0131C70.7949 44.2474 70.3423 44.3645 69.8285 44.3645C69.1882 44.3645 68.6743 44.2274 68.2843 43.9546C67.8943 43.6817 67.5948 43.3156 67.3831 42.855C67.1714 42.3944 67.0317 41.8726 66.9625 41.2869C66.8866 40.7039 66.852 40.0995 66.852 39.4752Z" fill="white"/>
<path d="M103.775 39.3822C103.214 39.8973 102.516 40.4471 101.681 41.0314C100.847 41.6158 99.9456 42.1549 98.9792 42.6461C98.0114 43.1373 97.025 43.5473 96.0187 43.8748C95.0123 44.2023 94.0565 44.366 93.1527 44.366C92.342 44.366 91.6592 44.2528 91.1054 44.0265C90.5517 43.8002 90.103 43.4848 89.7596 43.0788C89.4161 42.6727 89.1713 42.1776 89.0222 41.5932C88.8744 41.0088 88.7998 40.3645 88.7998 39.663C88.7998 38.6806 88.909 37.5332 89.1273 36.2233C89.5772 33.5131 89.8661 31.9903 89.9939 31.6562C90.2069 30.9906 90.6329 29.5143 91.2691 27.2274C91.8615 25.3651 92.2275 24.1511 92.366 23.5894C92.4432 23.1953 92.6575 22.8399 93.009 22.5245C93.3311 22.2409 93.6959 22.008 94.1005 21.8269C94.5079 21.6459 94.9284 21.5114 95.3651 21.4249C95.8017 21.3384 96.197 21.2945 96.5498 21.2945C97.1927 21.2945 97.6294 21.4156 97.8597 21.6565C98.0886 21.8988 98.2044 22.2223 98.2044 22.6283C98.2044 22.9717 98.1232 23.4562 97.9635 24.0832C97.8038 24.7102 97.62 25.4237 97.4164 26.2251C97.2114 27.0264 96.9078 28.0567 96.5058 29.3173C96.1025 30.5766 95.8283 31.6508 95.6819 32.54C95.5342 33.4292 95.3478 34.3118 95.1242 35.189C94.8992 36.0662 94.7874 36.8636 94.7874 37.5811C94.7874 38.2826 94.8659 38.8404 95.0216 39.253C95.1774 39.6657 95.4969 39.872 95.9814 39.872C96.5431 39.872 97.1675 39.6777 97.853 39.2876C98.5399 38.8976 99.2334 38.4264 99.935 37.8726C100.636 37.3189 101.323 36.7451 101.994 36.1528C102.665 35.5604 103.258 35.0532 103.773 34.6313V39.3822H103.775ZM93.3164 14.8264C93.3164 14.4643 93.395 14.0543 93.5507 13.5977C93.7065 13.1412 93.9607 12.7112 94.3108 12.3105C94.6622 11.9085 95.1294 11.5704 95.7151 11.2949C96.2995 11.0193 97.029 10.8809 97.9022 10.8809C98.448 10.8809 98.9632 10.9434 99.4464 11.0699C99.9296 11.1963 100.352 11.3894 100.71 11.6489C101.069 11.9085 101.353 12.2519 101.564 12.6766C101.775 13.1012 101.88 13.6057 101.88 14.1875C101.88 14.7226 101.795 15.243 101.623 15.7462C101.451 16.2494 101.178 16.6993 100.804 17.092C100.43 17.486 99.9575 17.8042 99.3891 18.0491C98.8194 18.2941 98.1379 18.4152 97.3419 18.4152C95.9695 18.4152 94.9551 18.0891 94.3001 17.4355C93.6439 16.7832 93.3164 15.9126 93.3164 14.8264Z" fill="white"/>
<path d="M111.871 40.1175C111.871 39.9139 111.887 39.6237 111.918 39.2483C111.949 38.8729 111.997 38.4403 112.058 37.9558C112.12 37.4699 112.191 36.9574 112.268 36.4169C112.347 35.8765 112.424 35.34 112.502 34.8076C112.674 33.5536 112.884 32.2065 113.135 30.7649H112.783C112.596 31.0005 112.381 31.3533 112.14 31.8245C111.898 32.2957 111.559 32.9866 111.122 33.8971C110.685 34.8076 110.128 35.9883 109.449 37.4406C108.77 38.8929 107.893 40.6713 106.816 42.7758C106.504 43.3962 106.141 43.8168 105.728 44.0365C105.316 44.2561 104.859 44.3652 104.36 44.3652C103.721 44.3652 103.206 44.2321 102.816 43.9686C102.426 43.7037 102.125 43.3469 101.915 42.901C101.704 42.4551 101.563 41.9465 101.494 41.3795C101.423 40.8111 101.389 40.2254 101.389 39.6184C101.389 38.9754 101.427 38.214 101.506 37.3341C101.584 36.4555 101.686 35.5291 101.811 34.5547C101.936 33.5816 102.118 32.4701 102.36 31.2215C102.603 29.9728 102.813 28.8853 102.993 27.9548C103.172 27.0257 103.355 26.1764 103.542 25.4043C103.73 24.6323 103.902 24.0026 104.058 23.5154C104.213 23.0109 104.361 22.6102 104.502 22.3107C104.642 22.0112 104.803 21.7796 104.981 21.6146C105.161 21.4495 105.375 21.339 105.624 21.2831C105.875 21.2285 106.194 21.2006 106.584 21.2006C107.177 21.2006 107.641 21.2205 107.977 21.2591C108.312 21.2991 108.562 21.3936 108.726 21.5427C108.89 21.6918 108.987 21.9087 109.019 22.1923C109.049 22.4758 109.065 22.8618 109.065 23.349C109.065 23.6166 109.053 23.9241 109.031 24.2702C109.007 24.6163 108.972 24.9864 108.926 25.3804C108.895 25.7731 108.847 26.1751 108.786 26.5837C108.677 27.3718 108.614 27.7804 108.598 27.8124C108.38 28.884 108.154 30.0807 107.919 31.4025L108.176 31.686C108.207 31.6381 108.414 31.2215 108.797 30.4348C109.179 29.648 109.593 28.868 110.037 28.0959C110.482 27.3252 110.961 26.5172 111.476 25.6759C111.991 24.8333 112.482 24.0892 112.95 23.4435C113.402 22.7979 113.882 22.2628 114.389 21.8368C114.896 21.4122 115.5 21.1992 116.202 21.1992C116.857 21.1992 117.418 21.3923 117.887 21.7783C118.356 22.1643 118.589 22.7114 118.589 23.4196C118.589 24.0332 118.55 24.6163 118.471 25.1674C118.378 25.8756 118.284 26.4107 118.19 26.7728C118.081 27.1828 117.956 27.6859 117.816 28.2849C117.707 28.8054 117.512 29.5522 117.232 30.5293C117.185 30.6863 117.139 30.914 117.091 31.2135C117.075 31.308 117.067 31.3719 117.067 31.4025L117.324 31.686C117.355 31.6381 117.574 31.2255 117.979 30.4467C118.385 29.6667 118.825 28.8919 119.301 28.1199C119.776 27.3491 120.283 26.5385 120.822 25.6879C121.361 24.8373 121.863 24.0892 122.332 23.4435C122.784 22.8139 123.237 22.2828 123.689 21.8501C124.142 21.4175 124.696 21.2006 125.351 21.2006C126.084 21.2006 126.705 21.3936 127.21 21.7796C127.718 22.1656 127.97 22.7127 127.97 23.4209C127.97 24.5071 127.916 25.5388 127.807 26.5145C127.698 27.4903 127.534 28.5698 127.315 29.7505C127.097 30.9313 126.933 32.0055 126.824 32.9746C126.715 33.9423 126.661 34.97 126.661 36.0562C126.661 36.9068 126.77 37.599 126.988 38.1341C127.206 38.6692 127.471 38.9368 127.784 38.9368C128.112 38.9368 128.455 38.8663 128.813 38.7238C129.172 38.5827 129.538 38.4004 129.913 38.1807C130.287 37.9611 130.654 37.7055 131.012 37.414C131.37 37.1224 131.714 36.8203 132.041 36.5048C132.805 35.7793 133.563 34.962 134.311 34.0488L134.709 39.5957C134.022 40.1255 133.34 40.6753 132.661 41.2424C131.982 41.8108 131.265 42.3259 130.509 42.7878C129.753 43.2497 128.922 43.6278 128.017 43.9233C127.112 44.2188 126.091 44.3666 124.951 44.3666C124.39 44.3666 123.918 44.1869 123.536 43.8275C123.154 43.4681 122.845 42.9675 122.613 42.3259C122.378 41.6843 122.211 40.9282 122.109 40.0563C122.008 39.1857 121.958 38.238 121.958 37.213C121.958 36.2213 121.992 35.171 122.063 34.0608C122.133 32.9506 122.23 31.8285 122.356 30.6957H122.004L117.255 42.7159C116.849 43.3669 116.396 43.8048 115.897 44.0298C115.398 44.2548 114.82 44.3666 114.165 44.3666C113.666 44.3666 113.268 44.2335 112.972 43.9699C112.675 43.705 112.445 43.3642 112.281 42.9476C112.118 42.5309 112.009 42.073 111.954 41.5738C111.899 41.072 111.871 40.5874 111.871 40.1175Z" fill="white"/>
<path d="M156.959 38.5677C156.599 39.0722 156.12 39.6646 155.52 40.3421C154.919 41.021 154.244 41.6679 153.495 42.2829C152.746 42.8979 151.943 43.4197 151.086 43.8444C150.227 44.2703 149.37 44.4833 148.511 44.4833C147.476 44.4833 146.61 44.1545 145.919 43.4996C145.229 42.8433 144.63 41.8889 144.126 40.639C143.75 41.0716 143.285 41.5109 142.735 41.9581C142.184 42.4054 141.583 42.8114 140.932 43.1735C140.279 43.5369 139.598 43.8337 138.891 44.0653C138.183 44.297 137.476 44.4128 136.768 44.4128C136.018 44.4128 135.29 44.2597 134.581 43.9522C133.871 43.646 133.243 43.2041 132.697 42.6304C132.151 42.0566 131.715 41.3551 131.387 40.5298C131.06 39.7032 130.896 38.7714 130.896 37.7317C130.896 36.5656 131.061 35.3689 131.39 34.1416C131.72 32.9143 132.23 31.5845 132.919 30.1548C133.61 28.7238 134.352 27.4885 135.144 26.4462C135.937 25.4053 136.804 24.4961 137.745 23.7187C138.686 22.9413 139.679 22.3236 140.723 21.8657C141.765 21.4065 142.829 21.1775 143.911 21.1775C144.273 21.1775 144.554 21.2481 144.759 21.3905C144.962 21.5329 145.131 21.694 145.266 21.875C145.399 22.0561 145.527 22.2344 145.653 22.4075C145.78 22.5805 145.935 22.707 146.124 22.7856C146.313 22.8641 146.505 22.916 146.702 22.9386C146.899 22.9626 147.099 22.9746 147.303 22.9746C147.476 22.9746 147.651 22.9706 147.831 22.9626C148.012 22.9546 148.188 22.9506 148.361 22.9506C148.596 22.9506 148.816 22.9746 149.02 23.0212C149.223 23.0691 149.403 23.1716 149.56 23.3287C149.716 23.4871 149.837 23.7067 149.922 23.9916C150.009 24.2751 150.051 24.6611 150.051 25.151C150.051 25.8965 149.973 26.7231 149.817 27.6323C149.661 28.5414 149.483 29.4719 149.282 30.4264C149.081 31.3795 148.851 32.467 148.592 33.6877C148.336 34.9084 148.206 35.9373 148.206 36.7746C148.206 37.4895 148.273 38.0485 148.405 38.4505C148.537 38.8525 148.823 39.0549 149.259 39.0549C149.587 39.0549 149.93 38.9737 150.288 38.8113C150.648 38.6489 151.01 38.4372 151.376 38.1737C151.742 37.9114 152.109 37.6132 152.475 37.2805C152.841 36.9477 153.189 36.6042 153.516 36.2488C154.28 35.4142 155.053 34.4704 155.833 33.4188L156.959 38.5677ZM136.885 36.7347C136.885 37.1367 136.912 37.5267 136.966 37.9048C137.021 38.2828 137.118 38.6209 137.26 38.9178C137.401 39.216 137.588 39.4569 137.822 39.6419C138.056 39.827 138.353 39.9201 138.713 39.9201C139.292 39.9201 139.815 39.6686 140.283 39.1667C140.753 38.6635 141.159 38.0592 141.503 37.3537C141.846 36.6468 142.124 35.916 142.335 35.1626C142.545 34.4092 142.683 33.7809 142.745 33.2777L144.49 25.6715C143.85 25.6715 143.227 25.8299 142.618 26.1467C142.01 26.4635 141.436 26.8935 140.898 27.4339C140.361 27.9757 139.865 28.5947 139.413 29.2896C138.96 29.9858 138.516 30.843 138.079 31.864C137.642 32.885 137.334 33.7822 137.155 34.5543C136.976 35.3277 136.885 36.0545 136.885 36.7347Z" fill="white"/>
<path d="M160.285 44.3659C159.445 44.3659 158.664 44.0012 157.942 43.2717C157.219 42.5423 156.588 41.5639 156.053 40.3352C155.518 39.1066 155.098 37.6822 154.795 36.0622C154.49 34.4422 154.34 32.7423 154.34 30.9599C154.34 29.4291 154.565 27.3858 155.015 24.83C155.465 22.2742 155.69 20.9962 155.69 20.9962C155.69 20.9962 156.031 19.721 156.712 17.1679C157.395 14.6147 158.077 12.5674 158.764 11.0246C159.449 9.48312 160.192 8.04149 160.997 6.70235C161.801 5.36321 162.643 4.1958 163.525 3.2001C164.408 2.20573 165.329 1.42301 166.29 0.853277C167.252 0.284875 168.228 0 169.221 0C169.943 0 170.539 0.138446 171.01 0.413994C171.48 0.689543 171.85 1.05427 172.119 1.50553C172.387 1.95812 172.577 2.47061 172.686 3.04301C172.795 3.6154 172.85 4.19846 172.85 4.79215C172.85 6.26707 172.675 7.7686 172.327 9.29809C171.977 10.8276 171.508 12.3651 170.914 13.9092C170.323 15.4547 169.638 17.0028 168.859 18.5563C168.08 20.1097 167.27 21.6498 166.426 23.1793C165.582 24.7088 164.734 26.2157 163.883 27.6973C163.031 29.1788 162.247 30.6285 161.526 32.0448C161.447 32.2019 161.366 32.4069 161.279 32.6585C161.193 32.91 161.11 33.1816 161.032 33.4731C160.953 33.7633 160.876 34.0748 160.798 34.4049C160.718 34.7351 160.656 35.0572 160.608 35.3727V35.7028C160.608 36.1128 160.651 36.5095 160.738 36.8955C160.823 37.2802 160.929 37.6263 161.054 37.9338C161.18 38.2413 161.313 38.4849 161.454 38.6659C161.594 38.847 161.728 38.9375 161.853 38.9375C162.158 38.9375 162.504 38.8749 162.895 38.7485C163.287 38.622 163.701 38.453 164.14 38.2413C164.579 38.0297 165.031 37.7861 165.494 37.5105C165.958 37.235 166.406 36.9554 166.837 36.6732C167.843 36.013 168.898 35.2502 170 34.385L172.066 39.3169C170.636 40.266 169.222 41.1113 167.825 41.8527C167.214 42.1642 166.583 42.4717 165.933 42.7765C165.282 43.0814 164.629 43.3516 163.968 43.5885C163.309 43.8268 162.668 44.0145 162.041 44.1556C161.418 44.2954 160.831 44.3659 160.285 44.3659ZM160.308 25.8177C161.012 24.5597 161.759 23.1434 162.549 21.57C163.34 19.9965 164.087 18.3765 164.792 16.7099C165.496 15.042 166.106 13.3781 166.623 11.7195C167.14 10.0595 167.468 8.51404 167.609 7.08305C167.609 6.62647 167.597 6.23777 167.576 5.9143C167.554 5.59083 167.484 5.4311 167.365 5.4311C166.937 5.4311 166.475 5.72794 165.98 6.31897C165.485 6.91133 164.989 7.71401 164.494 8.72569C164 9.73736 163.409 11.3827 162.721 13.6603C162.033 15.9392 161.689 17.0787 161.689 17.0787C161.689 17.0787 161.48 18.1369 161.06 20.2508C160.638 22.3633 160.388 24.219 160.308 25.8177Z" fill="white"/>
<path d="M124.328 55.7106C126.006 55.7106 127.218 56.8834 127.218 58.5047C127.218 60.1168 125.998 61.2988 124.304 61.2988H122.038V55.7106H124.328ZM122.98 60.4522H124.352C125.437 60.4522 126.267 59.6469 126.267 58.5127C126.267 57.3719 125.412 56.5573 124.311 56.5573H122.979L122.98 60.4522Z" fill="white"/>
<path d="M133.163 56.5573V58.0655H135.893V58.9121H133.163V60.4522H136.307V61.2988H132.221V55.7106H136.212V56.5573H133.163Z" fill="white"/>
<path d="M145.245 56.2454L144.853 57.076C144.246 56.7086 143.639 56.5569 143.217 56.5569C142.666 56.5569 142.307 56.7645 142.307 57.1399C142.307 58.3606 145.325 57.707 145.317 59.7183C145.317 60.7167 144.439 61.3317 143.209 61.3317C142.331 61.3317 141.502 60.9723 140.927 60.4452L141.334 59.6305C141.909 60.1576 142.628 60.4452 143.225 60.4452C143.88 60.4452 144.272 60.1975 144.272 59.7663C144.272 58.5203 141.253 59.2152 141.253 57.2278C141.253 56.2693 142.075 55.6716 143.288 55.6716C144.016 55.6716 144.727 55.9019 145.245 56.2454Z" fill="white"/>
<path d="M150.415 61.2988V55.7106H151.357V61.2988H150.415Z" fill="white"/>
<path d="M161.466 58.5523V60.6116C160.899 61.0429 160.06 61.337 159.295 61.337C157.641 61.337 156.357 60.1004 156.357 58.5043C156.357 56.907 157.659 55.6863 159.351 55.6863C160.149 55.6863 160.947 55.9898 161.496 56.469L160.963 57.1626C160.531 56.7632 159.934 56.5236 159.351 56.5236C158.208 56.5236 157.315 57.3928 157.315 58.503C157.315 59.6199 158.218 60.4904 159.359 60.4904C159.773 60.4904 160.244 60.3467 160.643 60.1071V58.5509H161.466V58.5523Z" fill="white"/>
<path d="M170.715 61.2988L167.739 57.2921V61.2988H166.796V55.7106H167.721L170.715 59.7267V55.7106H171.64V61.2988H170.715Z" fill="white"/>
</svg>
