<svg width="240" height="51" viewBox="0 0 240 51" fill="none" xmlns="http://www.w3.org/2000/svg">
<path d="M24.2548 50.9621V45.6708H25.1472V50.9621H24.2548Z" fill="white"/>
<path d="M39.0596 50.9621L36.2413 47.1682V50.9621H35.3489V45.6708H36.2249L39.0596 49.4736V45.6708H39.9357V50.9621H39.0596Z" fill="white"/>
<path d="M52.0839 46.4724V50.9621H51.1915V46.4724H49.5215V45.6708H53.7616V46.4724H52.0839Z" fill="white"/>
<path d="M64.2295 46.4724V47.9005H66.8146V48.7022H64.2295V50.1605H67.2066V50.9621H63.3371V45.6708H67.1159V46.4724H64.2295Z" fill="white"/>
<path d="M79.4962 49.3601C79.4219 49.3677 79.3374 49.3677 79.2555 49.3677H78.0014V50.9621H77.109V45.6708H79.2555C80.6079 45.6708 81.3869 46.3287 81.3869 47.477C81.3869 48.324 80.9924 48.9215 80.2903 49.1925L81.4764 50.9609H80.463L79.4962 49.3601ZM79.2555 48.566C80.071 48.566 80.5411 48.2181 80.5411 47.4997C80.5411 46.8039 80.0723 46.4724 79.2555 46.4724H78.0014V48.566H79.2555Z" fill="white"/>
<path d="M91.3874 50.9621V45.6708H92.2798V50.9621H91.3874Z" fill="white"/>
<path d="M107.65 48.317C107.65 49.8283 106.425 50.9992 104.846 50.9992C103.267 50.9992 102.041 49.8283 102.041 48.317C102.041 46.7969 103.267 45.6487 104.846 45.6487C106.425 45.6474 107.65 46.8045 107.65 48.317ZM102.95 48.317C102.95 49.367 103.819 50.1988 104.855 50.1988C105.89 50.1988 106.737 49.367 106.737 48.317C106.737 47.2658 105.89 46.449 104.855 46.449C103.811 46.449 102.95 47.2658 102.95 48.317Z" fill="white"/>
<path d="M121.127 50.9621L118.309 47.1682V50.9621H117.417V45.6708H118.293L121.127 49.4736V45.6708H122.003V50.9621H121.127Z" fill="white"/>
<path d="M145.147 45.6708C146.735 45.6708 147.884 46.7813 147.884 48.3165C147.884 49.8429 146.728 50.9621 145.125 50.9621H142.978V45.6708H145.147ZM143.87 50.1617H145.17C146.197 50.1617 146.982 49.3992 146.982 48.3253C146.982 47.2451 146.173 46.4737 145.131 46.4737H143.869V50.1617H143.87Z" fill="white"/>
<path d="M158.543 46.4724V47.9005H161.129V48.7022H158.543V50.1605H161.521V50.9621H157.651V45.6708H161.43V46.4724H158.543Z" fill="white"/>
<path d="M175.011 46.1771L174.64 46.9636C174.065 46.6158 173.491 46.472 173.091 46.472C172.569 46.472 172.229 46.6687 172.229 47.0241C172.229 48.1812 175.086 47.5611 175.079 49.4656C175.079 50.4097 174.248 50.992 173.084 50.992C172.252 50.992 171.466 50.6517 170.922 50.1538L171.308 49.3824C171.852 49.8816 172.533 50.1538 173.099 50.1538C173.719 50.1538 174.089 49.9194 174.089 49.511C174.089 48.3325 171.231 48.9904 171.231 47.1073C171.231 46.1998 172.01 45.6339 173.158 45.6339C173.847 45.6339 174.52 45.8532 175.011 46.1771Z" fill="white"/>
<path d="M184.936 50.9621V45.6708H185.828V50.9621H184.936Z" fill="white"/>
<path d="M200.429 48.3612V50.3111C199.892 50.7194 199.098 50.998 198.373 50.998C196.808 50.998 195.592 49.827 195.592 48.3158C195.592 46.8032 196.824 45.6474 198.426 45.6474C199.183 45.6474 199.938 45.9348 200.458 46.3886L199.953 47.0465C199.544 46.6684 198.978 46.4428 198.426 46.4428C197.345 46.4428 196.499 47.2658 196.499 48.317C196.499 49.3745 197.354 50.1989 198.434 50.1989C198.827 50.1989 199.272 50.0627 199.65 49.8359V48.3624L200.429 48.3612Z" fill="white"/>
<path d="M214.217 50.9621L211.399 47.1682V50.9621H210.506V45.6708H211.382L214.217 49.4736V45.6708H215.093V50.9621H214.217Z" fill="white"/>
<path d="M226.818 35.2665H12.5429V37.7873H226.818V35.2665Z" fill="white"/>
<path d="M12.0246 19.3225H11.8355H6.73074V26.7717H0V0.303711H11.8355C18.831 0.303711 22.8379 3.63127 22.8379 9.52887C22.8379 13.5749 21.1363 16.4865 18.0356 18.0368L23.5942 26.7717H15.9559L12.0246 19.3225ZM11.8343 14.0287C14.7471 14.0287 16.4475 12.554 16.4475 9.75578C16.4475 6.99542 14.7459 5.5963 11.8343 5.5963H6.72948V14.0287H11.8343Z" fill="white"/>
<path d="M30.3245 5.5963V10.8524H42.9541V16.1462H30.3245V21.4779H44.7313V26.7717H23.5938V0.303711H44.3141V5.59757H30.3245V5.5963Z" fill="white"/>
<path d="M57.5502 5.70976V26.7705H50.8194V5.70976H42.9165V0.264648H65.5275V5.70976H57.5502Z" fill="white"/>
<path d="M76.6462 19.3225H76.4571H71.3523V26.7717H64.6216V0.303711H76.4571C83.4526 0.303711 87.4608 3.63127 87.4608 9.52887C87.4608 13.5749 85.7592 16.4865 82.6585 18.0368L88.217 26.7717H80.5788L76.6462 19.3225ZM76.4571 14.0287C79.37 14.0287 81.0703 12.554 81.0703 9.75578C81.0703 6.99542 79.3687 5.5963 76.4571 5.5963H71.3523V14.0287H76.4571Z" fill="white"/>
<path d="M115.101 13.4987C115.101 21.2126 108.976 27.0737 100.771 27.0737C92.6044 27.0737 86.4774 21.2504 86.4774 13.4987C86.4774 5.78482 92.6031 0.0763092 100.771 0.0763092C108.976 0.0763092 115.101 5.8239 115.101 13.4987ZM93.3594 13.5366C93.3594 17.9985 96.8004 21.4395 100.845 21.4395C104.929 21.4395 108.181 17.9985 108.181 13.5366C108.181 9.07461 104.929 5.70921 100.845 5.70921C96.7626 5.70921 93.3594 9.07461 93.3594 13.5366Z" fill="white"/>
<path d="M126.257 0.303711C134.576 0.303711 140.323 5.67321 140.323 13.5371C140.323 21.3644 134.499 26.7717 125.993 26.7717H114.875V0.303711H126.257ZM121.605 21.4022H126.409C130.53 21.4022 133.478 18.2259 133.478 13.5749C133.478 8.88607 130.378 5.67193 126.105 5.67193H121.605V21.4022Z" fill="white"/>
<path d="M146.826 5.5963V10.8524H159.456V16.1462H146.826V21.4779H161.233V26.7717H140.095V0.303711H160.816V5.59757H146.826V5.5963Z" fill="white"/>
<path d="M182.408 2.94942L179.875 8.20548C177.076 6.57951 173.56 5.44511 171.404 5.44511C169.665 5.44511 168.493 6.08793 168.493 7.37358C168.493 11.9477 182.482 9.33985 182.482 18.9053C182.482 24.1992 177.794 26.9974 171.896 26.9974C167.472 26.9974 162.936 25.3336 159.796 22.7623L162.405 17.5819C165.127 19.9641 169.21 21.5523 171.972 21.5523C174.089 21.5523 175.413 20.7582 175.413 19.2457C175.413 14.5568 161.422 17.355 161.422 7.97861C161.422 3.1007 165.619 0 171.972 0C175.791 0.00126044 179.684 1.17346 182.408 2.94942Z" fill="white"/>
<path d="M182.371 26.7717V0.303711H189.101V26.7717H182.371Z" fill="white"/>
<path d="M214.02 13.3097V23.6327C211.184 25.6368 206.722 27.0737 203.018 27.0737C194.964 27.0737 188.876 21.2505 188.876 13.5366C188.876 5.86054 195.115 0.0750885 203.472 0.0750885C207.403 0.0750885 211.562 1.58761 214.285 4.00765L210.504 8.58306C208.576 6.80584 205.892 5.70926 203.434 5.70926C199.085 5.70926 195.758 9.11247 195.758 13.5366C195.758 18.0364 199.123 21.4396 203.508 21.4396C204.87 21.4396 206.609 20.948 208.198 20.1539V13.3097H214.02Z" fill="white"/>
<path d="M233.418 26.7717L221.243 10.4742V26.7717H214.928V0.303711H220.864L233.078 16.639V0.303711H239.355V26.7717H233.418Z" fill="white"/>
</svg>
