<svg width="237" height="38" viewBox="0 0 237 38" fill="none" xmlns="http://www.w3.org/2000/svg">
<path d="M85 33H5V35H85V33Z" fill="white"/>
<path d="M237 32.8398H150V35.1598H237V32.8398Z" fill="white"/>
<path d="M6.69598 16.8742L0 0.0732422H3.048L8.233 13.7302L13.465 0.0732422H16.417L9.625 16.8742H6.69598Z" fill="white"/>
<path d="M19.895 16.8742V0.0732422H22.727V16.8742H19.895Z" fill="white"/>
<path d="M40.1268 16.8742L31.1738 4.82524V16.8742H28.3418V0.0732422H31.1258L40.1268 12.1462V0.0732422H42.9108V16.8742H40.1268Z" fill="white"/>
<path d="M54.6951 2.61725V16.8742H51.8631V2.61725H46.5581V0.0732422H60.0241V2.61725H54.6951Z" fill="white"/>
<path d="M64.3661 13.0822L62.7591 16.8742H59.8071L67.2231 0.0732422H70.1271L77.4721 16.8742H74.4481L72.8411 13.0822H64.3661ZM68.5911 3.09724L65.4231 10.5622H71.7591L68.5911 3.09724Z" fill="white"/>
<path d="M94.4409 8.617V14.81C92.7369 16.106 90.216 16.994 87.912 16.994C82.944 16.994 79.08 13.274 79.08 8.47299C79.08 3.67299 82.992 0 88.08 0C90.48 0 92.881 0.912005 94.537 2.35201L92.929 4.44C91.633 3.24 89.833 2.52 88.08 2.52C84.648 2.52 81.96 5.136 81.96 8.472C81.96 11.832 84.6719 14.449 88.1049 14.449C89.353 14.449 90.769 14.017 91.969 13.297V8.616H94.4409V8.617Z" fill="white"/>
<path d="M102.478 2.61725V7.15424H110.687V9.69824H102.478V14.3302H111.935V16.8742H99.646V0.0732422H111.647V2.61725H102.478Z" fill="white"/>
<path d="M139.126 16.8742L139.102 4.32124L133.798 15.1222H131.949L126.644 4.32124V16.8742H123.98V0.0732422H127.34L132.885 11.2342L138.406 0.0732422H141.742V16.8742H139.126Z" fill="white"/>
<path d="M147.38 16.8742V0.0732422H150.212V16.8742H147.38Z" fill="white"/>
<path d="M167.613 16.8742L158.66 4.82524V16.8742H155.828V0.0732422H158.612L167.613 12.1462V0.0732422H170.397V16.8742H167.613Z" fill="white"/>
<path d="M176.036 16.8742V0.0732422H178.868V16.8742H176.036Z" fill="white"/>
<path d="M199.629 16.8742L199.605 4.32124L194.301 15.1222H192.452L187.147 4.32124V16.8742H184.483V0.0732422H187.843L193.388 11.2342L198.909 0.0732422H202.245V16.8742H199.629Z" fill="white"/>
<path d="M210.259 13.0822L208.652 16.8742H205.7L213.116 0.0732422H216.02L223.365 16.8742H220.341L218.734 13.0822H210.259ZM214.484 3.09724L211.316 10.5622H217.652L214.484 3.09724Z" fill="white"/>
<path d="M236.902 14.3062V16.8742H226.797V0.0732422H229.629V14.3062H236.902Z" fill="white"/>
<path d="M96.295 31.4053C97.974 31.4053 99.19 32.5813 99.19 34.2043C99.19 35.8193 97.966 37.0023 96.271 37.0023H94V31.4053H96.295ZM94.944 36.1553H96.32C97.407 36.1553 98.239 35.3473 98.239 34.2123C98.239 33.0683 97.384 32.2533 96.28 32.2533H94.944V36.1553Z" fill="white"/>
<path d="M105.144 32.2533V33.7643H107.878V34.6123H105.144V36.1553H108.294V37.0033H104.2V31.4062H108.198V32.2543H105.144V32.2533Z" fill="white"/>
<path d="M117.246 31.9412L116.854 32.7722C116.247 32.4042 115.639 32.2522 115.215 32.2522C114.663 32.2522 114.303 32.4602 114.303 32.8362C114.303 34.0592 117.325 33.4032 117.318 35.4182C117.318 36.4172 116.438 37.0332 115.208 37.0332C114.328 37.0332 113.496 36.6742 112.921 36.1462L113.328 35.3312C113.904 35.8582 114.624 36.1462 115.224 36.1462C115.879 36.1462 116.271 35.8982 116.271 35.4662C116.271 34.2182 113.249 34.9142 113.249 32.9242C113.249 31.9642 114.072 31.3652 115.287 31.3652C116.015 31.3662 116.727 31.5982 117.246 31.9412Z" fill="white"/>
<path d="M122.424 37.0033V31.4062H123.367V37.0033H122.424Z" fill="white"/>
<path d="M133.494 34.2518V36.3148C132.927 36.7468 132.087 37.0428 131.319 37.0428C129.665 37.0428 128.377 35.8038 128.377 34.2048C128.377 32.6058 129.681 31.3818 131.376 31.3818C132.175 31.3818 132.975 31.6858 133.526 32.1658L132.991 32.8618C132.558 32.4618 131.959 32.2218 131.376 32.2218C130.233 32.2218 129.337 33.0938 129.337 34.2048C129.337 35.3238 130.24 36.1958 131.384 36.1958C131.8 36.1958 132.272 36.0518 132.671 35.8118V34.2528L133.494 34.2518Z" fill="white"/>
<path d="M142.758 37.0033L139.776 32.9893V37.0033H138.833V31.4062H139.761L142.759 35.4283V31.4062H143.687V37.0033H142.758Z" fill="white"/>
</svg>
