<svg width="281" height="42" viewBox="0 0 281 42" fill="none" xmlns="http://www.w3.org/2000/svg">
<path d="M281 41H200.5V40H280V1H1V40H80.5V41H0V0H281V41Z" fill="white"/>
<path d="M60.173 23.5798H60.053H56.813V28.3088H52.541V11.5078H60.054C64.495 11.5078 67.039 13.6198 67.039 17.3638C67.039 19.9318 65.959 21.7808 63.99 22.7638L67.518 28.3078H62.669L60.173 23.5798ZM60.053 20.2198C61.902 20.2198 62.982 19.2838 62.982 17.5078C62.982 15.7558 61.902 14.8668 60.053 14.8668H56.813V20.2198H60.053Z" fill="white"/>
<path d="M74.188 14.8669V18.2029H82.205V21.5629H74.188V24.9469H83.334V28.3069H69.916V11.5059H83.069V14.8659L74.188 14.8669Z" fill="white"/>
<path d="M93.869 14.9395V28.3085H89.597V14.9395H84.58V11.4825H98.934V14.9395H93.869Z" fill="white"/>
<path d="M108.389 23.5798H108.269H105.029V28.3088H100.757V11.5078H108.27C112.71 11.5078 115.255 13.6198 115.255 17.3638C115.255 19.9318 114.175 21.7808 112.206 22.7638L115.734 28.3078H110.885L108.389 23.5798ZM108.269 20.2198C110.118 20.2198 111.198 19.2838 111.198 17.5078C111.198 15.7558 110.118 14.8668 108.269 14.8668H105.029V20.2198H108.269Z" fill="white"/>
<path d="M135.198 19.8835C135.198 24.7795 131.309 28.5005 126.1 28.5005C120.916 28.5005 117.028 24.8045 117.028 19.8835C117.028 14.9875 120.917 11.3635 126.1 11.3635C131.31 11.3625 135.198 15.0105 135.198 19.8835ZM121.396 19.9075C121.396 22.7405 123.581 24.9245 126.149 24.9245C128.741 24.9245 130.805 22.7405 130.805 19.9075C130.805 17.0755 128.741 14.9395 126.149 14.9395C123.557 14.9395 121.396 17.0755 121.396 19.9075Z" fill="white"/>
<path d="M144.676 11.5068C149.957 11.5068 153.606 14.9148 153.606 19.9068C153.606 24.8758 149.91 28.3078 144.508 28.3078H137.451V11.5068H144.676ZM141.724 24.8998H144.773C147.389 24.8998 149.261 22.8838 149.261 19.9308C149.261 16.9548 147.293 14.9148 144.58 14.9148H141.724V24.8998Z" fill="white"/>
<path d="M160.132 14.8669V18.2029H168.149V21.5629H160.132V24.9469H169.278V28.3069H155.86V11.5059H169.013V14.8659L160.132 14.8669Z" fill="white"/>
<path d="M185.117 13.1865L183.509 16.5225C181.733 15.4905 179.5 14.7705 178.132 14.7705C177.028 14.7705 176.284 15.1785 176.284 15.9945C176.284 18.8985 185.165 17.2425 185.165 23.3155C185.165 26.6755 182.188 28.4515 178.444 28.4515C175.635 28.4515 172.756 27.3955 170.763 25.7625L172.419 22.4745C174.147 23.9865 176.739 24.9945 178.491 24.9945C179.835 24.9945 180.676 24.4905 180.676 23.5305C180.676 20.5545 171.795 22.3305 171.795 16.3775C171.795 13.2815 174.459 11.3135 178.491 11.3135C180.916 11.3145 183.389 12.0585 185.117 13.1865Z" fill="white"/>
<path d="M187.491 28.3088V11.5078H191.763V28.3088H187.491Z" fill="white"/>
<path d="M209.98 19.7635V26.3165C208.18 27.5885 205.348 28.5005 202.996 28.5005C197.884 28.5005 194.019 24.8045 194.019 19.9075C194.019 15.0355 197.979 11.3635 203.284 11.3635C205.78 11.3635 208.421 12.3235 210.148 13.8595L207.749 16.7635C206.524 15.6355 204.82 14.9395 203.26 14.9395C200.5 14.9395 198.388 17.0995 198.388 19.9075C198.388 22.7645 200.525 24.9245 203.309 24.9245C204.172 24.9245 205.277 24.6125 206.285 24.1085V19.7635H209.98Z" fill="white"/>
<path d="M224.692 28.3088L216.964 17.9638V28.3088H212.955V11.5078H216.723L224.476 21.8768V11.5078H228.46V28.3088H224.692Z" fill="white"/>
<path d="M92.9292 41.9519V37.7539H93.6372V41.9519H92.9292Z" fill="white"/>
<path d="M100.685 41.9519L98.4492 38.9419V41.9519H97.7412V37.7539H98.4362L100.685 40.7709V37.7539H101.38V41.9519H100.685Z" fill="white"/>
<path d="M107.027 38.3899V41.9519H106.319V38.3899H104.994V37.7539H108.358V38.3899H107.027Z" fill="white"/>
<path d="M112.674 38.3899V39.5229H114.725V40.1589H112.674V41.3159H115.036V41.9519H111.966V37.7539H114.964V38.3899H112.674Z" fill="white"/>
<path d="M120.796 40.6809C120.736 40.6869 120.67 40.6869 120.605 40.6869H119.61V41.9519H118.902V37.7539H120.605C121.678 37.7539 122.296 38.2759 122.296 39.1869C122.296 39.8589 121.983 40.3319 121.426 40.5479L122.367 41.9509H121.563L120.796 40.6809ZM120.604 40.0509C121.252 40.0509 121.624 39.7749 121.624 39.2049C121.624 38.6529 121.252 38.3899 120.604 38.3899H119.609V40.0509H120.604Z" fill="white"/>
<path d="M126.239 41.9519V37.7539H126.947V41.9519H126.239Z" fill="white"/>
<path d="M135.152 39.8533C135.152 41.0523 134.18 41.9813 132.927 41.9813C131.674 41.9813 130.702 41.0523 130.702 39.8533C130.702 38.6473 131.674 37.7363 132.927 37.7363C134.181 37.7353 135.152 38.6533 135.152 39.8533ZM131.423 39.8533C131.423 40.6863 132.112 41.3463 132.934 41.3463C133.756 41.3463 134.427 40.6863 134.427 39.8533C134.427 39.0193 133.755 38.3723 132.934 38.3723C132.106 38.3713 131.423 39.0193 131.423 39.8533Z" fill="white"/>
<path d="M140.806 40.6809C140.746 40.6869 140.68 40.6869 140.615 40.6869H139.62V41.9519H138.912V37.7539H140.615C141.688 37.7539 142.306 38.2759 142.306 39.1869C142.306 39.8589 141.993 40.3319 141.436 40.5479L142.377 41.9509H141.573L140.806 40.6809ZM140.614 40.0509C141.261 40.0509 141.634 39.7749 141.634 39.2049C141.634 38.6529 141.262 38.3899 140.614 38.3899H139.619V40.0509H140.614Z" fill="white"/>
<path d="M152.518 37.7539C153.778 37.7539 154.689 38.6349 154.689 39.8529C154.689 41.0639 153.772 41.9519 152.501 41.9519H150.798V37.7539H152.518ZM151.505 41.3159H152.536C153.351 41.3159 153.974 40.7109 153.974 39.8589C153.974 39.0019 153.332 38.3899 152.505 38.3899H151.504V41.3159H151.505Z" fill="white"/>
<path d="M159.155 38.3899V39.5229H161.206V40.1589H159.155V41.3159H161.517V41.9519H158.447V37.7539H161.445V38.3899H159.155Z" fill="white"/>
<path d="M168.231 38.1556L167.937 38.7796C167.481 38.5036 167.025 38.3896 166.707 38.3896C166.293 38.3896 166.023 38.5456 166.023 38.8276C166.023 39.7446 168.29 39.2536 168.284 40.7646C168.284 41.5146 167.625 41.9766 166.701 41.9766C166.041 41.9766 165.418 41.7066 164.986 41.3106L165.292 40.6986C165.724 41.0946 166.264 41.3106 166.713 41.3106C167.205 41.3106 167.499 41.1246 167.499 40.8006C167.499 39.8646 165.231 40.3866 165.231 38.8936C165.231 38.1736 165.849 37.7246 166.76 37.7246C167.308 37.7246 167.842 37.8976 168.231 38.1556Z" fill="white"/>
<path d="M172.115 41.9519V37.7539H172.823V41.9519H172.115Z" fill="white"/>
<path d="M180.417 39.8884V41.4354C179.991 41.7594 179.361 41.9804 178.786 41.9804C177.544 41.9804 176.579 41.0514 176.579 39.8524C176.579 38.6524 177.556 37.7354 178.828 37.7354C179.428 37.7354 180.027 37.9634 180.44 38.3234L180.039 38.8444C179.715 38.5444 179.266 38.3644 178.828 38.3644C177.97 38.3644 177.299 39.0174 177.299 39.8514C177.299 40.6904 177.977 41.3444 178.834 41.3444C179.145 41.3444 179.499 41.2364 179.799 41.0564V39.8874H180.417V39.8884Z" fill="white"/>
<path d="M187.365 41.9519L185.129 38.9419V41.9519H184.421V37.7539H185.116L187.365 40.7709V37.7539H188.06V41.9519H187.365Z" fill="white"/>
</svg>
