<svg width="119" height="99" viewBox="0 0 119 99" fill="none" xmlns="http://www.w3.org/2000/svg">
<path d="M12.7219 37.2778C18.1486 16.5568 37.0295 1.22222 59.4286 1.22222C81.8276 1.22222 100.709 16.5568 106.135 37.2778H107.398C101.942 15.8754 82.506 0 59.4286 0C36.3512 0 16.9148 15.8754 11.4588 37.2778H12.7219Z" fill="white"/>
<path d="M106.135 61.7226C100.709 82.4436 81.8276 97.7782 59.4286 97.7782C37.0295 97.7782 18.1486 82.4436 12.7219 61.7226H11.4588C16.9148 83.125 36.3512 99.0004 59.4286 99.0004C82.506 99.0004 101.942 83.125 107.398 61.7226H106.135Z" fill="white"/>
<path d="M30.3569 68.7191V66.1543H30.7896V68.7191H30.3569Z" fill="white"/>
<path d="M35.0965 68.7191L33.73 66.8791V68.7191H33.2974V66.1543H33.7221L35.0965 67.9974V66.1543H35.5212V68.7191H35.0965Z" fill="white"/>
<path d="M38.9719 66.5424V68.7197H38.5392V66.5424H37.7295V66.1543H39.7853V66.5424H38.9719Z" fill="white"/>
<path d="M42.4234 66.5418V67.2347H43.6768V67.6234H42.4234V68.3305H43.8668V68.7191H41.9907V66.1543H43.8228V66.5424L42.4234 66.5418Z" fill="white"/>
<path d="M47.3865 67.9418C47.3498 67.9455 47.3095 67.9455 47.2697 67.9455H46.6617V68.7191H46.229V66.1543H47.2697C47.9255 66.1543 48.3031 66.4733 48.3031 67.03C48.3031 67.4407 48.1118 67.7304 47.7715 67.8617L48.3465 68.7191H47.8552L47.3865 67.9418ZM47.2691 67.5568C47.6651 67.5568 47.8924 67.3887 47.8924 67.0404C47.8924 66.7031 47.6651 66.5411 47.2691 66.5411H46.6611V67.5562H47.2691V67.5568Z" fill="white"/>
<path d="M50.7129 68.7191V66.1543H51.1456V68.7191H50.7129Z" fill="white"/>
<path d="M56.1593 67.4371C56.1593 68.1699 55.5653 68.7382 54.7996 68.7382C54.0339 68.7382 53.4399 68.1699 53.4399 67.4371C53.4399 66.7007 54.0339 66.1434 54.7996 66.1434C55.5659 66.1428 56.1593 66.7038 56.1593 67.4371ZM53.8805 67.4371C53.8805 67.9462 54.3015 68.3495 54.8039 68.3495C55.3062 68.3495 55.7163 67.9462 55.7163 67.4371C55.7163 66.9275 55.3056 66.5321 54.8039 66.5321C54.2979 66.5314 53.8805 66.9268 53.8805 67.4371Z" fill="white"/>
<path d="M59.614 67.9418C59.5773 67.9455 59.537 67.9455 59.4973 67.9455H58.8892V68.7191H58.4565V66.1543H59.4973C60.153 66.1543 60.5307 66.4733 60.5307 67.03C60.5307 67.4407 60.3394 67.7304 59.999 67.8617L60.574 68.7191H60.0827L59.614 67.9418ZM59.4967 67.5568C59.892 67.5568 60.12 67.3887 60.12 67.0404C60.12 66.7031 59.8927 66.5411 59.4967 66.5411H58.8886V67.5562H59.4967V67.5568Z" fill="white"/>
<path d="M66.7718 66.1543C67.5418 66.1543 68.0985 66.6927 68.0985 67.437C68.0985 68.1771 67.5381 68.7197 66.7614 68.7197H65.7207V66.1549L66.7718 66.1543ZM66.1528 68.3304H66.7828C67.2809 68.3304 67.6616 67.9601 67.6616 67.4401C67.6616 66.9164 67.2693 66.5417 66.7639 66.5417H66.1521V68.3304H66.1528Z" fill="white"/>
<path d="M70.8282 66.5418V67.2347H72.0816V67.6234H70.8282V68.3305H72.2716V68.7191H70.3955V66.1543H72.2276V66.5424L70.8282 66.5418Z" fill="white"/>
<path d="M76.3746 66.3997L76.1949 66.7811C75.9163 66.6124 75.6376 66.5421 75.4433 66.5421C75.1903 66.5421 75.0253 66.6375 75.0253 66.8104C75.0253 67.3708 76.4107 67.0707 76.407 67.9935C76.407 68.4518 76.0043 68.7342 75.4396 68.7342C75.0363 68.7342 74.6555 68.5686 74.3915 68.3272L74.5785 67.9538C74.8425 68.1958 75.1725 68.3272 75.4469 68.3272C75.7476 68.3272 75.9273 68.2141 75.9273 68.0155C75.9273 67.4435 74.5413 67.7625 74.5413 66.8501C74.5413 66.4101 74.9189 66.1357 75.4757 66.1357C75.8105 66.1364 76.1369 66.2421 76.3746 66.3997Z" fill="white"/>
<path d="M78.748 68.7191V66.1543H79.1807V68.7191H78.748Z" fill="white"/>
<path d="M83.8219 67.4591V68.4045C83.5615 68.6019 83.1765 68.7382 82.8251 68.7382C82.0661 68.7382 81.4764 68.1698 81.4764 67.4371C81.4764 66.7044 82.0735 66.1434 82.8508 66.1434C83.2175 66.1434 83.5835 66.2827 83.8359 66.5027L83.5909 66.8211C83.3929 66.6378 83.1185 66.5284 82.8508 66.5284C82.3265 66.5284 81.9164 66.9275 81.9164 67.4371C81.9164 67.9498 82.3308 68.3495 82.8545 68.3495C83.0445 68.3495 83.2609 68.2835 83.4442 68.1735V67.4591H83.8219Z" fill="white"/>
<path d="M88.0672 68.7191L86.7007 66.8791V68.7191H86.2681V66.1543H86.6928L88.0672 67.9974V66.1543H88.4919V68.7191H88.0672Z" fill="white"/>
<path d="M8.97594 54.273L8.96189 47.5991L6.49789 53.2463H4.79655L2.33194 47.5991V54.273H-6.10352e-05V43.991H2.86055L5.64783 50.1077L8.43511 43.991H11.2804V54.273H8.97594Z" fill="white"/>
<path d="M16.2793 54.2727V44.0049H18.89V54.2727H16.2793Z" fill="white"/>
<path d="M31.0487 54.2727L26.3254 47.9508V54.2727H23.8755V44.0049H26.1788L30.9167 50.3415V44.0049H33.3514V54.2727H31.0487Z" fill="white"/>
<path d="M38.3379 54.2727V44.0049H40.9486V54.2727H38.3379Z" fill="white"/>
<path d="M54.9121 54.273L54.898 47.5991L52.434 53.2463H50.7327L48.2681 47.5991V54.273H45.9361V43.991H48.7967L51.584 50.1077L54.3712 43.991H57.2166V54.273H54.9121Z" fill="white"/>
<path d="M64.5474 52.3801L63.7994 54.2727H61.1147L65.5447 44.0049H68.2293L72.556 54.2727H69.7687L69.0354 52.3801H64.5474ZM66.806 46.6015L65.31 50.4001H68.2733L66.806 46.6015Z" fill="white"/>
<path d="M83.4087 52.0864V54.2718H76.4414V44.0039H79.0521V52.0858H83.4087V52.0864Z" fill="white"/>
<path d="M87.5884 54.2727V44.0049H90.199V54.2727H87.5884Z" fill="white"/>
<path d="M103.18 45.032L102.198 47.0707C101.112 46.44 99.7476 46 98.9116 46C98.237 46 97.7823 46.2493 97.7823 46.748C97.7823 48.5227 103.21 47.5107 103.21 51.2219C103.21 53.2753 101.39 54.3606 99.1023 54.3606C97.3857 54.3606 95.6257 53.7153 94.4084 52.7179L95.4204 50.7086C96.4764 51.6326 98.0604 52.2486 99.131 52.2486C99.9524 52.2486 100.466 51.9406 100.466 51.3539C100.466 49.5347 95.039 50.6206 95.039 46.9833C95.039 45.0907 96.667 43.8886 99.131 43.8886C100.613 43.888 102.124 44.3427 103.18 45.032Z" fill="white"/>
<path d="M116.541 54.273L116.527 47.5991L114.063 53.2463H112.362L109.897 47.5991V54.273H107.565V43.991H110.426L113.213 50.1077L116 43.991H118.845V54.273H116.541Z" fill="white"/>
</svg>
