<svg width="212" height="62" viewBox="0 0 212 62" fill="none" xmlns="http://www.w3.org/2000/svg">
<path d="M62 0H0V62H62H212V0H62ZM60 60H2V2H60V60ZM210 60H62V2H210V60Z" fill="white"/>
<path d="M161 30H111V32H161V30Z" fill="white"/>
<path d="M94.4419 22.871L90.0879 11.667H93.1289L95.9939 19.91L98.8589 11.667H101.788L97.3869 22.871H94.4419Z" fill="white"/>
<path d="M106.089 22.871V11.667H108.939V22.871H106.089Z" fill="white"/>
<path d="M122.204 22.871L117.051 15.973V22.871H114.377V11.667H116.891L122.061 18.581V11.667H124.718V22.871H122.204Z" fill="white"/>
<path d="M135.339 13.9553V22.8713H132.489V13.9553H129.144V11.6503H138.715V13.9553H135.339Z" fill="white"/>
<path d="M144.474 20.807L143.659 22.871H140.729L145.563 11.667H148.493L153.215 22.871H150.174L149.373 20.807H144.474ZM146.939 14.5L145.306 18.646H148.539L146.939 14.5Z" fill="white"/>
<path d="M167.054 17.1733V21.5433C165.854 22.3913 163.965 22.9993 162.396 22.9993C158.987 22.9993 156.41 20.5343 156.41 17.2683C156.41 14.0193 159.052 11.5703 162.589 11.5703C164.254 11.5703 166.015 12.2113 167.167 13.2353L165.566 15.1723C164.75 14.4203 163.613 13.9553 162.573 13.9553C160.732 13.9553 159.323 15.3963 159.323 17.2683C159.323 19.1733 160.748 20.6143 162.605 20.6143C163.181 20.6143 163.918 20.4063 164.589 20.0703V17.1723L167.054 17.1733Z" fill="white"/>
<path d="M175.083 13.908V16.1339H180.429V18.374H175.083V20.6309H181.182V22.8719H172.234V11.668H181.005V13.908H175.083Z" fill="white"/>
<path d="M100.74 50.8713L100.724 43.5883L98.0349 49.7513H96.1779L93.4889 43.5883V50.8713H90.9439V39.6503H94.0659L97.1069 46.3253L100.148 39.6503H103.253V50.8713H100.74Z" fill="white"/>
<path d="M108.704 50.871V39.667H111.554V50.871H108.704Z" fill="white"/>
<path d="M124.819 50.871L119.666 43.973V50.871H116.992V39.667H119.506L124.676 46.581V39.667H127.333V50.871H124.819Z" fill="white"/>
<path d="M132.768 50.871V39.667H135.618V50.871H132.768Z" fill="white"/>
<path d="M150.852 50.8713L150.836 43.5883L148.147 49.7513H146.29L143.601 43.5883V50.8713H141.056V39.6503H144.178L147.219 46.3253L150.26 39.6503H153.365V50.8713H150.852Z" fill="white"/>
<path d="M161.36 48.807L160.544 50.871H157.614L162.448 39.667H165.378L170.1 50.871H167.059L166.258 48.807H161.36ZM163.826 42.5L162.193 46.646H165.426L163.826 42.5Z" fill="white"/>
<path d="M181.939 48.4869V50.8719H174.335V39.668H177.185V48.4869H181.939Z" fill="white"/>
<path d="M18.9022 34.375H17.9322V31.115H14.0672V34.375H13.0972V27.21H14.0672V30.405H17.9322V27.21H18.9022V34.375Z" fill="white"/>
<path d="M33.4419 12.21V13H29.9969V15.38H32.7869V16.14H29.9969V18.585H33.4469L33.4419 19.375H29.0269V12.21H33.4419Z" fill="white"/>
<path d="M34.522 49.375H33.772C33.685 49.375 33.615 49.353 33.562 49.309C33.508 49.266 33.468 49.211 33.442 49.144L32.772 47.415H29.557L28.887 49.144C28.866 49.204 28.828 49.258 28.772 49.304C28.715 49.351 28.645 49.374 28.562 49.374H27.812L30.676 42.209H31.656L34.522 49.375ZM29.827 46.715H32.502L31.377 43.8C31.341 43.713 31.305 43.613 31.27 43.5C31.235 43.387 31.2 43.2649 31.163 43.1349C31.13 43.2649 31.096 43.388 31.06 43.503C31.025 43.617 30.99 43.719 30.953 43.805L29.827 46.715Z" fill="white"/>
<path d="M47.2718 31.901C47.2718 32.3 47.2228 32.659 47.1248 32.975C47.0258 33.292 46.8818 33.56 46.6898 33.778C46.4978 33.997 46.2618 34.164 45.9818 34.281C45.7028 34.397 45.3798 34.456 45.0168 34.456C44.6868 34.456 44.3498 34.409 44.0068 34.316L44.0568 33.746C44.0638 33.689 44.0838 33.643 44.1198 33.608C44.1548 33.573 44.2088 33.555 44.2818 33.555C44.3428 33.555 44.4218 33.571 44.5198 33.6C44.6178 33.63 44.7508 33.645 44.9178 33.645C45.1378 33.645 45.3338 33.612 45.5078 33.545C45.6808 33.479 45.8258 33.375 45.9428 33.235C46.0598 33.094 46.1488 32.916 46.2108 32.697C46.2718 32.479 46.3038 32.22 46.3038 31.92V27.21H47.2738V31.901H47.2718Z" fill="white"/>
<path d="M16.3467 15.6416L15.6396 16.3487L45.639 46.3481L46.3461 45.641L16.3467 15.6416Z" fill="white"/>
<path d="M45.6391 15.6412L15.6396 45.6406L16.3467 46.3477L46.3462 16.3483L45.6391 15.6412Z" fill="white"/>
</svg>
