<svg width="280" height="65" viewBox="0 0 280 65" fill="none" xmlns="http://www.w3.org/2000/svg">
<path d="M19.5071 37.396H19.3271H14.4681V44.487H8.06104V19.29H19.3281C25.9871 19.29 29.803 22.458 29.803 28.073C29.803 31.925 28.1841 34.696 25.2321 36.172L30.5231 44.487H23.2521L19.5071 37.396ZM19.3271 32.356C22.0981 32.356 23.7191 30.953 23.7191 28.289C23.7191 25.662 22.0991 24.33 19.3271 24.33H14.4681V32.356H19.3271Z" fill="white"/>
<path d="M92.4292 64.2273V60.0303H93.1372V64.2273H92.4292Z" fill="white"/>
<path d="M100.185 64.2273L97.9492 61.2162V64.2273H97.2412V60.0303H97.9362L100.185 63.0463V60.0303H100.88V64.2273H100.185Z" fill="white"/>
<path d="M106.527 60.6653V64.2283H105.819V60.6653H104.494V60.0303H107.858V60.6653H106.527Z" fill="white"/>
<path d="M112.174 60.6653V61.7993H114.225V62.4352H112.174V63.5923H114.536V64.2283H111.466V60.0312H114.464V60.6663L112.174 60.6653Z" fill="white"/>
<path d="M120.296 62.9563C120.236 62.9623 120.17 62.9623 120.105 62.9623H119.11V64.2283H118.402V60.0312H120.105C121.178 60.0312 121.796 60.5533 121.796 61.4643C121.796 62.1363 121.483 62.6103 120.926 62.8253L121.867 64.2283H121.063L120.296 62.9563ZM120.104 62.3263C120.752 62.3263 121.124 62.0513 121.124 61.4813C121.124 60.9293 120.752 60.6642 120.104 60.6642H119.109V62.3253H120.104V62.3263Z" fill="white"/>
<path d="M125.739 64.2273V60.0303H126.447V64.2273H125.739Z" fill="white"/>
<path d="M134.652 62.1287C134.652 63.3277 133.68 64.2577 132.427 64.2577C131.174 64.2577 130.202 63.3277 130.202 62.1287C130.202 60.9237 131.174 60.0117 132.427 60.0117C133.681 60.0107 134.652 60.9287 134.652 62.1287ZM130.923 62.1287C130.923 62.9617 131.612 63.6217 132.434 63.6217C133.256 63.6217 133.927 62.9617 133.927 62.1287C133.927 61.2947 133.255 60.6477 132.434 60.6477C131.606 60.6467 130.923 61.2937 130.923 62.1287Z" fill="white"/>
<path d="M140.306 62.9563C140.246 62.9623 140.18 62.9623 140.115 62.9623H139.12V64.2283H138.412V60.0312H140.115C141.188 60.0312 141.806 60.5533 141.806 61.4643C141.806 62.1363 141.493 62.6103 140.936 62.8253L141.878 64.2283H141.074L140.306 62.9563ZM140.114 62.3263C140.761 62.3263 141.134 62.0513 141.134 61.4813C141.134 60.9293 140.762 60.6642 140.114 60.6642H139.119V62.3253H140.114V62.3263Z" fill="white"/>
<path d="M152.018 60.0303C153.278 60.0303 154.189 60.9113 154.189 62.1293C154.189 63.3403 153.272 64.2283 152.001 64.2283H150.298V60.0312L152.018 60.0303ZM151.005 63.5912H152.036C152.851 63.5912 153.474 62.9853 153.474 62.1343C153.474 61.2773 152.832 60.6642 152.005 60.6642H151.004L151.005 63.5912Z" fill="white"/>
<path d="M158.655 60.6653V61.7993H160.706V62.4352H158.655V63.5923H161.017V64.2283H157.947V60.0312H160.945V60.6663L158.655 60.6653Z" fill="white"/>
<path d="M167.731 60.431L167.437 61.0551C166.981 60.7791 166.525 60.664 166.208 60.664C165.794 60.664 165.524 60.82 165.524 61.103C165.524 62.02 167.791 61.529 167.785 63.039C167.785 63.789 167.126 64.251 166.202 64.251C165.542 64.251 164.919 63.98 164.487 63.585L164.793 62.974C165.225 63.37 165.765 63.585 166.214 63.585C166.706 63.585 167 63.4 167 63.075C167 62.139 164.732 62.661 164.732 61.168C164.732 60.448 165.35 59.999 166.261 59.999C166.808 60 167.342 60.173 167.731 60.431Z" fill="white"/>
<path d="M171.615 64.2273V60.0303H172.323V64.2273H171.615Z" fill="white"/>
<path d="M179.917 62.1647V63.7117C179.491 64.0347 178.861 64.2577 178.286 64.2577C177.044 64.2577 176.079 63.3277 176.079 62.1287C176.079 60.9297 177.056 60.0117 178.328 60.0117C178.928 60.0117 179.527 60.2397 179.94 60.5997L179.539 61.1207C179.215 60.8207 178.766 60.6417 178.328 60.6417C177.47 60.6417 176.799 61.2947 176.799 62.1287C176.799 62.9677 177.477 63.6217 178.334 63.6217C178.646 63.6217 178.999 63.5137 179.299 63.3337V62.1647H179.917Z" fill="white"/>
<path d="M186.865 64.2273L184.629 61.2162V64.2273H183.921V60.0303H184.616L186.865 63.0463V60.0303H187.56V64.2273H186.865Z" fill="white"/>
<path d="M280 61.7754H200V63.7754H280V61.7754Z" fill="white"/>
<path d="M80 61.7754H0V63.7754H80V61.7754Z" fill="white"/>
<path d="M40.532 24.33V29.333H52.555V34.373H40.532V39.448H54.247V44.487H34.125V19.29H53.851V24.33H40.532Z" fill="white"/>
<path d="M70.0521 24.4369V44.4869H63.6451V24.4369H56.1221V19.2539H77.647V24.4369H70.0521Z" fill="white"/>
<path d="M91.8312 37.396H91.6512H86.7922V44.487H80.3853V19.29H91.6522C98.3112 19.29 102.127 22.458 102.127 28.073C102.127 31.925 100.508 34.696 97.5563 36.172L102.847 44.487H95.5762L91.8312 37.396ZM91.6512 32.356C94.4222 32.356 96.0433 30.953 96.0433 28.289C96.0433 25.662 94.4232 24.33 91.6512 24.33H86.7922V32.356H91.6512Z" fill="white"/>
<path d="M132.042 31.8522C132.042 39.1962 126.211 44.7752 118.399 44.7752C110.625 44.7752 104.794 39.2322 104.794 31.8522C104.794 24.5092 110.625 19.0742 118.399 19.0742C126.211 19.0742 132.042 24.5462 132.042 31.8522ZM111.345 31.8882C111.345 36.1362 114.62 39.4112 118.472 39.4112C122.36 39.4112 125.455 36.1362 125.455 31.8882C125.455 27.6412 122.359 24.4372 118.472 24.4372C114.585 24.4372 111.345 27.6412 111.345 31.8882Z" fill="white"/>
<path d="M146.264 19.29C154.183 19.29 159.655 24.401 159.655 31.889C159.655 39.34 154.111 44.488 146.012 44.488H135.429V19.291L146.264 19.29ZM141.836 39.376H146.407C150.331 39.376 153.139 36.353 153.139 31.925C153.139 27.462 150.188 24.402 146.119 24.402H141.836V39.376Z" fill="white"/>
<path d="M169.448 24.33V29.333H181.471V34.373H169.448V39.448H183.163V44.487H163.041V19.29H182.767V24.33H169.448Z" fill="white"/>
<path d="M206.923 21.8099L204.511 26.813C201.847 25.265 198.499 24.1849 196.448 24.1849C194.793 24.1849 193.677 24.7969 193.677 26.0209C193.677 30.3769 206.995 27.8929 206.995 36.9999C206.995 42.0399 202.532 44.7029 196.917 44.7029C192.705 44.7029 188.386 43.1189 185.398 40.6719L187.881 35.74C190.473 38.008 194.36 39.519 196.987 39.519C199.003 39.519 200.263 38.763 200.263 37.324C200.263 32.86 186.945 35.524 186.945 26.597C186.945 21.953 190.94 19.002 196.987 19.002C200.623 19.002 204.331 20.1179 206.923 21.8099Z" fill="white"/>
<path d="M210.488 44.487V19.29H216.895V44.487H210.488Z" fill="white"/>
<path d="M244.217 31.6732V41.5002C241.518 43.4072 237.27 44.7752 233.742 44.7752C226.075 44.7752 220.28 39.2322 220.28 31.8882C220.28 24.5812 226.218 19.0742 234.173 19.0742C237.917 19.0742 241.876 20.5142 244.468 22.8182L240.868 27.1732C239.032 25.4812 236.476 24.4372 234.137 24.4372C229.998 24.4372 226.83 27.6772 226.83 31.8882C226.83 36.1712 230.034 39.4112 234.209 39.4112C235.505 39.4112 237.161 38.9432 238.673 38.1872V31.6712H244.217V31.6732Z" fill="white"/>
<path d="M266.285 44.487L254.695 28.973V44.487H248.683V19.29H254.334L265.961 34.841V19.29H271.936V44.487H266.285Z" fill="white"/>
<path d="M129.784 4.22729V0.659241H128.963V0.0302734H130.492V4.22729H129.784Z" fill="white"/>
<path d="M134.579 3.93896L134.854 3.40594C135.112 3.57394 135.466 3.66998 135.784 3.66998C136.599 3.66998 136.977 3.05895 136.953 2.15295C136.731 2.54295 136.336 2.74695 135.809 2.74695C134.969 2.74695 134.459 2.22597 134.459 1.40997C134.459 0.540973 135.041 0.000976562 135.934 0.000976562C136.995 0.000976562 137.644 0.756959 137.644 2.04596C137.644 3.38296 136.942 4.25897 135.832 4.25897C135.418 4.25697 134.921 4.13096 134.579 3.93896ZM136.84 1.38995C136.846 1.02495 136.576 0.610962 135.97 0.610962C135.46 0.610962 135.118 0.904978 135.118 1.41498C135.118 1.89398 135.431 2.18799 135.94 2.18799C136.51 2.18799 136.846 1.82295 136.84 1.38995Z" fill="white"/>
<path d="M144.183 1.08502C144.183 1.49302 143.95 1.81101 143.559 1.98401C144.069 2.15201 144.393 2.54203 144.393 3.05103C144.393 3.80103 143.769 4.25702 142.774 4.25702C141.785 4.25702 141.161 3.80103 141.161 3.06403C141.161 2.54803 141.491 2.15201 142.024 1.98401C141.617 1.79801 141.371 1.46804 141.371 1.06104C141.371 0.401035 141.917 0 142.774 0C143.637 0 144.183 0.414022 144.183 1.08502ZM141.832 2.98602C141.832 3.44202 142.174 3.70001 142.773 3.70001C143.372 3.70001 143.72 3.44202 143.72 2.98602C143.72 2.54802 143.372 2.29102 142.773 2.29102C142.18 2.29102 141.832 2.54802 141.832 2.98602ZM141.97 1.12701C141.97 1.51701 142.27 1.73901 142.774 1.73901C143.284 1.73901 143.578 1.51601 143.578 1.12701C143.578 0.737014 143.284 0.51001 142.774 0.51001C142.269 0.50901 141.97 0.737014 141.97 1.12701Z" fill="white"/>
<path d="M148.779 0.665283V1.57129L149.355 1.56525C150.266 1.56525 150.854 2.10429 150.854 2.84229C150.854 3.69329 150.243 4.25128 149.301 4.25128C148.803 4.25128 148.221 4.05926 147.808 3.77026L148.089 3.19525C148.425 3.47625 148.845 3.63824 149.223 3.63824C149.769 3.63824 150.098 3.35724 150.098 2.88324C150.098 2.45724 149.769 2.1933 149.229 2.1933C148.977 2.1933 148.408 2.21829 148.125 2.24829V0.0292969H150.68L150.686 0.664246H148.779V0.665283Z" fill="white"/>
<path d="M280 1.77539H165V3.77539H280V1.77539Z" fill="white"/>
<path d="M115 1.77539H0V3.77539H115V1.77539Z" fill="white"/>
</svg>
