<svg width="436" height="124" viewBox="0 0 436 124" fill="none" xmlns="http://www.w3.org/2000/svg">
<g filter="url(#filter0_f_11_76)">
<path d="M44.9228 44.4801L45.0646 44.3448L45.1994 44.2025L47.2862 41.9997H281.435L283.789 44.3534L286.631 47.1953V76.9099L283.798 79.878L281.558 81.9997H47.1621L45.0524 79.8901L41.9665 76.8042V47.302L44.9228 44.4801Z" stroke="url(#paint0_linear_11_76)" stroke-width="15.5932"/>
</g>
<g filter="url(#filter1_b_11_76)">
<mask id="path-2-inside-1_11_76" fill="white">
<path fill-rule="evenodd" clip-rule="evenodd" d="M32.667 29.5356L24 37.8644V85.4576L32.667 94.1831L39.7581 101.322H82.3051V96H155L172.093 102H286.047L302 96H372.662V101.322H415.209L422.3 94.1831L430.967 85.4576V37.8644L422.3 29.5356L415.209 22H372.662V28H306L289.287 22H169.907L152 28H82.3051V22H39.7581L32.667 29.5356Z"/>
</mask>
<path fill-rule="evenodd" clip-rule="evenodd" d="M32.667 29.5356L24 37.8644V85.4576L32.667 94.1831L39.7581 101.322H82.3051V96H155L172.093 102H286.047L302 96H372.662V101.322H415.209L422.3 94.1831L430.967 85.4576V37.8644L422.3 29.5356L415.209 22H372.662V28H306L289.287 22H169.907L152 28H82.3051V22H39.7581L32.667 29.5356Z" fill="url(#paint1_linear_11_76)" fill-opacity="0.1"/>
<path d="M24 37.8644L23.5302 37.3756L23.322 37.5757V37.8644H24ZM32.667 29.5356L33.1367 30.0244L33.149 30.0126L33.1607 30.0002L32.667 29.5356ZM24 85.4576H23.322V85.7371L23.519 85.9354L24 85.4576ZM32.667 94.1831L33.148 93.7053L32.667 94.1831ZM39.7581 101.322L39.2771 101.8L39.476 102H39.7581V101.322ZM82.3051 101.322V102H82.9831V101.322H82.3051ZM82.3051 96V95.322H81.6271V96H82.3051ZM155 96L155.225 95.3603L155.116 95.322H155V96ZM172.093 102L171.868 102.64L171.977 102.678H172.093V102ZM286.047 102V102.678H286.17L286.285 102.635L286.047 102ZM302 96V95.322H301.877L301.761 95.3654L302 96ZM372.662 96H373.34V95.322H372.662V96ZM372.662 101.322H371.984V102H372.662V101.322ZM415.209 101.322V102H415.491L415.69 101.8L415.209 101.322ZM422.3 94.1831L422.781 94.6608L422.781 94.6608L422.3 94.1831ZM430.967 85.4576L431.448 85.9354L431.645 85.7371V85.4576H430.967ZM430.967 37.8644H431.645V37.5757L431.437 37.3756L430.967 37.8644ZM422.3 29.5356L421.806 30.0002L421.818 30.0126L421.83 30.0244L422.3 29.5356ZM415.209 22L415.702 21.5354L415.502 21.322H415.209V22ZM372.662 22V21.322H371.984V22H372.662ZM372.662 28V28.678H373.34V28H372.662ZM306 28L305.771 28.6381L305.882 28.678H306V28ZM289.287 22L289.516 21.3619L289.405 21.322H289.287V22ZM169.907 22V21.322H169.796L169.692 21.3572L169.907 22ZM152 28V28.678H152.111L152.215 28.6428L152 28ZM82.3051 28H81.6271V28.678H82.3051V28ZM82.3051 22H82.9831V21.322H82.3051V22ZM39.7581 22V21.322H39.4652L39.2644 21.5354L39.7581 22ZM24.4698 38.3532L33.1367 30.0244L32.1972 29.0468L23.5302 37.3756L24.4698 38.3532ZM24.678 85.4576V37.8644H23.322V85.4576H24.678ZM33.148 93.7053L24.481 84.9798L23.519 85.9354L32.186 94.6608L33.148 93.7053ZM40.2391 100.844L33.148 93.7053L32.186 94.6608L39.2771 101.8L40.2391 100.844ZM82.3051 100.644H39.7581V102H82.3051V100.644ZM81.6271 96V101.322H82.9831V96H81.6271ZM155 95.322H82.3051V96.678H155V95.322ZM172.318 101.36L155.225 95.3603L154.775 96.6397L171.868 102.64L172.318 101.36ZM286.047 101.322H172.093V102.678H286.047V101.322ZM301.761 95.3654L285.808 101.365L286.285 102.635L302.239 96.6346L301.761 95.3654ZM372.662 95.322H302V96.678H372.662V95.322ZM373.34 101.322V96H371.984V101.322H373.34ZM415.209 100.644H372.662V102H415.209V100.644ZM421.819 93.7053L414.728 100.844L415.69 101.8L422.781 94.6608L421.819 93.7053ZM430.486 84.9798L421.819 93.7053L422.781 94.6608L431.448 85.9354L430.486 84.9798ZM430.289 37.8644V85.4576H431.645V37.8644H430.289ZM421.83 30.0244L430.497 38.3532L431.437 37.3756L422.77 29.0468L421.83 30.0244ZM414.715 22.4646L421.806 30.0002L422.794 29.071L415.702 21.5354L414.715 22.4646ZM372.662 22.678H415.209V21.322H372.662V22.678ZM373.34 28V22H371.984V28H373.34ZM306 28.678H372.662V27.322H306V28.678ZM306.229 27.3619L289.516 21.3619L289.058 22.6381L305.771 28.6381L306.229 27.3619ZM289.287 21.322H169.907V22.678H289.287V21.322ZM169.692 21.3572L151.785 27.3572L152.215 28.6428L170.122 22.6428L169.692 21.3572ZM82.3051 28.678H152V27.322H82.3051V28.678ZM81.6271 22V28H82.9831V22H81.6271ZM39.7581 22.678H82.3051V21.322H39.7581V22.678ZM33.1607 30.0002L40.2519 22.4646L39.2644 21.5354L32.1732 29.071L33.1607 30.0002Z" fill="white" fill-opacity="0.3" mask="url(#path-2-inside-1_11_76)"/>
</g>
<g filter="url(#filter2_i_11_76)">
<path d="M42.005 38.6712L48.5545 34H407.445L414.359 38.6712L422 43.8341V80.1659L414.359 85.5746L407.445 90H48.5545L42.005 85.5746L34 80.1659V43.8341L42.005 38.6712Z" fill="white" fill-opacity="0.01"/>
</g>
<path d="M42.5562 39.5258L42.5762 39.513L42.5955 39.4992L48.88 35.0169H407.134L413.79 39.5139L420.983 44.3743V79.6398L413.791 84.7308L407.148 88.9831H48.8659L42.5743 84.732L35.0169 79.6257V44.3884L42.5562 39.5258Z" stroke="url(#paint2_linear_11_76)" stroke-opacity="0.7" stroke-width="2.0339"/>
<g filter="url(#filter3_i_11_76)">
<path d="M42.3725 39.241L42.3858 39.2324L42.3987 39.2232L48.7715 34.678H407.238L413.979 39.233L421.322 44.1943V79.8151L413.98 85.0123L407.247 89.322H48.7621L42.3846 85.0129L34.678 79.8057V44.2036L42.3725 39.241Z" stroke="white" stroke-width="1.35593"/>
</g>
<g filter="url(#filter4_d_11_76)">
<rect x="42.3066" y="25.3898" width="37.2881" height="2.71186" rx="1.35593" fill="#E641FF"/>
</g>
<g filter="url(#filter5_d_11_76)">
<rect x="375.373" y="25.3898" width="37.2881" height="2.71186" rx="1.35593" fill="#52C5FF"/>
</g>
<g filter="url(#filter6_d_11_76)">
<rect x="428.254" y="43.0166" width="37.2881" height="2.71186" rx="1.35593" transform="rotate(90 428.254 43.0166)" fill="#52C5FF"/>
</g>
<g filter="url(#filter7_d_11_76)">
<rect x="30.1016" y="43.0166" width="37.2881" height="2.71186" rx="1.35593" transform="rotate(90 30.1016 43.0166)" fill="#E641FF"/>
</g>
<g filter="url(#filter8_d_11_76)">
<rect x="42.3066" y="95.8983" width="37.2881" height="2.71186" rx="1.35593" fill="#E641FF"/>
</g>
<g filter="url(#filter9_d_11_76)">
<rect x="375.373" y="95.8983" width="37.2881" height="2.71186" rx="1.35593" fill="#52C5FF"/>
</g>
<defs>
<filter id="filter0_f_11_76" x="0.271614" y="0.304817" width="328.054" height="123.39" filterUnits="userSpaceOnUse" color-interpolation-filters="sRGB">
<feFlood flood-opacity="0" result="BackgroundImageFix"/>
<feBlend mode="normal" in="SourceGraphic" in2="BackgroundImageFix" result="shape"/>
<feGaussianBlur stdDeviation="16.9492" result="effect1_foregroundBlur_11_76"/>
</filter>
<filter id="filter1_b_11_76" x="-3.11864" y="-5.11864" width="461.204" height="134.237" filterUnits="userSpaceOnUse" color-interpolation-filters="sRGB">
<feFlood flood-opacity="0" result="BackgroundImageFix"/>
<feGaussianBlur in="BackgroundImageFix" stdDeviation="13.5593"/>
<feComposite in2="SourceAlpha" operator="in" result="effect1_backgroundBlur_11_76"/>
<feBlend mode="normal" in="SourceGraphic" in2="effect1_backgroundBlur_11_76" result="shape"/>
</filter>
<filter id="filter2_i_11_76" x="34" y="34" width="388" height="60.0678" filterUnits="userSpaceOnUse" color-interpolation-filters="sRGB">
<feFlood flood-opacity="0" result="BackgroundImageFix"/>
<feBlend mode="normal" in="SourceGraphic" in2="BackgroundImageFix" result="shape"/>
<feColorMatrix in="SourceAlpha" type="matrix" values="0 0 0 0 0 0 0 0 0 0 0 0 0 0 0 0 0 0 127 0" result="hardAlpha"/>
<feOffset dy="4.0678"/>
<feGaussianBlur stdDeviation="11.8644"/>
<feComposite in2="hardAlpha" operator="arithmetic" k2="-1" k3="1"/>
<feColorMatrix type="matrix" values="0 0 0 0 0 0 0 0 0 0.666667 0 0 0 0 1 0 0 0 0.4 0"/>
<feBlend mode="normal" in2="shape" result="effect1_innerShadow_11_76"/>
</filter>
<filter id="filter3_i_11_76" x="34" y="34" width="388" height="60.0678" filterUnits="userSpaceOnUse" color-interpolation-filters="sRGB">
<feFlood flood-opacity="0" result="BackgroundImageFix"/>
<feBlend mode="normal" in="SourceGraphic" in2="BackgroundImageFix" result="shape"/>
<feColorMatrix in="SourceAlpha" type="matrix" values="0 0 0 0 0 0 0 0 0 0 0 0 0 0 0 0 0 0 127 0" result="hardAlpha"/>
<feOffset dy="4.0678"/>
<feGaussianBlur stdDeviation="11.8644"/>
<feComposite in2="hardAlpha" operator="arithmetic" k2="-1" k3="1"/>
<feColorMatrix type="matrix" values="0 0 0 0 0 0 0 0 0 0.666667 0 0 0 0 1 0 0 0 0.4 0"/>
<feBlend mode="normal" in2="shape" result="effect1_innerShadow_11_76"/>
</filter>
<filter id="filter4_d_11_76" x="37.5609" y="20.6441" width="46.7797" height="12.2034" filterUnits="userSpaceOnUse" color-interpolation-filters="sRGB">
<feFlood flood-opacity="0" result="BackgroundImageFix"/>
<feColorMatrix in="SourceAlpha" type="matrix" values="0 0 0 0 0 0 0 0 0 0 0 0 0 0 0 0 0 0 127 0" result="hardAlpha"/>
<feOffset/>
<feGaussianBlur stdDeviation="2.37288"/>
<feComposite in2="hardAlpha" operator="out"/>
<feColorMatrix type="matrix" values="0 0 0 0 0.788497 0 0 0 0 0 0 0 0 0 0.909804 0 0 0 1 0"/>
<feBlend mode="normal" in2="BackgroundImageFix" result="effect1_dropShadow_11_76"/>
<feBlend mode="normal" in="SourceGraphic" in2="effect1_dropShadow_11_76" result="shape"/>
</filter>
<filter id="filter5_d_11_76" x="368.593" y="18.6102" width="50.8475" height="16.2712" filterUnits="userSpaceOnUse" color-interpolation-filters="sRGB">
<feFlood flood-opacity="0" result="BackgroundImageFix"/>
<feColorMatrix in="SourceAlpha" type="matrix" values="0 0 0 0 0 0 0 0 0 0 0 0 0 0 0 0 0 0 127 0" result="hardAlpha"/>
<feOffset/>
<feGaussianBlur stdDeviation="3.38983"/>
<feComposite in2="hardAlpha" operator="out"/>
<feColorMatrix type="matrix" values="0 0 0 0 0 0 0 0 0 0.666667 0 0 0 0 1 0 0 0 1 0"/>
<feBlend mode="normal" in2="BackgroundImageFix" result="effect1_dropShadow_11_76"/>
<feBlend mode="normal" in="SourceGraphic" in2="effect1_dropShadow_11_76" result="shape"/>
</filter>
<filter id="filter6_d_11_76" x="418.762" y="36.2369" width="16.2712" height="50.8475" filterUnits="userSpaceOnUse" color-interpolation-filters="sRGB">
<feFlood flood-opacity="0" result="BackgroundImageFix"/>
<feColorMatrix in="SourceAlpha" type="matrix" values="0 0 0 0 0 0 0 0 0 0 0 0 0 0 0 0 0 0 127 0" result="hardAlpha"/>
<feOffset/>
<feGaussianBlur stdDeviation="3.38983"/>
<feComposite in2="hardAlpha" operator="out"/>
<feColorMatrix type="matrix" values="0 0 0 0 0 0 0 0 0 0.666667 0 0 0 0 1 0 0 0 1 0"/>
<feBlend mode="normal" in2="BackgroundImageFix" result="effect1_dropShadow_11_76"/>
<feBlend mode="normal" in="SourceGraphic" in2="effect1_dropShadow_11_76" result="shape"/>
</filter>
<filter id="filter7_d_11_76" x="22.6439" y="38.2708" width="12.2034" height="46.7797" filterUnits="userSpaceOnUse" color-interpolation-filters="sRGB">
<feFlood flood-opacity="0" result="BackgroundImageFix"/>
<feColorMatrix in="SourceAlpha" type="matrix" values="0 0 0 0 0 0 0 0 0 0 0 0 0 0 0 0 0 0 127 0" result="hardAlpha"/>
<feOffset/>
<feGaussianBlur stdDeviation="2.37288"/>
<feComposite in2="hardAlpha" operator="out"/>
<feColorMatrix type="matrix" values="0 0 0 0 0.788497 0 0 0 0 0 0 0 0 0 0.909804 0 0 0 1 0"/>
<feBlend mode="normal" in2="BackgroundImageFix" result="effect1_dropShadow_11_76"/>
<feBlend mode="normal" in="SourceGraphic" in2="effect1_dropShadow_11_76" result="shape"/>
</filter>
<filter id="filter8_d_11_76" x="37.5609" y="91.1526" width="46.7797" height="12.2034" filterUnits="userSpaceOnUse" color-interpolation-filters="sRGB">
<feFlood flood-opacity="0" result="BackgroundImageFix"/>
<feColorMatrix in="SourceAlpha" type="matrix" values="0 0 0 0 0 0 0 0 0 0 0 0 0 0 0 0 0 0 127 0" result="hardAlpha"/>
<feOffset/>
<feGaussianBlur stdDeviation="2.37288"/>
<feComposite in2="hardAlpha" operator="out"/>
<feColorMatrix type="matrix" values="0 0 0 0 0.788497 0 0 0 0 0 0 0 0 0 0.909804 0 0 0 1 0"/>
<feBlend mode="normal" in2="BackgroundImageFix" result="effect1_dropShadow_11_76"/>
<feBlend mode="normal" in="SourceGraphic" in2="effect1_dropShadow_11_76" result="shape"/>
</filter>
<filter id="filter9_d_11_76" x="368.593" y="89.1187" width="50.8475" height="16.2712" filterUnits="userSpaceOnUse" color-interpolation-filters="sRGB">
<feFlood flood-opacity="0" result="BackgroundImageFix"/>
<feColorMatrix in="SourceAlpha" type="matrix" values="0 0 0 0 0 0 0 0 0 0 0 0 0 0 0 0 0 0 127 0" result="hardAlpha"/>
<feOffset/>
<feGaussianBlur stdDeviation="3.38983"/>
<feComposite in2="hardAlpha" operator="out"/>
<feColorMatrix type="matrix" values="0 0 0 0 0 0 0 0 0 0.666667 0 0 0 0 1 0 0 0 1 0"/>
<feBlend mode="normal" in2="BackgroundImageFix" result="effect1_dropShadow_11_76"/>
<feBlend mode="normal" in="SourceGraphic" in2="effect1_dropShadow_11_76" result="shape"/>
</filter>
<linearGradient id="paint0_linear_11_76" x1="34.1699" y1="61.9997" x2="294.428" y2="61.9997" gradientUnits="userSpaceOnUse">
<stop stop-color="#C900E8"/>
<stop offset="1" stop-color="#00AAFF"/>
</linearGradient>
<linearGradient id="paint1_linear_11_76" x1="24" y1="62" x2="301.967" y2="62" gradientUnits="userSpaceOnUse">
<stop stop-color="#C900E8"/>
<stop offset="1" stop-color="#00AAFF"/>
</linearGradient>
<linearGradient id="paint2_linear_11_76" x1="34" y1="62" x2="422" y2="62" gradientUnits="userSpaceOnUse">
<stop stop-color="#C900E8"/>
<stop offset="1" stop-color="#00AAFF"/>
</linearGradient>
</defs>
</svg>
