<svg width="329" height="124" viewBox="0 0 329 124" fill="none" xmlns="http://www.w3.org/2000/svg">
<g filter="url(#filter0_f_29_2)">
<path d="M44.9228 44.4801L45.0646 44.3448L45.1994 44.2025L47.2862 41.9997H281.435L283.789 44.3534L286.631 47.1953V76.9099L283.798 79.878L281.558 81.9997H47.1621L45.0524 79.8901L41.9665 76.8042V47.302L44.9228 44.4801Z" stroke="url(#paint0_linear_29_2)" stroke-width="15.5932"/>
</g>
<g filter="url(#filter1_b_29_2)">
<mask id="path-2-inside-1_29_2" fill="white">
<path fill-rule="evenodd" clip-rule="evenodd" d="M32.667 29.5356L24 37.8644V85.4576L32.667 94.1831L39.7581 101.322H82.3051V95.8983H121.627L131.797 102H199.593L209.085 95.8983H243.662V101.322H286.209L293.3 94.1831L301.967 85.4576V37.8644L293.3 29.5356L286.209 22H243.662V28.1017H207.529L199.593 23H131.796L123.294 28.1017H82.3051V22H39.7581L32.667 29.5356Z"/>
</mask>
<path fill-rule="evenodd" clip-rule="evenodd" d="M32.667 29.5356L24 37.8644V85.4576L32.667 94.1831L39.7581 101.322H82.3051V95.8983H121.627L131.797 102H199.593L209.085 95.8983H243.662V101.322H286.209L293.3 94.1831L301.967 85.4576V37.8644L293.3 29.5356L286.209 22H243.662V28.1017H207.529L199.593 23H131.796L123.294 28.1017H82.3051V22H39.7581L32.667 29.5356Z" fill="url(#paint1_linear_29_2)" fill-opacity="0.1"/>
<path d="M24 37.8644L23.5302 37.3756L23.322 37.5757V37.8644H24ZM32.667 29.5356L33.1367 30.0244L33.149 30.0126L33.1607 30.0002L32.667 29.5356ZM24 85.4576H23.322V85.7371L23.519 85.9354L24 85.4576ZM32.667 94.1831L33.148 93.7053L32.667 94.1831ZM39.7581 101.322L39.2771 101.8L39.476 102H39.7581V101.322ZM82.3051 101.322V102H82.9831V101.322H82.3051ZM82.3051 95.8983V95.2203H81.6271V95.8983H82.3051ZM121.627 95.8983L121.976 95.317L121.815 95.2203H121.627V95.8983ZM131.797 102L131.448 102.581L131.609 102.678H131.797V102ZM199.593 102V102.678H199.792L199.96 102.57L199.593 102ZM209.085 95.8983V95.2203H208.886L208.718 95.328L209.085 95.8983ZM243.662 95.8983H244.34V95.2203H243.662V95.8983ZM243.662 101.322H242.984V102H243.662V101.322ZM286.209 101.322V102H286.491L286.69 101.8L286.209 101.322ZM293.3 94.1831L293.781 94.6608L293.781 94.6608L293.3 94.1831ZM301.967 85.4576L302.448 85.9354L302.645 85.7371V85.4576H301.967ZM301.967 37.8644H302.645V37.5757L302.437 37.3756L301.967 37.8644ZM293.3 29.5356L292.806 30.0002L292.818 30.0126L292.83 30.0244L293.3 29.5356ZM286.209 22L286.702 21.5354L286.502 21.322H286.209V22ZM243.662 22V21.322H242.984V22H243.662ZM243.662 28.1017V28.7797H244.34V28.1017H243.662ZM207.529 28.1017L207.162 28.672L207.33 28.7797H207.529V28.1017ZM199.593 23L199.96 22.4297L199.792 22.322H199.593V23ZM131.796 23V22.322H131.609L131.448 22.4186L131.796 23ZM123.294 28.1017V28.7797H123.481L123.642 28.6831L123.294 28.1017ZM82.3051 28.1017H81.6271V28.7797H82.3051V28.1017ZM82.3051 22H82.9831V21.322H82.3051V22ZM39.7581 22V21.322H39.4652L39.2644 21.5354L39.7581 22ZM24.4698 38.3532L33.1367 30.0244L32.1972 29.0468L23.5302 37.3756L24.4698 38.3532ZM24.678 85.4576V37.8644H23.322V85.4576H24.678ZM33.148 93.7053L24.481 84.9798L23.519 85.9354L32.186 94.6608L33.148 93.7053ZM40.2391 100.844L33.148 93.7053L32.186 94.6608L39.2771 101.8L40.2391 100.844ZM82.3051 100.644H39.7581V102H82.3051V100.644ZM81.6271 95.8983V101.322H82.9831V95.8983H81.6271ZM121.627 95.2203H82.3051V96.5763H121.627V95.2203ZM132.145 101.419L121.976 95.317L121.278 96.4797L131.448 102.581L132.145 101.419ZM199.593 101.322H131.797V102.678H199.593V101.322ZM208.718 95.328L199.227 101.43L199.96 102.57L209.451 96.4686L208.718 95.328ZM243.662 95.2203H209.085V96.5763H243.662V95.2203ZM244.34 101.322V95.8983H242.984V101.322H244.34ZM286.209 100.644H243.662V102H286.209V100.644ZM292.819 93.7053L285.728 100.844L286.69 101.8L293.781 94.6608L292.819 93.7053ZM301.486 84.9798L292.819 93.7053L293.781 94.6608L302.448 85.9354L301.486 84.9798ZM301.289 37.8644V85.4576H302.645V37.8644H301.289ZM292.83 30.0244L301.497 38.3532L302.437 37.3756L293.77 29.0468L292.83 30.0244ZM285.715 22.4646L292.806 30.0002L293.794 29.071L286.702 21.5354L285.715 22.4646ZM243.662 22.678H286.209V21.322H243.662V22.678ZM244.34 28.1017V22H242.984V28.1017H244.34ZM207.529 28.7797H243.662V27.4237H207.529V28.7797ZM207.896 27.5314L199.96 22.4297L199.226 23.5703L207.162 28.672L207.896 27.5314ZM199.593 22.322H131.796V23.678H199.593V22.322ZM131.448 22.4186L122.945 27.5203L123.642 28.6831L132.145 23.5813L131.448 22.4186ZM82.3051 28.7797H123.294V27.4237H82.3051V28.7797ZM81.6271 22V28.1017H82.9831V22H81.6271ZM39.7581 22.678H82.3051V21.322H39.7581V22.678ZM33.1607 30.0002L40.2519 22.4646L39.2644 21.5354L32.1732 29.071L33.1607 30.0002Z" fill="white" fill-opacity="0.3" mask="url(#path-2-inside-1_29_2)"/>
</g>
<g filter="url(#filter2_i_29_2)">
<path d="M39.3697 38.6373L43.7629 34H284.495L289.132 38.6373L294.258 43.7627V79.8305L289.132 85.2L284.495 89.5932H43.7629L39.3697 85.2L34.0002 79.8305V43.7627L39.3697 38.6373Z" fill="white" fill-opacity="0.01"/>
</g>
<path d="M40.0719 39.3729L40.0903 39.3553L40.1079 39.3367L44.2003 35.0169H284.074L288.413 39.3564L293.241 44.184V79.4231L288.414 84.4794L284.09 88.5763H44.1841L40.0888 84.4809L35.0171 79.4093V44.1979L40.0719 39.3729Z" stroke="url(#paint2_linear_29_2)" stroke-opacity="0.7" stroke-width="2.0339"/>
<g filter="url(#filter3_i_29_2)">
<path d="M40.0075 39.3308L40.0199 39.3191L40.0316 39.3067L44.2242 34.8811H284.384L288.823 39.3198L293.75 44.2467V79.762L288.824 84.9226L284.395 89.1184H44.2135L40.0188 84.9237L34.8479 79.7528V44.2559L40.0075 39.3308Z" stroke="white" stroke-width="1.35593"/>
</g>
<g filter="url(#filter4_d_29_2)">
<rect x="42.3066" y="25.3899" width="37.2881" height="2.71186" rx="1.35593" fill="#E641FF"/>
</g>
<g filter="url(#filter5_d_29_2)">
<rect x="246.373" y="25.3899" width="37.2881" height="2.71186" rx="1.35593" fill="#52C5FF"/>
</g>
<g filter="url(#filter6_d_29_2)">
<rect x="299.254" y="43.0166" width="37.2881" height="2.71186" rx="1.35593" transform="rotate(90 299.254 43.0166)" fill="#52C5FF"/>
</g>
<g filter="url(#filter7_d_29_2)">
<rect x="30.1016" y="43.0166" width="37.2881" height="2.71186" rx="1.35593" transform="rotate(90 30.1016 43.0166)" fill="#E641FF"/>
</g>
<g filter="url(#filter8_d_29_2)">
<rect x="42.3066" y="95.8983" width="37.2881" height="2.71186" rx="1.35593" fill="#E641FF"/>
</g>
<g filter="url(#filter9_d_29_2)">
<rect x="246.373" y="95.8983" width="37.2881" height="2.71186" rx="1.35593" fill="#52C5FF"/>
</g>
<defs>
<filter id="filter0_f_29_2" x="0.271614" y="0.304817" width="328.054" height="123.39" filterUnits="userSpaceOnUse" color-interpolation-filters="sRGB">
<feFlood flood-opacity="0" result="BackgroundImageFix"/>
<feBlend mode="normal" in="SourceGraphic" in2="BackgroundImageFix" result="shape"/>
<feGaussianBlur stdDeviation="16.9492" result="effect1_foregroundBlur_29_2"/>
</filter>
<filter id="filter1_b_29_2" x="-3.11864" y="-5.11864" width="332.204" height="134.237" filterUnits="userSpaceOnUse" color-interpolation-filters="sRGB">
<feFlood flood-opacity="0" result="BackgroundImageFix"/>
<feGaussianBlur in="BackgroundImageFix" stdDeviation="13.5593"/>
<feComposite in2="SourceAlpha" operator="in" result="effect1_backgroundBlur_29_2"/>
<feBlend mode="normal" in="SourceGraphic" in2="effect1_backgroundBlur_29_2" result="shape"/>
</filter>
<filter id="filter2_i_29_2" x="34.0002" y="34" width="260.258" height="59.6611" filterUnits="userSpaceOnUse" color-interpolation-filters="sRGB">
<feFlood flood-opacity="0" result="BackgroundImageFix"/>
<feBlend mode="normal" in="SourceGraphic" in2="BackgroundImageFix" result="shape"/>
<feColorMatrix in="SourceAlpha" type="matrix" values="0 0 0 0 0 0 0 0 0 0 0 0 0 0 0 0 0 0 127 0" result="hardAlpha"/>
<feOffset dy="4.0678"/>
<feGaussianBlur stdDeviation="11.8644"/>
<feComposite in2="hardAlpha" operator="arithmetic" k2="-1" k3="1"/>
<feColorMatrix type="matrix" values="0 0 0 0 0 0 0 0 0 0.666667 0 0 0 0 1 0 0 0 0.4 0"/>
<feBlend mode="normal" in2="shape" result="effect1_innerShadow_29_2"/>
</filter>
<filter id="filter3_i_29_2" x="34.1699" y="34.2031" width="260.258" height="59.6611" filterUnits="userSpaceOnUse" color-interpolation-filters="sRGB">
<feFlood flood-opacity="0" result="BackgroundImageFix"/>
<feBlend mode="normal" in="SourceGraphic" in2="BackgroundImageFix" result="shape"/>
<feColorMatrix in="SourceAlpha" type="matrix" values="0 0 0 0 0 0 0 0 0 0 0 0 0 0 0 0 0 0 127 0" result="hardAlpha"/>
<feOffset dy="4.0678"/>
<feGaussianBlur stdDeviation="11.8644"/>
<feComposite in2="hardAlpha" operator="arithmetic" k2="-1" k3="1"/>
<feColorMatrix type="matrix" values="0 0 0 0 0 0 0 0 0 0.666667 0 0 0 0 1 0 0 0 0.4 0"/>
<feBlend mode="normal" in2="shape" result="effect1_innerShadow_29_2"/>
</filter>
<filter id="filter4_d_29_2" x="37.5609" y="20.6441" width="46.7797" height="12.2034" filterUnits="userSpaceOnUse" color-interpolation-filters="sRGB">
<feFlood flood-opacity="0" result="BackgroundImageFix"/>
<feColorMatrix in="SourceAlpha" type="matrix" values="0 0 0 0 0 0 0 0 0 0 0 0 0 0 0 0 0 0 127 0" result="hardAlpha"/>
<feOffset/>
<feGaussianBlur stdDeviation="2.37288"/>
<feComposite in2="hardAlpha" operator="out"/>
<feColorMatrix type="matrix" values="0 0 0 0 0.788497 0 0 0 0 0 0 0 0 0 0.909804 0 0 0 1 0"/>
<feBlend mode="normal" in2="BackgroundImageFix" result="effect1_dropShadow_29_2"/>
<feBlend mode="normal" in="SourceGraphic" in2="effect1_dropShadow_29_2" result="shape"/>
</filter>
<filter id="filter5_d_29_2" x="239.593" y="18.6102" width="50.8474" height="16.2712" filterUnits="userSpaceOnUse" color-interpolation-filters="sRGB">
<feFlood flood-opacity="0" result="BackgroundImageFix"/>
<feColorMatrix in="SourceAlpha" type="matrix" values="0 0 0 0 0 0 0 0 0 0 0 0 0 0 0 0 0 0 127 0" result="hardAlpha"/>
<feOffset/>
<feGaussianBlur stdDeviation="3.38983"/>
<feComposite in2="hardAlpha" operator="out"/>
<feColorMatrix type="matrix" values="0 0 0 0 0 0 0 0 0 0.666667 0 0 0 0 1 0 0 0 1 0"/>
<feBlend mode="normal" in2="BackgroundImageFix" result="effect1_dropShadow_29_2"/>
<feBlend mode="normal" in="SourceGraphic" in2="effect1_dropShadow_29_2" result="shape"/>
</filter>
<filter id="filter6_d_29_2" x="289.762" y="36.2369" width="16.2712" height="50.8474" filterUnits="userSpaceOnUse" color-interpolation-filters="sRGB">
<feFlood flood-opacity="0" result="BackgroundImageFix"/>
<feColorMatrix in="SourceAlpha" type="matrix" values="0 0 0 0 0 0 0 0 0 0 0 0 0 0 0 0 0 0 127 0" result="hardAlpha"/>
<feOffset/>
<feGaussianBlur stdDeviation="3.38983"/>
<feComposite in2="hardAlpha" operator="out"/>
<feColorMatrix type="matrix" values="0 0 0 0 0 0 0 0 0 0.666667 0 0 0 0 1 0 0 0 1 0"/>
<feBlend mode="normal" in2="BackgroundImageFix" result="effect1_dropShadow_29_2"/>
<feBlend mode="normal" in="SourceGraphic" in2="effect1_dropShadow_29_2" result="shape"/>
</filter>
<filter id="filter7_d_29_2" x="22.6439" y="38.2708" width="12.2034" height="46.7796" filterUnits="userSpaceOnUse" color-interpolation-filters="sRGB">
<feFlood flood-opacity="0" result="BackgroundImageFix"/>
<feColorMatrix in="SourceAlpha" type="matrix" values="0 0 0 0 0 0 0 0 0 0 0 0 0 0 0 0 0 0 127 0" result="hardAlpha"/>
<feOffset/>
<feGaussianBlur stdDeviation="2.37288"/>
<feComposite in2="hardAlpha" operator="out"/>
<feColorMatrix type="matrix" values="0 0 0 0 0.788497 0 0 0 0 0 0 0 0 0 0.909804 0 0 0 1 0"/>
<feBlend mode="normal" in2="BackgroundImageFix" result="effect1_dropShadow_29_2"/>
<feBlend mode="normal" in="SourceGraphic" in2="effect1_dropShadow_29_2" result="shape"/>
</filter>
<filter id="filter8_d_29_2" x="37.5609" y="91.1526" width="46.7797" height="12.2034" filterUnits="userSpaceOnUse" color-interpolation-filters="sRGB">
<feFlood flood-opacity="0" result="BackgroundImageFix"/>
<feColorMatrix in="SourceAlpha" type="matrix" values="0 0 0 0 0 0 0 0 0 0 0 0 0 0 0 0 0 0 127 0" result="hardAlpha"/>
<feOffset/>
<feGaussianBlur stdDeviation="2.37288"/>
<feComposite in2="hardAlpha" operator="out"/>
<feColorMatrix type="matrix" values="0 0 0 0 0.788497 0 0 0 0 0 0 0 0 0 0.909804 0 0 0 1 0"/>
<feBlend mode="normal" in2="BackgroundImageFix" result="effect1_dropShadow_29_2"/>
<feBlend mode="normal" in="SourceGraphic" in2="effect1_dropShadow_29_2" result="shape"/>
</filter>
<filter id="filter9_d_29_2" x="239.593" y="89.1187" width="50.8474" height="16.2712" filterUnits="userSpaceOnUse" color-interpolation-filters="sRGB">
<feFlood flood-opacity="0" result="BackgroundImageFix"/>
<feColorMatrix in="SourceAlpha" type="matrix" values="0 0 0 0 0 0 0 0 0 0 0 0 0 0 0 0 0 0 127 0" result="hardAlpha"/>
<feOffset/>
<feGaussianBlur stdDeviation="3.38983"/>
<feComposite in2="hardAlpha" operator="out"/>
<feColorMatrix type="matrix" values="0 0 0 0 0 0 0 0 0 0.666667 0 0 0 0 1 0 0 0 1 0"/>
<feBlend mode="normal" in2="BackgroundImageFix" result="effect1_dropShadow_29_2"/>
<feBlend mode="normal" in="SourceGraphic" in2="effect1_dropShadow_29_2" result="shape"/>
</filter>
<linearGradient id="paint0_linear_29_2" x1="34.1699" y1="61.9997" x2="294.428" y2="61.9997" gradientUnits="userSpaceOnUse">
<stop stop-color="#C900E8"/>
<stop offset="1" stop-color="#00AAFF"/>
</linearGradient>
<linearGradient id="paint1_linear_29_2" x1="24" y1="62" x2="301.967" y2="62" gradientUnits="userSpaceOnUse">
<stop stop-color="#C900E8"/>
<stop offset="1" stop-color="#00AAFF"/>
</linearGradient>
<linearGradient id="paint2_linear_29_2" x1="34.0002" y1="61.7966" x2="294.258" y2="61.7966" gradientUnits="userSpaceOnUse">
<stop stop-color="#C900E8"/>
<stop offset="1" stop-color="#00AAFF"/>
</linearGradient>
</defs>
</svg>
