<svg width="95" height="16" viewBox="0 0 95 16" fill="none" xmlns="http://www.w3.org/2000/svg">
<path d="M34.072 14.0098H2.00455V14.8115H34.072V14.0098Z" fill="white"/>
<path d="M95.0003 13.9463H60.127V14.8762H95.0003V13.9463Z" fill="white"/>
<path d="M2.68453 7.54608L0.000488281 0.811523H1.22226L3.30063 6.28583L5.39784 0.811523H6.58112L3.8586 7.54608H2.68453Z" fill="white"/>
<path d="M7.97546 7.54608V0.811523H9.11065V7.54608H7.97546Z" fill="white"/>
<path d="M16.0852 7.54608L12.4964 2.71633V7.54608H11.3612V0.811523H12.4772L16.0852 5.6509V0.811523H17.2011V7.54608H16.0852Z" fill="white"/>
<path d="M21.9246 1.83127V7.54608H20.7894V1.83127H18.6629V0.811523H24.0607V1.83127H21.9246Z" fill="white"/>
<path d="M25.8014 6.02609L25.1573 7.54608H23.974L26.9466 0.811523H28.1107L31.0548 7.54608H29.8427L29.1986 6.02609H25.8014ZM27.495 2.02367L26.2251 5.01596H28.7648L27.495 2.02367Z" fill="white"/>
<path d="M37.8567 4.23629V6.71871C37.1736 7.2382 36.1631 7.59415 35.2396 7.59415C33.2482 7.59415 31.6993 6.10301 31.6993 4.17856C31.6993 2.25452 33.2674 0.782227 35.3069 0.782227C36.2689 0.782227 37.2313 1.1478 37.8951 1.72501L37.2506 2.56197C36.7311 2.08096 36.0096 1.79235 35.3069 1.79235C33.9312 1.79235 32.8537 2.84096 32.8537 4.17817C32.8537 5.525 33.9408 6.57401 35.3169 6.57401C35.8172 6.57401 36.3848 6.40084 36.8658 6.11223V4.23589H37.8567V4.23629Z" fill="white"/>
<path d="M41.078 1.83127V3.64989H44.3686V4.66964H41.078V6.52634H44.8688V7.54608H39.9429V0.811523H44.7534V1.83127H41.078Z" fill="white"/>
<path d="M55.768 7.54608L55.7584 2.5143L53.6323 6.84381H52.8912L50.7647 2.5143V7.54608H49.6969V0.811523H51.0437L53.2664 5.28533L55.4794 0.811523H56.8166V7.54608H55.768Z" fill="white"/>
<path d="M59.0767 7.54608V0.811523H60.2119V7.54608H59.0767Z" fill="white"/>
<path d="M67.1868 7.54608L63.5981 2.71633V7.54608H62.4629V0.811523H63.5789L67.1868 5.6509V0.811523H68.3028V7.54608H67.1868Z" fill="white"/>
<path d="M70.5634 7.54608V0.811523H71.6985V7.54608H70.5634Z" fill="white"/>
<path d="M80.0203 7.54608L80.0107 2.5143L77.8846 6.84381H77.1434L75.017 2.5143V7.54608H73.9491V0.811523H75.296L77.5186 5.28533L79.7317 0.811523H81.0689V7.54608H80.0203Z" fill="white"/>
<path d="M84.2812 6.02609L83.637 7.54608H82.4538L85.4264 0.811523H86.5905L89.5346 7.54608H88.3225L87.6783 6.02609H84.2812ZM85.9748 2.02367L84.7049 5.01596H87.2446L85.9748 2.02367Z" fill="white"/>
<path d="M94.9608 6.51672V7.54608H90.9103V0.811523H92.0455V6.51672H94.9608Z" fill="white"/>
<path d="M38.5993 13.3701C39.2724 13.3701 39.7598 13.8415 39.7598 14.4921C39.7598 15.1394 39.2692 15.6136 38.5897 15.6136H37.6794V13.3701H38.5993ZM38.0578 15.2741H38.6094C39.0451 15.2741 39.3786 14.9502 39.3786 14.4953C39.3786 14.0367 39.0359 13.71 38.5933 13.71H38.0578V15.2741Z" fill="white"/>
<path d="M42.1465 13.7106V14.3163H43.2424V14.6562H42.1465V15.2747H43.4092V15.6146H41.7682V13.3711H43.3707V13.711H42.1465V13.7106Z" fill="white"/>
<path d="M46.9976 13.5854L46.8405 13.9185C46.5972 13.771 46.3534 13.71 46.1835 13.71C45.9622 13.71 45.8179 13.7934 45.8179 13.9441C45.8179 14.4344 47.0293 14.1714 47.0265 14.9791C47.0265 15.3795 46.6737 15.6265 46.1807 15.6265C45.828 15.6265 45.4944 15.4826 45.2639 15.2709L45.4271 14.9442C45.658 15.1555 45.9466 15.2709 46.1871 15.2709C46.4497 15.2709 46.6068 15.1715 46.6068 14.9983C46.6068 14.4981 45.3954 14.7771 45.3954 13.9794C45.3954 13.5946 45.7253 13.3545 46.2124 13.3545C46.5042 13.3549 46.7896 13.4479 46.9976 13.5854Z" fill="white"/>
<path d="M49.0729 15.6146V13.3711H49.4509V15.6146H49.0729Z" fill="white"/>
<path d="M53.5103 14.5117V15.3387C53.283 15.5118 52.9463 15.6305 52.6385 15.6305C51.9755 15.6305 51.4592 15.1339 51.4592 14.4929C51.4592 13.852 51.9819 13.3613 52.6613 13.3613C52.9816 13.3613 53.3023 13.4832 53.5232 13.6756L53.3087 13.9546C53.1351 13.7942 52.895 13.698 52.6613 13.698C52.2032 13.698 51.844 14.0476 51.844 14.4929C51.844 14.9414 52.206 15.291 52.6645 15.291C52.8313 15.291 53.0205 15.2333 53.1804 15.1371V14.5121L53.5103 14.5117Z" fill="white"/>
<path d="M57.2239 15.6146L56.0286 14.0056V15.6146H55.6506V13.3711H56.0225L57.2243 14.9833V13.3711H57.5963V15.6146H57.2239Z" fill="white"/>
</svg>
