<svg width="87" height="21" viewBox="0 0 87 21" fill="none" xmlns="http://www.w3.org/2000/svg">
<path d="M6.06118 11.6853H6.00525H4.49549V13.8886H2.50473V6.05957H6.00556C8.0746 6.05957 9.26028 7.0439 9.26028 8.78856C9.26028 9.98543 8.75724 10.8464 7.84001 11.305L9.48401 13.8886H7.2248L6.06118 11.6853ZM6.00525 10.1194C6.86624 10.1194 7.3699 9.68342 7.3699 8.85568C7.3699 8.03943 6.86655 7.62556 6.00525 7.62556H4.49549V10.1194H6.00525Z" fill="white"/>
<path d="M28.7192 20.0228V18.7188H28.9392V20.0228H28.7192Z" fill="white"/>
<path d="M31.1289 20.0228L30.4341 19.0872V20.0228H30.2141V18.7188H30.4301L31.1289 19.6559V18.7188H31.3448V20.0228H31.1289Z" fill="white"/>
<path d="M33.0997 18.9161V20.0231H32.8797V18.9161H32.468V18.7188H33.5133V18.9161H33.0997Z" fill="white"/>
<path d="M34.8541 18.9167V19.2691H35.4914V19.4667H34.8541V19.8262H35.588V20.0238H34.6341V18.7197H35.5657V18.917L34.8541 18.9167Z" fill="white"/>
<path d="M37.3778 19.6286C37.3592 19.6304 37.3387 19.6304 37.3185 19.6304H37.0093V20.0238H36.7893V18.7197H37.3185C37.6519 18.7197 37.8439 18.8819 37.8439 19.165C37.8439 19.3738 37.7466 19.5211 37.5736 19.5879L37.8659 20.0238H37.6161L37.3778 19.6286ZM37.3182 19.4328C37.5195 19.4328 37.6351 19.3474 37.6351 19.1703C37.6351 18.9988 37.5195 18.9164 37.3182 18.9164H37.009V19.4325H37.3182V19.4328Z" fill="white"/>
<path d="M39.0691 20.0228V18.7188H39.2891V20.0228H39.0691Z" fill="white"/>
<path d="M41.8382 19.3707C41.8382 19.7432 41.5362 20.0322 41.1469 20.0322C40.7576 20.0322 40.4556 19.7432 40.4556 19.3707C40.4556 18.9963 40.7576 18.7129 41.1469 18.7129C41.5365 18.7126 41.8382 18.9978 41.8382 19.3707ZM40.6796 19.3707C40.6796 19.6295 40.8937 19.8346 41.1491 19.8346C41.4045 19.8346 41.613 19.6295 41.613 19.3707C41.613 19.1115 41.4042 18.9105 41.1491 18.9105C40.8918 18.9102 40.6796 19.1112 40.6796 19.3707Z" fill="white"/>
<path d="M43.5949 19.6286C43.5763 19.6304 43.5558 19.6304 43.5356 19.6304H43.2264V20.0238H43.0064V18.7197H43.5356C43.869 18.7197 44.061 18.8819 44.061 19.165C44.061 19.3738 43.9637 19.5211 43.7907 19.5879L44.0834 20.0238H43.8335L43.5949 19.6286ZM43.5353 19.4328C43.7363 19.4328 43.8522 19.3474 43.8522 19.1703C43.8522 18.9988 43.7366 18.9164 43.5353 18.9164H43.2261V19.4325H43.5353V19.4328Z" fill="white"/>
<path d="M47.2342 18.7188C47.6257 18.7188 47.9088 18.9925 47.9088 19.3709C47.9088 19.7472 47.6239 20.0231 47.229 20.0231H46.6998V18.7191L47.2342 18.7188ZM46.9195 19.8252H47.2398C47.4931 19.8252 47.6866 19.6369 47.6866 19.3725C47.6866 19.1062 47.4872 18.9157 47.2302 18.9157H46.9192L46.9195 19.8252Z" fill="white"/>
<path d="M49.2967 18.9167V19.2691H49.9339V19.4667H49.2967V19.8262H50.0306V20.0238H49.0767V18.7197H50.0082V18.917L49.2967 18.9167Z" fill="white"/>
<path d="M52.1164 18.8432L52.0251 19.0371C51.8834 18.9514 51.7417 18.9156 51.6432 18.9156C51.5146 18.9156 51.4307 18.9641 51.4307 19.052C51.4307 19.3369 52.1351 19.1844 52.1332 19.6535C52.1332 19.8866 51.9285 20.0301 51.6414 20.0301C51.4363 20.0301 51.2427 19.9459 51.1085 19.8232L51.2036 19.6334C51.3378 19.7564 51.5056 19.8232 51.6451 19.8232C51.7979 19.8232 51.8893 19.7657 51.8893 19.6647C51.8893 19.3739 51.1846 19.5361 51.1846 19.0722C51.1846 18.8485 51.3766 18.709 51.6597 18.709C51.8296 18.7093 51.9956 18.7631 52.1164 18.8432Z" fill="white"/>
<path d="M53.3231 20.0228V18.7188H53.5431V20.0228H53.3231Z" fill="white"/>
<path d="M55.9029 19.3819V19.8625C55.7706 19.9629 55.5748 20.0322 55.3962 20.0322C55.0103 20.0322 54.7104 19.7432 54.7104 19.3707C54.7104 18.9981 55.014 18.7129 55.4092 18.7129C55.5956 18.7129 55.7818 18.7837 55.9101 18.8956L55.7855 19.0575C55.6848 18.9643 55.5453 18.9086 55.4092 18.9086C55.1426 18.9086 54.9341 19.1115 54.9341 19.3707C54.9341 19.6314 55.1448 19.8346 55.4111 19.8346C55.508 19.8346 55.6177 19.801 55.7109 19.7451V19.3819H55.9029Z" fill="white"/>
<path d="M58.0619 20.0228L57.3672 19.0872V20.0228H57.1472V18.7188H57.3631L58.0619 19.6559V18.7188H58.2779V20.0228H58.0619Z" fill="white"/>
<path d="M87 19.2607H62.1429V19.8822H87V19.2607Z" fill="white"/>
<path d="M24.8571 19.2607H0V19.8822H24.8571V19.2607Z" fill="white"/>
<path d="M12.5939 7.62556V9.18006H16.3296V10.7461H12.5939V12.3229H16.8553V13.8886H10.6031V6.05957H16.7323V7.62556H12.5939Z" fill="white"/>
<path d="M21.7662 7.65926V13.8891H19.7755V7.65926H17.438V6.04883H24.1261V7.65926H21.7662Z" fill="white"/>
<path d="M28.5333 11.6853H28.4774H26.9676V13.8886H24.9769V6.05957H28.4777C30.5468 6.05957 31.7324 7.0439 31.7324 8.78856C31.7324 9.98543 31.2294 10.8464 30.3122 11.305L31.9562 13.8886H29.697L28.5333 11.6853ZM28.4774 10.1194C29.3384 10.1194 29.8421 9.68342 29.8421 8.85568C29.8421 8.03943 29.3387 7.62556 28.4774 7.62556H26.9676V10.1194H28.4774Z" fill="white"/>
<path d="M41.0274 9.9625C41.0274 12.2444 39.2156 13.9779 36.7883 13.9779C34.3728 13.9779 32.561 12.2556 32.561 9.9625C32.561 7.68092 34.3728 5.99219 36.7883 5.99219C39.2156 5.99219 41.0274 7.69242 41.0274 9.9625ZM34.5965 9.97367C34.5965 11.2936 35.6141 12.3112 36.811 12.3112C38.019 12.3112 38.9807 11.2936 38.9807 9.97367C38.9807 8.65407 38.0187 7.65854 36.811 7.65854C35.6032 7.65854 34.5965 8.65407 34.5965 9.97367Z" fill="white"/>
<path d="M45.4465 6.05957C47.9071 6.05957 49.6073 7.64763 49.6073 9.97426C49.6073 12.2894 47.8847 13.8889 45.3682 13.8889H42.0799V6.05987L45.4465 6.05957ZM44.0707 12.3006H45.491C46.7102 12.3006 47.5827 11.3613 47.5827 9.98545C47.5827 8.59873 46.6658 7.64794 45.4015 7.64794H44.0707V12.3006Z" fill="white"/>
<path d="M52.6501 7.62556V9.18006H56.3858V10.7461H52.6501V12.3229H56.9116V13.8886H50.6594V6.05957H56.7885V7.62556H52.6501Z" fill="white"/>
<path d="M64.2941 6.84221L63.5446 8.39673C62.7169 7.91574 61.6766 7.58015 61.0393 7.58015C60.5251 7.58015 60.1783 7.77031 60.1783 8.15062C60.1783 9.5041 64.3164 8.73228 64.3164 11.562C64.3164 13.128 62.9297 13.9554 61.1851 13.9554C59.8763 13.9554 58.5344 13.4632 57.6059 12.7029L58.3774 11.1705C59.1828 11.8752 60.3906 12.3447 61.2068 12.3447C61.8332 12.3447 62.2247 12.1098 62.2247 11.6626C62.2247 10.2756 58.0866 11.1034 58.0866 8.32961C58.0866 6.88665 59.3279 5.96973 61.2068 5.96973C62.3366 5.96973 63.4887 6.31648 64.2941 6.84221Z" fill="white"/>
<path d="M65.4017 13.8886V6.05957H67.3925V13.8886H65.4017Z" fill="white"/>
<path d="M75.8819 9.90688V12.9603C75.0433 13.5528 73.7234 13.9779 72.6272 13.9779C70.2449 13.9779 68.4443 12.2556 68.4443 9.97367C68.4443 7.70328 70.2893 5.99219 72.7611 5.99219C73.9244 5.99219 75.1545 6.43962 75.9599 7.15551L74.8413 8.50866C74.2708 7.98293 73.4767 7.65854 72.7499 7.65854C71.4639 7.65854 70.4795 8.66525 70.4795 9.97367C70.4795 11.3045 71.475 12.3112 72.7723 12.3112C73.1749 12.3112 73.6895 12.1658 74.1593 11.9309V9.90625H75.8819V9.90688Z" fill="white"/>
<path d="M82.7387 13.8886L79.1376 9.06821V13.8886H77.2695V6.05957H79.0254L82.6381 10.8915V6.05957H84.4946V13.8886H82.7387Z" fill="white"/>
<path d="M40.3256 1.37927V0.270624H40.0705V0.0751953H40.5456V1.37927H40.3256Z" fill="white"/>
<path d="M41.8155 1.28902L41.901 1.1234C41.9811 1.1756 42.0911 1.20544 42.1899 1.20544C42.4431 1.20544 42.5606 1.01559 42.5531 0.73408C42.4842 0.855258 42.3614 0.918642 42.1977 0.918642C41.9367 0.918642 41.7782 0.756768 41.7782 0.503225C41.7782 0.233214 41.9591 0.0654297 42.2365 0.0654297C42.5662 0.0654297 42.7678 0.300324 42.7678 0.700835C42.7678 1.11626 42.5497 1.38845 42.2048 1.38845C42.0762 1.38783 41.9218 1.34868 41.8155 1.28902ZM42.518 0.497005C42.5199 0.383594 42.436 0.254961 42.2477 0.254961C42.0892 0.254961 41.983 0.346316 41.983 0.50478C41.983 0.653612 42.0802 0.744965 42.2384 0.744965C42.4155 0.744965 42.5199 0.631544 42.518 0.497005Z" fill="white"/>
<path d="M44.7995 0.402562C44.7995 0.529333 44.7272 0.628136 44.6057 0.68189C44.7641 0.73409 44.8648 0.855273 44.8648 1.01343C44.8648 1.24646 44.6709 1.38815 44.3617 1.38815C44.0544 1.38815 43.8606 1.24646 43.8606 1.01747C43.8606 0.857138 43.9631 0.73409 44.1287 0.68189C44.0022 0.624097 43.9258 0.521569 43.9258 0.395108C43.9258 0.190037 44.0955 0.0654297 44.3617 0.0654297C44.6299 0.0654297 44.7995 0.194072 44.7995 0.402562ZM44.069 0.99323C44.069 1.13492 44.1753 1.21508 44.3614 1.21508C44.5476 1.21508 44.6557 1.13492 44.6557 0.99323C44.6557 0.857137 44.5476 0.777281 44.3614 0.777281C44.1772 0.777281 44.069 0.857137 44.069 0.99323ZM44.1119 0.415609C44.1119 0.536788 44.2051 0.605766 44.3617 0.605766C44.5202 0.605766 44.6116 0.536477 44.6116 0.415609C44.6116 0.294431 44.5202 0.223897 44.3617 0.223897C44.2048 0.223586 44.1119 0.294431 44.1119 0.415609Z" fill="white"/>
<path d="M46.2276 0.271829V0.553338L46.4066 0.55146C46.6897 0.55146 46.8724 0.718947 46.8724 0.948254C46.8724 1.21267 46.6825 1.38605 46.3898 1.38605C46.2351 1.38605 46.0543 1.32639 45.9259 1.23659L46.0132 1.05793C46.1176 1.14524 46.2481 1.19557 46.3656 1.19557C46.5352 1.19557 46.6375 1.10826 46.6375 0.96098C46.6375 0.828615 46.5352 0.746605 46.3675 0.746605C46.2892 0.746605 46.1124 0.75437 46.0244 0.763692V0.0742188H46.8183L46.8202 0.271506H46.2276V0.271829Z" fill="white"/>
<path d="M87 0.618164H51.2679V1.23959H87V0.618164Z" fill="white"/>
<path d="M35.7321 0.618164H0V1.23959H35.7321V0.618164Z" fill="white"/>
</svg>
