<svg width="85" height="31" viewBox="0 0 85 31" fill="none" xmlns="http://www.w3.org/2000/svg">
<path d="M5.47378 21.2379C5.44302 21.4683 5.37037 21.6568 5.25516 21.8022C5.13995 21.9481 5.00247 22.0627 4.84143 22.1471C4.6804 22.2316 4.50826 22.2911 4.32431 22.3258C4.14037 22.3605 3.96429 22.3776 3.79541 22.3776C3.59641 22.3776 3.40263 22.3566 3.21476 22.3141C3.02754 22.2722 2.86063 22.2067 2.71466 22.1183C2.56934 22.03 2.45478 21.9226 2.37034 21.7963C2.28589 21.6699 2.244 21.5259 2.244 21.3649C2.244 21.0507 2.25902 20.7607 2.28979 20.4962C2.32056 20.2318 2.36638 19.9647 2.42791 19.6963C2.62429 18.7982 2.80628 17.9636 2.97452 17.1925C3.14275 16.4213 3.33784 15.698 3.55844 15.0224C3.77904 14.3469 3.92697 13.6831 4.00225 13.0311C4.07622 12.3792 4.15214 11.7272 4.22611 11.0752C4.30139 10.4232 4.33218 9.74439 4.3204 9.03807C4.30796 8.33176 4.29553 7.57503 4.28112 6.76791C4.28112 6.69852 4.28112 6.60884 4.28112 6.50018C4.28112 6.39152 4.26996 6.28939 4.24836 6.19316C4.22611 6.09759 4.18816 6.01512 4.13317 5.94573C4.07884 5.877 3.99702 5.8423 3.8877 5.8423C3.71292 5.8423 3.50017 5.9058 3.2488 6.03214C2.99743 6.15848 2.73361 6.32933 2.45672 6.54404C2.17982 6.75875 1.90357 7.01012 1.62668 7.29749C1.34978 7.58486 1.09581 7.89382 0.862122 8.22374C0.818918 8.33895 0.749544 8.42144 0.655281 8.47119C0.560364 8.52094 0.454952 8.54581 0.339087 8.54581C0.30243 8.54581 0.264486 8.51308 0.223901 8.44827C0.18397 8.38281 0.147932 8.30426 0.114547 8.21262C0.0818173 8.12032 0.0549786 8.02278 0.0327221 7.91936C0.0111202 7.81593 0 7.72167 0 7.63722C0 7.5914 0.0150606 7.55277 0.0458269 7.52201C0.322069 6.61669 0.634303 5.85932 0.983861 5.24923C1.33276 4.63914 1.70134 4.15212 2.08886 3.78816C2.47639 3.42354 2.87111 3.16498 3.27369 3.01115C3.67627 2.85797 4.06181 2.78072 4.43035 2.78072C4.90625 2.78072 5.30099 2.87107 5.61586 3.05108C5.93007 3.2311 6.17943 3.48442 6.36403 3.81041C6.54798 4.1364 6.67631 4.52982 6.74963 4.99001C6.82229 5.45019 6.85894 5.96013 6.85894 6.52047C6.85894 6.94988 6.81703 7.45394 6.73324 8.03261C6.64946 8.61127 6.56044 9.22005 6.46879 9.86025C6.37584 10.5005 6.25865 11.1348 6.11464 11.7645C5.97063 12.3942 5.8312 12.982 5.697 13.528C5.9451 12.5075 6.23837 11.5275 6.57615 10.5882C6.91458 9.64816 7.2831 8.77034 7.68307 7.9534C8.08237 7.13645 8.50786 6.39609 8.95823 5.73233C9.4086 5.06856 9.87272 4.49906 10.3506 4.02382C10.8278 3.54792 11.3115 3.18003 11.8012 2.91884C12.2902 2.65831 12.7752 2.5274 13.2577 2.5274C13.6098 2.5274 13.9358 2.60398 14.235 2.75781C14.5342 2.91099 14.7914 3.14927 15.0061 3.47133C15.2208 3.7934 15.3878 4.1999 15.5069 4.69085C15.626 5.1818 15.6849 5.76505 15.6849 6.43995C15.6849 6.50148 15.679 6.59705 15.6679 6.72798C15.6561 6.85824 15.6411 7.00814 15.6221 7.17638C15.6031 7.34526 15.5802 7.52725 15.5534 7.72297C15.5265 7.9187 15.5016 8.11246 15.4787 8.30426C15.4172 8.76445 15.3524 9.26326 15.283 9.80003L15.5245 9.78824C15.823 8.65316 16.1909 7.63264 16.6276 6.72733C17.0642 5.82201 17.5538 5.05285 18.0971 4.41985C18.6411 3.78685 19.227 3.30179 19.8547 2.96401C20.4825 2.62624 21.1332 2.45801 21.8068 2.45801C22.2715 2.45801 22.6846 2.59613 23.0459 2.87237C23.4079 3.14861 23.7104 3.52239 23.9539 3.99436C24.1974 4.46633 24.3839 5.01816 24.5129 5.65116C24.6425 6.28416 24.7073 6.95317 24.7073 7.65883C24.7073 8.31867 24.6425 9.00926 24.5135 9.72998C24.3846 10.4514 24.2563 11.1681 24.1273 11.8817C23.9997 12.5945 23.8733 13.2963 23.7496 13.9856C23.6266 14.6749 23.5087 15.3288 23.3974 15.9467C23.2868 16.5647 23.186 17.1335 23.0944 17.6533C23.0034 18.173 22.9582 18.5665 22.9582 18.8329C22.9582 19.168 23.04 19.4109 23.2037 19.5608C23.368 19.7114 23.6056 19.7866 23.9185 19.7866C24.0953 19.7866 24.2812 19.7389 24.4769 19.6426C24.6726 19.5471 24.8684 19.4201 25.0634 19.263C25.2591 19.1059 25.4529 18.9252 25.6447 18.7223C25.8365 18.5187 26.0204 18.3099 26.1972 18.0951C26.6037 17.6042 27.0063 17.0406 27.4056 16.4037C27.4056 16.4115 27.4403 16.492 27.509 16.6452C27.5627 16.7755 27.6511 16.998 27.7735 17.3129C27.8966 17.6271 28.0687 18.0801 28.2912 18.6705C27.9076 19.3454 27.5129 19.9169 27.1058 20.3849C26.6986 20.853 26.2849 21.2346 25.8633 21.5298C25.4418 21.8251 25.0137 22.0378 24.5803 22.1687C24.147 22.299 23.7169 22.3645 23.2901 22.3645C22.8758 22.3645 22.4712 22.2918 22.0765 22.1458C21.6811 21.9999 21.3309 21.7832 21.0245 21.4958C20.7175 21.2084 20.472 20.8517 20.2888 20.4255C20.1048 20 20.0125 19.5111 20.0125 18.9586C20.0125 18.897 20.0145 18.8322 20.0184 18.7628C20.0223 18.6941 20.0282 18.6247 20.0354 18.556C20.0662 18.0421 20.1336 17.4909 20.239 16.9044C20.3444 16.3172 20.4531 15.7091 20.5663 15.0794C20.6789 14.4497 20.7934 13.8108 20.9093 13.1621C21.0258 12.514 21.141 11.8666 21.2562 11.2225C21.3721 10.5777 21.4853 9.94403 21.5953 9.32216C21.7059 8.70029 21.7609 8.15763 21.7609 7.69417C21.7609 7.34919 21.7492 7.03629 21.7256 6.75612C21.7027 6.47595 21.6562 6.23833 21.5868 6.04261C21.5168 5.84688 21.4173 5.69567 21.2857 5.58831C21.1548 5.48096 20.9807 5.42728 20.7646 5.42728C20.33 5.42728 19.9202 5.56868 19.5347 5.85147C19.1491 6.13426 18.7838 6.52374 18.4401 7.02124C18.0958 7.51808 17.7738 8.10657 17.474 8.7867C17.1748 9.46683 16.892 10.2026 16.6256 10.994C16.3592 11.7848 16.1327 12.6135 15.9468 13.4796C15.7615 14.3456 15.5566 15.2424 15.3347 16.1693C15.1115 17.0969 14.9406 17.974 14.8222 18.8021C14.703 19.6295 14.5695 20.4255 14.4215 21.1895C14.3679 21.4048 14.2861 21.5868 14.1754 21.7367C14.0648 21.8866 13.9384 22.0077 13.7944 22.0994C13.6504 22.1917 13.4979 22.2591 13.3375 22.301C13.1771 22.3429 13.0168 22.3645 12.8564 22.3645C12.6954 22.3645 12.5363 22.3337 12.3792 22.2722C12.2221 22.2106 12.0846 22.1131 11.9655 21.9789C11.8463 21.8447 11.7508 21.6739 11.6788 21.467C11.6061 21.2602 11.5694 21.0068 11.5694 20.7077C11.4215 20.508 11.3933 20.1643 11.4863 19.6754C11.5786 19.1864 11.6912 18.6057 11.8228 17.9321C11.9544 17.2592 12.1075 16.5084 12.2823 15.6797C12.4577 14.8503 12.6175 14.0242 12.7608 13.2C12.9048 12.3759 13.058 11.5531 13.221 10.7322C13.384 9.91131 13.4652 9.15524 13.4652 8.46463C13.4652 7.98874 13.4527 7.56325 13.4292 7.18751C13.4056 6.81177 13.35 6.49298 13.2622 6.23245C13.1745 5.97192 13.0502 5.77226 12.8872 5.63414C12.7242 5.49602 12.5075 5.42728 12.2378 5.42728C12.0146 5.42728 11.7606 5.57326 11.4745 5.86455C11.1885 6.15585 10.8808 6.55909 10.5515 7.0723C10.2216 7.58616 9.8819 8.19036 9.53168 8.88489C9.18213 9.57942 8.83452 10.3283 8.48889 11.1341C8.14326 11.9393 7.80942 12.7817 7.48801 13.6596C7.16595 14.538 6.89625 15.4231 6.67827 16.3153C6.46029 17.2075 6.24883 18.0735 6.04328 18.9134C5.83577 19.7539 5.6466 20.529 5.47378 21.2379Z" fill="white"/>
<path d="M33.6802 19.9151C33.404 20.1684 33.0609 20.4388 32.6505 20.7262C32.2401 21.0135 31.7969 21.2786 31.3217 21.5202C30.8458 21.7617 30.3607 21.9634 29.8658 22.1244C29.371 22.2854 28.901 22.3659 28.4565 22.3659C28.0578 22.3659 27.722 22.3103 27.4497 22.199C27.1774 22.0877 26.9568 21.9326 26.7879 21.7329C26.619 21.5333 26.4985 21.2898 26.4252 21.0024C26.3526 20.715 26.3159 20.3982 26.3159 20.0532C26.3159 19.5701 26.3696 19.0059 26.477 18.3617C26.6982 17.029 26.8403 16.2801 26.9031 16.1158C27.0079 15.7885 27.2167 15.0625 27.5302 13.9379C27.8215 13.0221 28.0015 12.4251 28.0696 12.1489C28.1076 11.9551 28.213 11.7804 28.3858 11.6252C28.5442 11.4858 28.7235 11.3712 28.9225 11.2822C29.1228 11.1932 29.3297 11.1271 29.5444 11.0845C29.7591 11.042 29.9536 11.0204 30.127 11.0204C30.4432 11.0204 30.6586 11.0799 30.7712 11.1984C30.8838 11.3176 30.9407 11.4766 30.9407 11.6763C30.9407 11.8452 30.9008 12.0834 30.8222 12.3918C30.7437 12.7001 30.6533 13.0509 30.5532 13.445C30.4524 13.8391 30.3031 14.3457 30.1054 14.9657C29.9071 15.5849 29.7722 16.1132 29.7002 16.5505C29.6276 16.9877 29.5359 17.4217 29.426 17.8531C29.3153 18.2845 29.2603 18.6766 29.2603 19.0294C29.2603 19.3744 29.2989 19.6487 29.3755 19.8516C29.4521 20.0545 29.6092 20.156 29.8475 20.156C30.1238 20.156 30.4308 20.0604 30.7679 19.8686C31.1057 19.6768 31.4467 19.4451 31.7917 19.1728C32.1367 18.9005 32.4744 18.6183 32.8044 18.327C33.1343 18.0357 33.4256 17.7863 33.6789 17.5788V19.9151H33.6802ZM28.537 7.83966C28.537 7.66161 28.5756 7.45999 28.6522 7.23546C28.7288 7.01093 28.8538 6.7995 29.026 6.60246C29.1988 6.40477 29.4286 6.2385 29.7166 6.103C30.004 5.9675 30.3627 5.89941 30.7921 5.89941C31.0605 5.89941 31.3138 5.93018 31.5515 5.99237C31.7891 6.05455 31.9966 6.14948 32.1727 6.27713C32.3487 6.40477 32.4888 6.57365 32.5929 6.78247C32.6964 6.99129 32.7481 7.23939 32.7481 7.52545C32.7481 7.7886 32.7061 8.04454 32.6217 8.29198C32.5373 8.53942 32.4031 8.76068 32.2191 8.95379C32.0352 9.14755 31.8028 9.30401 31.5233 9.42445C31.2431 9.5449 30.9079 9.60446 30.5165 9.60446C29.8416 9.60446 29.3428 9.44409 29.0207 9.12268C28.698 8.80193 28.537 8.37381 28.537 7.83966Z" fill="white"/>
<path d="M32.875 19.9609C32.875 19.4549 32.9058 18.8696 32.9673 18.2059C33.0288 17.5421 33.1054 16.8135 33.1977 16.0195C33.29 15.2255 33.3935 14.51 33.5087 13.8737C33.6239 13.2368 33.7352 12.6922 33.8425 12.2398C33.927 11.887 34.0899 11.5918 34.3315 11.3535C34.573 11.1159 34.901 10.9967 35.3154 10.9967C35.7297 10.9967 36.0171 11.1231 36.1781 11.3764C36.3392 11.6297 36.4197 11.9669 36.4197 12.3891C36.4197 12.5043 36.4079 12.6594 36.385 12.8552C36.3621 13.0509 36.3333 13.2656 36.2986 13.4993C36.2639 13.733 36.2279 13.9752 36.1892 14.2239C36.1506 14.4733 36.1146 14.7568 36.0799 15.0756C36.0452 15.3937 36.0164 15.632 35.9935 15.7891C35.9706 15.9462 35.9588 16.0516 35.9588 16.1053H36.1892C36.2351 16.0208 36.3084 15.8847 36.4079 15.6968C36.5074 15.5089 36.6226 15.2386 36.7529 14.8857C36.8831 14.5329 37.0232 14.22 37.1731 13.9477C37.3224 13.6754 37.4625 13.4148 37.5934 13.1654C37.7236 12.916 37.8428 12.6954 37.9501 12.5036C38.0575 12.3118 38.138 12.1698 38.1917 12.0782C38.4372 11.6638 38.7173 11.3803 39.0316 11.2265C39.3458 11.0733 39.6953 10.9961 40.0789 10.9961C40.4625 10.9961 40.7675 11.1571 40.9934 11.4792C41.2192 11.8012 41.3331 12.2464 41.3331 12.8139C41.3331 12.8984 41.3161 13.0404 41.2814 13.2394C41.2467 13.4384 41.2029 13.6767 41.1492 13.9529C41.0955 14.2292 41.0359 14.5859 40.9711 15.0232C40.9063 15.4605 40.8468 15.8519 40.7924 16.1969C40.7388 16.5419 40.6949 16.8836 40.6602 17.2207C40.6255 17.5585 40.6085 17.8688 40.6085 18.1529C40.6085 18.6288 40.668 19.0196 40.7865 19.3266C40.9057 19.6336 41.0916 19.7867 41.3449 19.7867C41.4372 19.7867 41.5675 19.7521 41.7363 19.6833C41.9897 19.591 42.1507 19.5105 42.2195 19.4418C42.5572 19.1812 42.7333 19.0542 42.749 19.0621C42.7719 19.07 43.0292 18.9161 43.5202 18.6019C44.1342 18.2105 44.8667 17.7313 45.7177 17.1638L45.7059 19.7416L45.1305 20.1789C45.0846 20.2175 44.724 20.4165 44.0491 20.7772C43.075 21.2989 42.4649 21.6131 42.2195 21.7204C41.6212 21.9888 41.2493 22.1427 41.1034 22.1806C40.7198 22.3037 40.3172 22.3646 39.895 22.3646C39.4734 22.3646 39.1186 22.0595 38.8306 21.4501C38.5432 20.84 38.3992 19.9484 38.3992 18.7747C38.3992 18.3145 38.43 17.8177 38.4915 17.2849C38.553 16.7514 38.6296 16.1786 38.7219 15.5646H38.538L35.5235 21.5483C35.3625 21.8703 35.1897 22.085 35.0057 22.1924C34.8139 22.3076 34.5914 22.3652 34.3387 22.3652C34.0238 22.3652 33.7711 22.2978 33.5793 22.1636C33.3875 22.0294 33.2403 21.8494 33.1362 21.6229C33.0321 21.3964 32.9634 21.1398 32.9293 20.8518C32.892 20.5651 32.875 20.2679 32.875 19.9609Z" fill="white"/>
<path d="M51.0322 19.9151C50.756 20.1684 50.413 20.4388 50.0026 20.7262C49.5921 21.0135 49.149 21.2786 48.6737 21.5202C48.1978 21.7617 47.7128 21.9634 47.2179 22.1244C46.723 22.2854 46.253 22.3659 45.8085 22.3659C45.4099 22.3659 45.0741 22.3103 44.8018 22.199C44.5295 22.0877 44.3088 21.9326 44.1399 21.7329C43.9711 21.5333 43.8506 21.2898 43.7773 21.0024C43.7047 20.715 43.668 20.3982 43.668 20.0532C43.668 19.5701 43.7217 19.0059 43.829 18.3617C44.0503 17.029 44.1923 16.2801 44.2552 16.1158C44.3599 15.7885 44.5694 15.0625 44.8823 13.9379C45.1736 13.0221 45.3536 12.4251 45.4217 12.1489C45.4596 11.9551 45.565 11.7804 45.7379 11.6252C45.8963 11.4858 46.0756 11.3712 46.2746 11.2822C46.4749 11.1932 46.6818 11.1271 46.8965 11.0845C47.1112 11.042 47.3056 11.0204 47.4791 11.0204C47.7952 11.0204 48.01 11.0799 48.1232 11.1984C48.2358 11.3176 48.2927 11.4766 48.2927 11.6763C48.2927 11.8452 48.2528 12.0834 48.1743 12.3918C48.0957 12.7001 48.0054 13.0509 47.9052 13.445C47.8044 13.8391 47.6552 14.3457 47.4575 14.9657C47.2591 15.5849 47.1243 16.1132 47.0523 16.5505C46.9796 16.9877 46.888 17.4217 46.778 17.8531C46.6674 18.2845 46.6124 18.6766 46.6124 19.0294C46.6124 19.3744 46.651 19.6487 46.7276 19.8516C46.8042 20.0545 46.9613 20.156 47.1996 20.156C47.4758 20.156 47.7828 20.0604 48.1199 19.8686C48.4577 19.6768 48.7988 19.4451 49.1437 19.1728C49.4887 18.9005 49.8265 18.6183 50.1564 18.327C50.4863 18.0357 50.7776 17.7863 51.031 17.5788V19.9151H51.0322ZM45.889 7.83966C45.889 7.66161 45.9277 7.45999 46.0043 7.23546C46.0809 7.01093 46.2059 6.7995 46.378 6.60246C46.5508 6.40477 46.7806 6.2385 47.0686 6.103C47.356 5.9675 47.7147 5.89941 48.1441 5.89941C48.4125 5.89941 48.6659 5.93018 48.9035 5.99237C49.1411 6.05455 49.3486 6.14948 49.5247 6.27713C49.7015 6.40477 49.8409 6.57365 49.945 6.78247C50.0484 6.99129 50.1001 7.23939 50.1001 7.52545C50.1001 7.7886 50.0582 8.04454 49.9738 8.29198C49.8893 8.53942 49.7551 8.76068 49.5712 8.95379C49.3872 9.14755 49.1549 9.30401 48.8753 9.42445C48.5952 9.5449 48.26 9.60446 47.8686 9.60446C47.1937 9.60446 46.6949 9.44409 46.3728 9.12268C46.0501 8.80193 45.889 8.37381 45.889 7.83966Z" fill="white"/>
<path d="M55.0134 20.2768C55.0134 20.1767 55.0213 20.034 55.0363 19.8494C55.0514 19.6648 55.075 19.452 55.1051 19.2138C55.1359 18.9748 55.1705 18.7228 55.2085 18.457C55.2471 18.1913 55.2851 17.9275 55.3237 17.6656C55.4082 17.049 55.5116 16.3865 55.6346 15.6776H55.4618C55.3695 15.7935 55.2641 15.9669 55.1456 16.1987C55.0265 16.4304 54.8596 16.7701 54.6449 17.2179C54.4302 17.6656 54.1559 18.2463 53.8221 18.9604C53.4882 19.6746 53.0568 20.5492 52.5272 21.5841C52.3741 21.8891 52.1954 22.096 51.9925 22.204C51.7895 22.312 51.565 22.3657 51.3195 22.3657C51.0053 22.3657 50.752 22.3002 50.5602 22.1706C50.3684 22.0403 50.2205 21.8649 50.117 21.6456C50.0136 21.4263 49.9442 21.1763 49.9101 20.8974C49.8755 20.6179 49.8584 20.3299 49.8584 20.0314C49.8584 19.7152 49.8774 19.3408 49.9161 18.9081C49.9547 18.476 50.0044 18.0204 50.066 17.5413C50.1275 17.0627 50.2172 16.5162 50.3363 15.9021C50.4554 15.2881 50.5589 14.7533 50.6473 14.2957C50.7356 13.8388 50.8253 13.4212 50.9176 13.0415C51.0099 12.6619 51.0943 12.3522 51.1709 12.1126C51.2475 11.8646 51.3202 11.6675 51.3896 11.5202C51.4583 11.3729 51.5375 11.259 51.6252 11.1779C51.7136 11.0967 51.819 11.0424 51.9414 11.0149C52.0645 10.988 52.2216 10.9743 52.4134 10.9743C52.7047 10.9743 52.9331 10.9841 53.0981 11.0031C53.263 11.0227 53.3861 11.0692 53.4666 11.1425C53.5471 11.2158 53.5949 11.3225 53.6106 11.462C53.6257 11.6014 53.6335 11.7912 53.6335 12.0308C53.6335 12.1624 53.6276 12.3136 53.6165 12.4838C53.6047 12.654 53.5877 12.836 53.5648 13.0297C53.5497 13.2229 53.5262 13.4205 53.4961 13.6215C53.4424 14.009 53.4116 14.21 53.4038 14.2257C53.2964 14.7527 53.1851 15.3411 53.0699 15.9912L53.1963 16.1306C53.2113 16.107 53.3134 15.9021 53.5013 15.5153C53.6892 15.1284 53.8928 14.7448 54.1114 14.3651C54.33 13.9861 54.5657 13.5888 54.819 13.1751C55.0724 12.7607 55.3139 12.3948 55.5437 12.0773C55.7662 11.7598 56.0019 11.4967 56.2513 11.2872C56.5007 11.0784 56.7979 10.9736 57.1429 10.9736C57.4649 10.9736 57.7412 11.0686 57.9716 11.2584C58.202 11.4482 58.3166 11.7173 58.3166 12.0655C58.3166 12.3673 58.2976 12.654 58.259 12.925C58.2131 13.2733 58.1667 13.5364 58.1208 13.7145C58.0672 13.9161 58.0056 14.1635 57.9369 14.4581C57.8832 14.714 57.787 15.0813 57.6495 15.5617C57.6266 15.639 57.6037 15.7509 57.5801 15.8982C57.5723 15.9447 57.5684 15.9761 57.5684 15.9912L57.6947 16.1306C57.7097 16.107 57.8178 15.9041 58.0168 15.5212C58.2164 15.1376 58.4331 14.7566 58.6668 14.3769C58.9005 13.9979 59.1499 13.5992 59.415 13.181C59.6801 12.7627 59.9269 12.3948 60.1573 12.0773C60.3798 11.7677 60.6024 11.5065 60.825 11.2937C61.0476 11.081 61.3199 10.9743 61.6419 10.9743C62.0026 10.9743 62.3077 11.0692 62.5564 11.259C62.8058 11.4489 62.9302 11.7179 62.9302 12.0662C62.9302 12.6003 62.9034 13.1076 62.8497 13.5875C62.796 14.0673 62.7155 14.5982 62.6081 15.1788C62.5008 15.7594 62.4202 16.2877 62.3666 16.7642C62.3129 17.2401 62.2861 17.7455 62.2861 18.2797C62.2861 18.6979 62.3398 19.0383 62.4471 19.3015C62.5545 19.5646 62.6847 19.6962 62.8385 19.6962C62.9996 19.6962 63.1685 19.6615 63.3446 19.5915C63.5213 19.5221 63.7013 19.4324 63.8852 19.3244C64.0692 19.2164 64.2499 19.0907 64.4259 18.9473C64.602 18.804 64.7709 18.6554 64.932 18.5002C65.3077 18.1435 65.6802 17.7416 66.0481 17.2925L66.2438 20.0202C65.906 20.2808 65.5708 20.5511 65.237 20.83C64.9032 21.1095 64.5503 21.3628 64.1785 21.59C63.8067 21.8171 63.3982 22.003 62.9531 22.1483C62.508 22.2937 62.0059 22.3663 61.4455 22.3663C61.1693 22.3663 60.9376 22.278 60.7497 22.1012C60.5618 21.9245 60.41 21.6783 60.2954 21.3628C60.1802 21.0473 60.0977 20.6755 60.048 20.2467C59.9982 19.8186 59.9733 19.3525 59.9733 18.8485C59.9733 18.3608 59.9904 17.8443 60.0251 17.2984C60.0598 16.7525 60.1075 16.2006 60.1691 15.6436H59.9963L57.6607 21.5546C57.461 21.8747 57.2384 22.0901 56.9929 22.2007C56.7475 22.3113 56.4634 22.3663 56.1413 22.3663C55.8959 22.3663 55.7001 22.3009 55.5548 22.1713C55.4088 22.041 55.2956 21.8734 55.215 21.6685C55.1345 21.4636 55.0809 21.2385 55.054 20.993C55.0272 20.7462 55.0134 20.5079 55.0134 20.2768Z" fill="white"/>
<path d="M77.1856 19.5146C77.0088 19.7627 76.7732 20.054 76.478 20.3872C76.1827 20.721 75.8509 21.0392 75.4823 21.3416C75.1138 21.644 74.7191 21.9006 74.2975 22.1095C73.8753 22.3189 73.4537 22.4237 73.0315 22.4237C72.5222 22.4237 72.0967 22.262 71.757 21.9399C71.4172 21.6172 71.1227 21.1479 70.8752 20.5332C70.69 20.7459 70.4615 20.9619 70.1912 21.1819C69.9202 21.4018 69.6243 21.6015 69.3042 21.7795C68.9834 21.9582 68.6483 22.1042 68.3007 22.2181C67.9524 22.332 67.6048 22.389 67.2566 22.389C66.8881 22.389 66.53 22.3137 66.1811 22.1625C65.8322 22.0119 65.5232 21.7946 65.2548 21.5125C64.9864 21.2303 64.7717 20.8854 64.6107 20.4795C64.4497 20.073 64.3691 19.6148 64.3691 19.1035C64.3691 18.5301 64.4503 17.9416 64.612 17.3381C64.7744 16.7345 65.0251 16.0806 65.3641 15.3775C65.7039 14.6738 66.0685 14.0664 66.458 13.5538C66.8481 13.0419 67.2743 12.5948 67.7371 12.2125C68.1999 11.8302 68.6882 11.5265 69.2014 11.3013C69.714 11.0755 70.237 10.9629 70.7692 10.9629C70.9472 10.9629 71.0854 10.9976 71.1862 11.0676C71.2863 11.1377 71.3694 11.2169 71.4356 11.3059C71.501 11.3949 71.5639 11.4826 71.6261 11.5677C71.6882 11.6528 71.7648 11.715 71.8578 11.7537C71.9507 11.7923 72.045 11.8178 72.1419 11.8289C72.2388 11.8407 72.337 11.8466 72.4371 11.8466C72.5222 11.8466 72.6086 11.8446 72.697 11.8407C72.786 11.8368 72.8724 11.8348 72.9575 11.8348C73.0734 11.8348 73.1814 11.8466 73.2815 11.8695C73.3817 11.8931 73.4701 11.9435 73.5473 12.0207C73.6239 12.0986 73.6835 12.2066 73.7254 12.3467C73.7679 12.4861 73.7889 12.676 73.7889 12.9169C73.7889 13.2835 73.7502 13.69 73.6736 14.1371C73.5971 14.5841 73.5094 15.0417 73.4105 15.5111C73.3117 15.9798 73.1984 16.5146 73.0714 17.1148C72.9451 17.7151 72.8816 18.2211 72.8816 18.6329C72.8816 18.9844 72.9143 19.2593 72.9791 19.457C73.0439 19.6547 73.1847 19.7542 73.3994 19.7542C73.5604 19.7542 73.7293 19.7143 73.9054 19.6344C74.0821 19.5546 74.2602 19.4505 74.4402 19.3209C74.6202 19.1919 74.8009 19.0453 74.9809 18.8816C75.1609 18.718 75.3318 18.5491 75.4928 18.3743C75.8685 17.9639 76.2482 17.4997 76.6318 16.9826L77.1856 19.5146ZM67.3142 18.6132C67.3142 18.8109 67.3273 19.0027 67.3541 19.1886C67.381 19.3745 67.4288 19.5408 67.4988 19.6868C67.5682 19.8334 67.6598 19.9519 67.775 20.0429C67.8902 20.1339 68.0362 20.1797 68.213 20.1797C68.4977 20.1797 68.755 20.056 68.9854 19.8092C69.2165 19.5618 69.4161 19.2646 69.585 18.9176C69.7539 18.57 69.8907 18.2106 69.9941 17.8401C70.0976 17.4696 70.1656 17.1607 70.1958 16.9132L71.0539 13.1728C70.7391 13.1728 70.4327 13.2507 70.1336 13.4065C69.8344 13.5623 69.5523 13.7738 69.2878 14.0395C69.0233 14.3059 68.7799 14.6103 68.5573 14.952C68.3347 15.2944 68.1161 15.716 67.9014 16.218C67.6867 16.7201 67.5348 17.1613 67.4471 17.541C67.3587 17.9213 67.3142 18.2787 67.3142 18.6132Z" fill="white"/>
<path d="M78.8215 22.3661C78.4084 22.3661 78.0241 22.1867 77.6693 21.828C77.3139 21.4693 77.0036 20.9881 76.7405 20.3839C76.4773 19.7797 76.2705 19.0793 76.1219 18.2827C75.972 17.486 75.898 16.6501 75.898 15.7736C75.898 15.0208 76.0086 14.016 76.2299 12.7591C76.4511 11.5023 76.5617 10.8739 76.5617 10.8739C76.5617 10.8739 76.7293 10.2468 77.0645 8.99123C77.4003 7.73571 77.7355 6.72893 78.0732 5.97024C78.4104 5.21221 78.7756 4.50328 79.1716 3.84475C79.567 3.18622 79.9808 2.61214 80.4148 2.1225C80.8488 1.63351 81.3017 1.2486 81.7744 0.968432C82.2476 0.688917 82.7275 0.548828 83.2158 0.548828C83.5706 0.548828 83.8639 0.61691 84.0956 0.752412C84.3267 0.887915 84.5086 1.06727 84.6409 1.28918C84.7724 1.51175 84.866 1.76377 84.9197 2.04525C84.9734 2.32672 85.0003 2.61345 85.0003 2.9054C85.0003 3.6307 84.9145 4.36909 84.743 5.12122C84.5708 5.87336 84.3404 6.62943 84.0484 7.38877C83.7578 8.14876 83.4207 8.91006 83.0377 9.67398C82.6548 10.4379 82.2561 11.1953 81.8411 11.9474C81.4261 12.6996 81.0091 13.4406 80.5908 14.1691C80.1719 14.8977 79.7863 15.6106 79.4315 16.3071C79.3929 16.3843 79.353 16.4851 79.3104 16.6088C79.2679 16.7326 79.2273 16.8661 79.1887 17.0095C79.15 17.1522 79.1121 17.3053 79.0735 17.4677C79.0342 17.63 79.0041 17.7884 78.9805 17.9436V18.1059C78.9805 18.3075 79.0015 18.5026 79.044 18.6924C79.0859 18.8816 79.1383 19.0518 79.1998 19.203C79.2613 19.3542 79.3268 19.474 79.3962 19.5631C79.4649 19.6521 79.531 19.6966 79.5926 19.6966C79.7425 19.6966 79.9127 19.6658 80.1051 19.6036C80.2976 19.5415 80.5012 19.4583 80.7172 19.3542C80.9332 19.2502 81.1551 19.1304 81.3829 18.9949C81.6114 18.8594 81.8313 18.7219 82.0434 18.5831C82.5383 18.2584 83.0567 17.8833 83.5987 17.4579L84.6147 19.8832C83.9116 20.3499 83.2165 20.7656 82.5291 21.1302C82.2287 21.2833 81.9184 21.4346 81.5989 21.5845C81.2788 21.7344 80.9574 21.8673 80.6328 21.9838C80.3087 22.1009 79.9932 22.1933 79.6849 22.2626C79.3785 22.3314 79.0898 22.3661 78.8215 22.3661ZM78.8326 13.2448C79.1789 12.6262 79.5461 11.9297 79.9349 11.156C80.3238 10.3823 80.691 9.58561 81.0379 8.76605C81.3842 7.94583 81.684 7.12758 81.938 6.31195C82.1926 5.49566 82.3537 4.73566 82.4231 4.03197C82.4231 3.80744 82.4172 3.61629 82.4067 3.45722C82.3962 3.29815 82.3616 3.21961 82.3033 3.21961C82.0925 3.21961 81.8654 3.36558 81.6218 3.65622C81.3783 3.94752 81.1348 4.34224 80.8913 4.83974C80.6484 5.33724 80.3578 6.14633 80.0194 7.26635C79.681 8.38703 79.5121 8.94738 79.5121 8.94738C79.5121 8.94738 79.4093 9.46778 79.2024 10.5073C78.9949 11.5461 78.8719 12.4587 78.8326 13.2448Z" fill="white"/>
<path d="M61.1395 27.9453C61.9643 27.9453 62.5606 28.522 62.5606 29.3193C62.5606 30.112 61.9604 30.6933 61.1277 30.6933H60.013V27.9453H61.1395ZM60.4764 30.277H61.1513C61.6848 30.277 62.0926 29.881 62.0926 29.3232C62.0926 28.7623 61.6723 28.3616 61.131 28.3616H60.4757L60.4764 30.277Z" fill="white"/>
<path d="M65.4842 28.3616V29.1033H66.8268V29.5196H65.4842V30.277H67.0304V30.6933H65.0208V27.9453H66.9833V28.3616H65.4842Z" fill="white"/>
<path d="M71.4255 28.2089L71.233 28.6174C70.9345 28.4367 70.636 28.3621 70.4285 28.3621C70.1575 28.3621 69.9808 28.4642 69.9808 28.6488C69.9808 29.2491 71.4648 28.9276 71.4608 29.9167C71.4608 30.4077 71.0294 30.7101 70.4246 30.7101C69.9925 30.7101 69.5847 30.5334 69.3019 30.2742L69.5023 29.8735C69.785 30.1328 70.1385 30.2742 70.4325 30.2742C70.7545 30.2742 70.9469 30.1524 70.9469 29.9403C70.9469 29.3276 69.4623 29.6693 69.4623 28.692C69.4623 28.2207 69.8669 27.9268 70.4632 27.9268C70.8213 27.9268 71.1708 28.04 71.4255 28.2089Z" fill="white"/>
<path d="M73.9675 30.6933V27.9453H74.431V30.6933H73.9675Z" fill="white"/>
<path d="M79.4018 29.343V30.3556C79.1229 30.5677 78.7105 30.7124 78.3341 30.7124C77.5211 30.7124 76.8894 30.1043 76.8894 29.3194C76.8894 28.5339 77.5296 27.9336 78.3616 27.9336C78.7544 27.9336 79.1465 28.0829 79.4168 28.3185L79.1543 28.6596C78.9422 28.4632 78.6483 28.3453 78.3616 28.3453C77.7999 28.3453 77.3607 28.7728 77.3607 29.3187C77.3607 29.868 77.8046 30.2961 78.3656 30.2961C78.5691 30.2961 78.8008 30.2254 78.9972 30.1075V29.3423H79.4018V29.343Z" fill="white"/>
<path d="M83.9509 30.6933L82.4872 28.723V30.6933H82.0237V27.9453H82.4787L83.9509 29.9202V27.9453H84.4058V30.6933H83.9509Z" fill="white"/>
</svg>
