<svg width="99" height="30" viewBox="0 0 99 30" fill="none" xmlns="http://www.w3.org/2000/svg">
<path d="M28.9528 0.876953H0V29.8298H28.9528H99V0.876953H28.9528ZM28.0189 28.8958H0.933962V1.81092H28.0189V28.8958ZM98.066 28.8958H28.9528V1.81092H98.066V28.8958Z" fill="white"/>
<path d="M75.184 14.8867H51.835V15.8207H75.184V14.8867Z" fill="white"/>
<path d="M44.1026 11.5572L42.0693 6.3252H43.4894L44.8273 10.1745L46.1652 6.3252H47.533L45.4778 11.5572H44.1026Z" fill="white"/>
<path d="M49.5415 11.5572V6.3252H50.8724V11.5572H49.5415Z" fill="white"/>
<path d="M57.0667 11.5572L54.6603 8.33603V11.5572H53.4116V6.3252H54.5856L56.9999 9.5539V6.3252H58.2407V11.5572H57.0667Z" fill="white"/>
<path d="M63.2008 7.39475V11.5583H61.8699V7.39475H60.3079V6.31836H64.7773V7.39475H63.2008Z" fill="white"/>
<path d="M67.4666 10.5934L67.086 11.5572H65.7178L67.9752 6.3252H69.3434L71.5485 11.5572H70.1284L69.7544 10.5934H67.4666ZM68.6177 7.64816L67.8551 9.58426H69.3649L68.6177 7.64816Z" fill="white"/>
<path d="M78.0111 8.89675V10.9375C77.4507 11.3335 76.5686 11.6174 75.8359 11.6174C74.244 11.6174 73.0406 10.4663 73.0406 8.94113C73.0406 7.42391 74.2744 6.28027 75.9261 6.28027C76.7036 6.28027 77.5259 6.5796 78.0639 7.05779L77.3163 7.96233C76.9352 7.61116 76.4043 7.39403 75.9186 7.39403C75.0589 7.39403 74.4009 8.06694 74.4009 8.94113C74.4009 9.83073 75.0663 10.5037 75.9335 10.5037C76.2025 10.5037 76.5467 10.4065 76.86 10.2496V8.8963L78.0111 8.89675Z" fill="white"/>
<path d="M81.7605 7.3722V8.41168H84.257V9.45774H81.7605V10.5117H84.6087V11.5582H80.4301V6.32617H84.526V7.3722H81.7605Z" fill="white"/>
<path d="M47.0438 24.6325L47.0363 21.2315L45.7806 24.1095H44.9134L43.6577 21.2315V24.6325H42.4692V19.3926H43.9272L45.3472 22.5097L46.7673 19.3926H48.2173V24.6325H47.0438Z" fill="white"/>
<path d="M50.7628 24.6334V19.4014H52.0937V24.6334H50.7628Z" fill="white"/>
<path d="M58.2878 24.6334L55.8815 21.4122V24.6334H54.6328V19.4014H55.8068L58.2211 22.6301V19.4014H59.4618V24.6334H58.2878Z" fill="white"/>
<path d="M62.0002 24.6334V19.4014H63.3311V24.6334H62.0002Z" fill="white"/>
<path d="M70.4447 24.6325L70.4372 21.2315L69.1815 24.1095H68.3143L67.0586 21.2315V24.6325H65.8701V19.3926H67.328L68.7481 22.5097L70.1682 19.3926H71.6182V24.6325H70.4447Z" fill="white"/>
<path d="M75.352 23.6696L74.971 24.6334H73.6027L75.8601 19.4014H77.2284L79.4335 24.6334H78.0134L77.6393 23.6696H75.352ZM76.5036 20.7243L75.741 22.6604H77.2508L76.5036 20.7243Z" fill="white"/>
<path d="M84.9621 23.5197V24.6334H81.4112V19.4014H82.7421V23.5197H84.9621Z" fill="white"/>
<path d="M8.82704 16.9289H8.37406V15.4066H6.56918V16.9289H6.11621V13.583H6.56918V15.075H8.37406V13.583H8.82704V16.9289Z" fill="white"/>
<path d="M15.6164 6.57812V6.94706H14.0077V8.05848H15.3106V8.41336H14.0077V9.55513H15.6188L15.6164 9.92406H13.5547V6.57812H15.6164Z" fill="white"/>
<path d="M16.1212 23.9343H15.771C15.7304 23.9343 15.6977 23.924 15.6729 23.9034C15.6477 23.8834 15.629 23.8577 15.6169 23.8264L15.304 23.019H13.8027L13.4898 23.8264C13.48 23.8544 13.4622 23.8796 13.4361 23.9011C13.4095 23.9231 13.3768 23.9338 13.338 23.9338H12.9878L14.3252 20.5879H14.7829L16.1212 23.9343ZM13.9288 22.6921H15.1779L14.6526 21.3309C14.6358 21.2902 14.619 21.2435 14.6026 21.1908C14.5863 21.138 14.5699 21.081 14.5526 21.0203C14.5372 21.081 14.5214 21.1385 14.5045 21.1922C14.4882 21.2454 14.4719 21.293 14.4546 21.3332L13.9288 22.6921Z" fill="white"/>
<path d="M22.075 15.7736C22.075 15.96 22.0521 16.1276 22.0063 16.2752C21.9601 16.4232 21.8929 16.5483 21.8032 16.6501C21.7135 16.7524 21.6033 16.8304 21.4726 16.8851C21.3423 16.9392 21.1915 16.9668 21.0219 16.9668C20.8678 16.9668 20.7105 16.9448 20.5503 16.9014L20.5736 16.6352C20.5769 16.6086 20.5862 16.5871 20.6031 16.5708C20.6194 16.5544 20.6446 16.546 20.6787 16.546C20.7072 16.546 20.7441 16.5535 20.7899 16.567C20.8356 16.581 20.8977 16.588 20.9757 16.588C21.0784 16.588 21.17 16.5726 21.2512 16.5413C21.332 16.5105 21.3997 16.462 21.4544 16.3966C21.509 16.3307 21.5506 16.2476 21.5795 16.1453C21.608 16.0435 21.6229 15.9226 21.6229 15.7825V13.583H22.0759V15.7736H22.075Z" fill="white"/>
<path d="M7.63391 8.18152L7.30371 8.51172L21.3129 22.5209L21.6431 22.1907L7.63391 8.18152Z" fill="white"/>
<path d="M21.3129 8.18127L7.30371 22.1904L7.63391 22.5206L21.6431 8.51147L21.3129 8.18127Z" fill="white"/>
</svg>
