<svg width="91" height="20" viewBox="0 0 91 20" fill="none" xmlns="http://www.w3.org/2000/svg">
<path d="M9.22145 19.8681V17.8564H9.56073V19.8681H9.22145Z" fill="white"/>
<path d="M14.85 19.8681L13.7785 18.4257V19.8681H13.4393V17.8564H13.7723L14.85 19.3022V17.8564H15.1831V19.8681H14.85Z" fill="white"/>
<path d="M19.8018 18.1612V19.8681H19.4625V18.1612H18.8276V17.8564H20.4396V18.1612H19.8018Z" fill="white"/>
<path d="M24.4193 18.1612V18.7041H25.4022V19.0089H24.4193V19.5634H25.5512V19.8681H24.08V17.8564H25.5167V18.1612H24.4193Z" fill="white"/>
<path d="M30.2236 19.2591C30.1953 19.262 30.1632 19.2619 30.1321 19.2619H29.6553V19.8681H29.316V17.8564H30.1321C30.6463 17.8564 30.9424 18.1066 30.9424 18.5431C30.9424 18.8652 30.7924 19.0923 30.5255 19.1953L30.9765 19.8677H30.5912L30.2236 19.2591ZM30.1321 18.9572C30.4421 18.9572 30.6209 18.8249 30.6209 18.5518C30.6209 18.2872 30.4426 18.1612 30.1321 18.1612H29.6553V18.9572H30.1321Z" fill="white"/>
<path d="M34.7445 19.8681V17.8564H35.0838V19.8681H34.7445Z" fill="white"/>
<path d="M40.9276 18.8621C40.9276 19.4367 40.4619 19.8819 39.8614 19.8819C39.261 19.8819 38.7952 19.4367 38.7952 18.8621C38.7952 18.2842 39.261 17.8477 39.8614 17.8477C40.4619 17.8472 40.9276 18.2871 40.9276 18.8621ZM39.1407 18.8621C39.1407 19.2613 39.4709 19.5776 39.8648 19.5776C40.2582 19.5776 40.5802 19.2613 40.5802 18.8621C40.5802 18.4625 40.2582 18.152 39.8648 18.152C39.468 18.152 39.1407 18.4625 39.1407 18.8621Z" fill="white"/>
<path d="M46.0513 19.8681L44.9798 18.4257V19.8681H44.6405V17.8564H44.9736L46.0513 19.3022V17.8564H46.3844V19.8681H46.0513Z" fill="white"/>
<path d="M55.1831 17.8564C55.7869 17.8564 56.2234 18.2786 56.2234 18.8623C56.2234 19.4426 55.784 19.8681 55.1745 19.8681H54.3584V17.8564H55.1831ZM54.6976 19.5638H55.1917C55.5823 19.5638 55.8808 19.2739 55.8808 18.8656C55.8808 18.455 55.5732 18.1617 55.1769 18.1617H54.6972V19.5638H54.6976Z" fill="white"/>
<path d="M60.2764 18.1612V18.7041H61.2592V19.0089H60.2764V19.5634H61.4083V19.8681H59.9371V17.8564H61.3738V18.1612H60.2764Z" fill="white"/>
<path d="M66.5372 18.0483L66.3963 18.3474C66.1778 18.2151 65.9593 18.1605 65.8074 18.1605C65.609 18.1605 65.4796 18.2352 65.4796 18.3704C65.4796 18.8103 66.5659 18.5745 66.5631 19.2986C66.5631 19.6575 66.2473 19.8789 65.8045 19.8789C65.4882 19.8789 65.1897 19.7495 64.9827 19.5602L65.1293 19.267C65.3363 19.4567 65.5951 19.5602 65.8102 19.5602C66.046 19.5602 66.1869 19.4711 66.1869 19.3158C66.1869 18.8678 65.1001 19.1179 65.1001 18.402C65.1001 18.0569 65.3962 17.8418 65.8328 17.8418C66.0949 17.8418 66.3508 17.9252 66.5372 18.0483Z" fill="white"/>
<path d="M70.3105 19.8681V17.8564H70.6497V19.8681H70.3105Z" fill="white"/>
<path d="M76.2005 18.8784V19.6197C75.9964 19.775 75.6945 19.8809 75.4189 19.8809C74.8238 19.8809 74.3613 19.4357 74.3613 18.8612C74.3613 18.2861 74.83 17.8467 75.4391 17.8467C75.7266 17.8467 76.0136 17.9559 76.2115 18.1285L76.0194 18.3786C75.8641 18.2348 75.6489 18.1491 75.4391 18.1491C75.0279 18.1491 74.7064 18.462 74.7064 18.8616C74.7064 19.2637 75.0312 19.5771 75.4419 19.5771C75.5914 19.5771 75.7606 19.5253 75.9044 19.4391V18.8789L76.2005 18.8784Z" fill="white"/>
<path d="M81.4429 19.8681L80.3714 18.4257V19.8681H80.0321V17.8564H80.3652L81.4429 19.3022V17.8564H81.7759V19.8681H81.4429Z" fill="white"/>
<path d="M86.2333 13.8994H4.76855V14.8578H86.2333V13.8994Z" fill="white"/>
<path d="M4.57161 7.83815H4.49973H2.55895V10.6702H0V0.607422H4.49973C7.15931 0.607422 8.6827 1.87252 8.6827 4.11472C8.6827 5.65297 8.03578 6.75993 6.85694 7.34935L8.97023 10.6702H6.06625L4.57161 7.83815ZM4.49925 5.82548C5.60669 5.82548 6.25314 5.26482 6.25314 4.20099C6.25314 3.15153 5.60621 2.6196 4.49925 2.6196H2.55847V5.82548H4.49925Z" fill="white"/>
<path d="M11.529 2.6196V4.61789H16.3307V6.63054H11.529V8.65758H17.0063V10.6702H8.97008V0.607422H16.8477V2.62009H11.529V2.6196Z" fill="white"/>
<path d="M21.88 2.66294V10.67H19.321V2.66294H16.3164V0.592773H24.9129V2.66294H21.88Z" fill="white"/>
<path d="M29.14 7.83815H29.0681H27.1273V10.6702H24.5684V0.607422H29.0681C31.7277 0.607422 33.2516 1.87252 33.2516 4.11472C33.2516 5.65297 32.6047 6.75993 31.4258 7.34935L33.5391 10.6702H30.6351L29.14 7.83815ZM29.0681 5.82548C30.1756 5.82548 30.822 5.26482 30.822 4.20099C30.822 3.15153 30.1751 2.6196 29.0681 2.6196H27.1273V5.82548H29.0681Z" fill="white"/>
<path d="M43.7602 5.62355C43.7602 8.55628 41.4317 10.7846 38.3121 10.7846C35.2073 10.7846 32.8779 8.57066 32.8779 5.62355C32.8779 2.69082 35.2069 0.520508 38.3121 0.520508C41.4317 0.520508 43.7602 2.70567 43.7602 5.62355ZM35.4944 5.63794C35.4944 7.33432 36.8026 8.64255 38.3404 8.64255C39.893 8.64255 41.1293 7.33432 41.1293 5.63794C41.1293 3.94156 39.893 2.66207 38.3404 2.66207C36.7882 2.66207 35.4944 3.94156 35.4944 5.63794Z" fill="white"/>
<path d="M48.0016 0.607422C51.1644 0.607422 53.3491 2.64884 53.3491 5.6386C53.3491 8.61446 51.1351 10.6702 47.901 10.6702H43.6744V0.607422H48.0016ZM46.2329 8.62883H48.0591C49.6261 8.62883 50.747 7.42124 50.747 5.65298C50.747 3.87034 49.5681 2.64836 47.9436 2.64836H46.2329V8.62883Z" fill="white"/>
<path d="M55.8217 2.6196V4.61789H60.6233V6.63054H55.8217V8.65758H61.299V10.6702H53.2628V0.607422H61.1404V2.62009H55.8217V2.6196Z" fill="white"/>
<path d="M69.3495 1.61352L68.3863 3.61181C67.3225 2.99364 65.9855 2.56235 65.166 2.56235C64.5047 2.56235 64.0591 2.80675 64.0591 3.29554C64.0591 5.03457 69.3778 4.04309 69.3778 7.67977C69.3778 9.69243 67.5951 10.7563 65.3529 10.7563C63.6709 10.7563 61.9463 10.1237 60.7526 9.14614L61.7445 7.17661C62.7796 8.08231 64.3317 8.6861 65.3817 8.6861C66.1867 8.6861 66.6899 8.38421 66.6899 7.80917C66.6899 6.02653 61.3707 7.09036 61.3707 3.52556C61.3707 1.67104 62.9665 0.492188 65.3817 0.492188C66.8337 0.492667 68.3139 0.938325 69.3495 1.61352Z" fill="white"/>
<path d="M69.335 10.6702V0.607422H71.894V10.6702H69.335Z" fill="white"/>
<path d="M81.3682 5.55215V9.47684C80.29 10.2388 78.5937 10.7851 77.1853 10.7851C74.1232 10.7851 71.8086 8.57115 71.8086 5.63842C71.8086 2.72007 74.1807 0.520508 77.3578 0.520508C78.8524 0.520508 80.4338 1.09555 81.4689 2.01562L80.0313 3.75514C79.2986 3.07946 78.2779 2.66255 77.3434 2.66255C75.6902 2.66255 74.4251 3.95641 74.4251 5.63842C74.4251 7.34918 75.7045 8.64303 77.3717 8.64303C77.8892 8.64303 78.5505 8.45614 79.1548 8.15425V5.55215H81.3682Z" fill="white"/>
<path d="M88.7429 10.6702L84.1138 4.47412V10.6702H81.713V0.607422H83.97L88.6135 6.81792V0.607422H90.9999V10.6702H88.7429Z" fill="white"/>
</svg>
