<svg width="826" height="884" viewBox="0 0 826 884" fill="none" xmlns="http://www.w3.org/2000/svg">
<g filter="url(#filter0_bdd_16_4)">
<mask id="path-1-inside-1_16_4" fill="white">
<path fill-rule="evenodd" clip-rule="evenodd" d="M656.535 121L677.032 140.418L700.227 163.613V262.883L679.227 266.575V349H685.227V519H679.227V618.031L700.227 621.643V711.993L677.572 735.187L657.884 754.605H168.918L148.421 735.187L125.227 711.993V622.722L146.227 619.031V519H140.227V349H146.227V267.575L125.227 263.962V163.613L147.881 140.418L167.569 121H186.727H639.977H656.535Z"/>
</mask>
<path fill-rule="evenodd" clip-rule="evenodd" d="M656.535 121L677.032 140.418L700.227 163.613V262.883L679.227 266.575V349H685.227V519H679.227V618.031L700.227 621.643V711.993L677.572 735.187L657.884 754.605H168.918L148.421 735.187L125.227 711.993V622.722L146.227 619.031V519H140.227V349H146.227V267.575L125.227 263.962V163.613L147.881 140.418L167.569 121H186.727H639.977H656.535Z" fill="white" fill-opacity="0.1"/>
<path d="M677.032 140.418L677.739 139.711L677.73 139.702L677.72 139.692L677.032 140.418ZM656.535 121L657.223 120.274L656.934 120H656.535V121ZM700.227 163.613H701.227V163.198L700.934 162.905L700.227 163.613ZM700.227 262.883L700.4 263.868L701.227 263.723V262.883H700.227ZM679.227 266.575L679.053 265.59L678.227 265.735V266.575H679.227ZM679.227 349H678.227V350H679.227V349ZM685.227 349H686.227V348H685.227V349ZM685.227 519V520H686.227V519H685.227ZM679.227 519V518H678.227V519H679.227ZM679.227 618.031H678.227V618.873L679.057 619.016L679.227 618.031ZM700.227 621.643H701.227V620.801L700.396 620.658L700.227 621.643ZM700.227 711.993L700.942 712.692L701.227 712.4V711.993H700.227ZM677.572 735.187L678.274 735.899L678.281 735.892L678.287 735.886L677.572 735.187ZM657.884 754.605V755.605H658.294L658.586 755.317L657.884 754.605ZM168.918 754.605L168.23 755.331L168.519 755.605H168.918V754.605ZM148.421 735.187L147.714 735.894L147.723 735.904L147.733 735.913L148.421 735.187ZM125.227 711.993H124.227V712.407L124.519 712.7L125.227 711.993ZM125.227 622.722L125.053 621.737L124.227 621.883V622.722H125.227ZM146.227 619.031L146.4 620.016L147.227 619.87V619.031H146.227ZM146.227 519H147.227V518H146.227V519ZM140.227 519H139.227V520H140.227V519ZM140.227 349V348H139.227V349H140.227ZM146.227 349V350H147.227V349H146.227ZM146.227 267.575H147.227V266.732L146.396 266.589L146.227 267.575ZM125.227 263.962H124.227V264.805L125.057 264.948L125.227 263.962ZM125.227 163.613L124.511 162.914L124.227 163.205V163.613H125.227ZM147.881 140.418L147.179 139.706L147.172 139.713L147.166 139.72L147.881 140.418ZM167.569 121V120H167.159L166.867 120.288L167.569 121ZM677.72 139.692L657.223 120.274L655.847 121.726L676.345 141.144L677.72 139.692ZM700.934 162.905L677.739 139.711L676.325 141.125L699.519 164.32L700.934 162.905ZM701.227 262.883V163.613H699.227V262.883H701.227ZM679.4 267.56L700.4 263.868L700.053 261.898L679.053 265.59L679.4 267.56ZM680.227 349V266.575H678.227V349H680.227ZM679.227 350H685.227V348H679.227V350ZM684.227 349V519H686.227V349H684.227ZM685.227 518H679.227V520H685.227V518ZM680.227 618.031V519H678.227V618.031H680.227ZM700.396 620.658L679.396 617.045L679.057 619.016L700.057 622.629L700.396 620.658ZM701.227 711.993V621.643H699.227V711.993H701.227ZM678.287 735.886L700.942 712.692L699.511 711.294L676.856 734.488L678.287 735.886ZM658.586 755.317L678.274 735.899L676.87 734.475L657.181 753.894L658.586 755.317ZM168.918 755.605H657.884V753.605H168.918V755.605ZM147.733 735.913L168.23 755.331L169.606 753.88L149.108 734.461L147.733 735.913ZM124.519 712.7L147.714 735.894L149.128 734.48L125.934 711.286L124.519 712.7ZM124.227 622.722V711.993H126.227V622.722H124.227ZM146.053 618.046L125.053 621.737L125.4 623.707L146.4 620.016L146.053 618.046ZM145.227 519V619.031H147.227V519H145.227ZM140.227 520H146.227V518H140.227V520ZM139.227 349V519H141.227V349H139.227ZM146.227 348H140.227V350H146.227V348ZM145.227 267.575V349H147.227V267.575H145.227ZM125.057 264.948L146.057 268.56L146.396 266.589L125.396 262.976L125.057 264.948ZM124.227 163.613V263.962H126.227V163.613H124.227ZM147.166 139.72L124.511 162.914L125.942 164.311L148.597 141.117L147.166 139.72ZM166.867 120.288L147.179 139.706L148.584 141.13L168.272 121.712L166.867 120.288ZM186.727 120H167.569V122H186.727V120ZM639.977 120H186.727V122H639.977V120ZM656.535 120H639.977V122H656.535V120Z" fill="white" fill-opacity="0.3" mask="url(#path-1-inside-1_16_4)"/>
<g filter="url(#filter1_d_16_4)">
<path d="M147.186 253.95L147.047 177L139.241 184.894L139.366 253.964L147.186 253.95Z" fill="#00AAFF"/>
</g>
<g filter="url(#filter2_d_16_4)">
<path d="M147.186 632.021L147.047 708.972L139.241 701.077L139.366 632.007L147.186 632.021Z" fill="#E641FF"/>
</g>
<g filter="url(#filter3_bi_16_4)">
<path d="M177.485 156.123L194.504 140H631.496L647.843 156.123L666.653 175.382V699.395L648.738 717.981L630.6 735H194.504L176.589 717.981L158.227 698.499V175.382L177.485 156.123Z" fill="white" fill-opacity="0.01"/>
<path d="M158.727 175.589L177.834 156.482L194.703 140.5H631.29L647.485 156.473L647.492 156.479L666.153 175.585V699.193L648.396 717.616L648.378 717.634L630.402 734.5H194.703L176.953 717.638L176.933 717.619L158.727 698.3V175.589Z" stroke="white" stroke-opacity="0.4"/>
</g>
<g filter="url(#filter4_d_16_4)">
<path d="M676.227 253.95L676.365 177L684.171 184.894L684.047 253.964L676.227 253.95Z" fill="#00AAFF"/>
</g>
<g filter="url(#filter5_d_16_4)">
<path d="M676.227 632.021L676.365 708.972L684.171 701.077L684.047 632.007L676.227 632.021Z" fill="#E641FF"/>
</g>
</g>
<defs>
<filter id="filter0_bdd_16_4" x="0.226562" y="0" width="825" height="883.605" filterUnits="userSpaceOnUse" color-interpolation-filters="sRGB">
<feFlood flood-opacity="0" result="BackgroundImageFix"/>
<feGaussianBlur in="BackgroundImageFix" stdDeviation="42"/>
<feComposite in2="SourceAlpha" operator="in" result="effect1_backgroundBlur_16_4"/>
<feColorMatrix in="SourceAlpha" type="matrix" values="0 0 0 0 0 0 0 0 0 0 0 0 0 0 0 0 0 0 127 0" result="hardAlpha"/>
<feOffset dy="4"/>
<feGaussianBlur stdDeviation="62.5"/>
<feComposite in2="hardAlpha" operator="out"/>
<feColorMatrix type="matrix" values="0 0 0 0 0 0 0 0 0 0.666667 0 0 0 0 1 0 0 0 0.5 0"/>
<feBlend mode="normal" in2="effect1_backgroundBlur_16_4" result="effect2_dropShadow_16_4"/>
<feColorMatrix in="SourceAlpha" type="matrix" values="0 0 0 0 0 0 0 0 0 0 0 0 0 0 0 0 0 0 127 0" result="hardAlpha"/>
<feOffset dy="4"/>
<feGaussianBlur stdDeviation="27"/>
<feComposite in2="hardAlpha" operator="out"/>
<feColorMatrix type="matrix" values="0 0 0 0 0 0 0 0 0 0 0 0 0 0 0 0 0 0 0.75 0"/>
<feBlend mode="normal" in2="effect2_dropShadow_16_4" result="effect3_dropShadow_16_4"/>
<feBlend mode="normal" in="SourceGraphic" in2="effect3_dropShadow_16_4" result="shape"/>
</filter>
<filter id="filter1_d_16_4" x="119.241" y="156" width="47.9443" height="116.964" filterUnits="userSpaceOnUse" color-interpolation-filters="sRGB">
<feFlood flood-opacity="0" result="BackgroundImageFix"/>
<feColorMatrix in="SourceAlpha" type="matrix" values="0 0 0 0 0 0 0 0 0 0 0 0 0 0 0 0 0 0 127 0" result="hardAlpha"/>
<feOffset dy="-1"/>
<feGaussianBlur stdDeviation="10"/>
<feComposite in2="hardAlpha" operator="out"/>
<feColorMatrix type="matrix" values="0 0 0 0 0 0 0 0 0 0.666667 0 0 0 0 1 0 0 0 1 0"/>
<feBlend mode="normal" in2="BackgroundImageFix" result="effect1_dropShadow_16_4"/>
<feBlend mode="normal" in="SourceGraphic" in2="effect1_dropShadow_16_4" result="shape"/>
</filter>
<filter id="filter2_d_16_4" x="119.241" y="611.007" width="47.9443" height="116.964" filterUnits="userSpaceOnUse" color-interpolation-filters="sRGB">
<feFlood flood-opacity="0" result="BackgroundImageFix"/>
<feColorMatrix in="SourceAlpha" type="matrix" values="0 0 0 0 0 0 0 0 0 0 0 0 0 0 0 0 0 0 127 0" result="hardAlpha"/>
<feOffset dy="-1"/>
<feGaussianBlur stdDeviation="10"/>
<feComposite in2="hardAlpha" operator="out"/>
<feColorMatrix type="matrix" values="0 0 0 0 0.900556 0 0 0 0 0.254167 0 0 0 0 1 0 0 0 1 0"/>
<feBlend mode="normal" in2="BackgroundImageFix" result="effect1_dropShadow_16_4"/>
<feBlend mode="normal" in="SourceGraphic" in2="effect1_dropShadow_16_4" result="shape"/>
</filter>
<filter id="filter3_bi_16_4" x="74.2266" y="56" width="676.427" height="763" filterUnits="userSpaceOnUse" color-interpolation-filters="sRGB">
<feFlood flood-opacity="0" result="BackgroundImageFix"/>
<feGaussianBlur in="BackgroundImageFix" stdDeviation="42"/>
<feComposite in2="SourceAlpha" operator="in" result="effect1_backgroundBlur_16_4"/>
<feBlend mode="normal" in="SourceGraphic" in2="effect1_backgroundBlur_16_4" result="shape"/>
<feColorMatrix in="SourceAlpha" type="matrix" values="0 0 0 0 0 0 0 0 0 0 0 0 0 0 0 0 0 0 127 0" result="hardAlpha"/>
<feOffset dx="25" dy="25"/>
<feGaussianBlur stdDeviation="82"/>
<feComposite in2="hardAlpha" operator="arithmetic" k2="-1" k3="1"/>
<feColorMatrix type="matrix" values="0 0 0 0 0 0 0 0 0 0.666667 0 0 0 0 1 0 0 0 0.41 0"/>
<feBlend mode="normal" in2="shape" result="effect2_innerShadow_16_4"/>
</filter>
<filter id="filter4_d_16_4" x="656.227" y="156" width="47.9443" height="116.964" filterUnits="userSpaceOnUse" color-interpolation-filters="sRGB">
<feFlood flood-opacity="0" result="BackgroundImageFix"/>
<feColorMatrix in="SourceAlpha" type="matrix" values="0 0 0 0 0 0 0 0 0 0 0 0 0 0 0 0 0 0 127 0" result="hardAlpha"/>
<feOffset dy="-1"/>
<feGaussianBlur stdDeviation="10"/>
<feComposite in2="hardAlpha" operator="out"/>
<feColorMatrix type="matrix" values="0 0 0 0 0 0 0 0 0 0.666667 0 0 0 0 1 0 0 0 1 0"/>
<feBlend mode="normal" in2="BackgroundImageFix" result="effect1_dropShadow_16_4"/>
<feBlend mode="normal" in="SourceGraphic" in2="effect1_dropShadow_16_4" result="shape"/>
</filter>
<filter id="filter5_d_16_4" x="656.227" y="611.007" width="47.9443" height="116.964" filterUnits="userSpaceOnUse" color-interpolation-filters="sRGB">
<feFlood flood-opacity="0" result="BackgroundImageFix"/>
<feColorMatrix in="SourceAlpha" type="matrix" values="0 0 0 0 0 0 0 0 0 0 0 0 0 0 0 0 0 0 127 0" result="hardAlpha"/>
<feOffset dy="-1"/>
<feGaussianBlur stdDeviation="10"/>
<feComposite in2="hardAlpha" operator="out"/>
<feColorMatrix type="matrix" values="0 0 0 0 0.900556 0 0 0 0 0.254167 0 0 0 0 1 0 0 0 1 0"/>
<feBlend mode="normal" in2="BackgroundImageFix" result="effect1_dropShadow_16_4"/>
<feBlend mode="normal" in="SourceGraphic" in2="effect1_dropShadow_16_4" result="shape"/>
</filter>
</defs>
</svg>
