<svg width="2311" height="207" viewBox="0 0 2311 207" fill="none" xmlns="http://www.w3.org/2000/svg">
<path d="M6.58777 205.163L6.58777 119.102H25.6063L25.6063 192.307H45.3685V205.163H6.58777ZM54.0128 205.163V119.102H73.0313V153.952H86.4186V119.102H105.437V205.163H86.4186V167.551H73.0313V205.163H54.0128ZM143.405 206.438C136.818 206.438 131.647 205.376 127.893 203.251C124.21 201.055 121.624 197.903 120.137 193.795C118.649 189.616 117.905 184.516 117.905 178.495V119.102H136.711V181.364C136.711 183.135 136.853 184.905 137.136 186.676C137.42 188.447 138.022 189.899 138.943 191.032C139.934 192.166 141.422 192.732 143.405 192.732C145.459 192.732 146.947 192.166 147.868 191.032C148.788 189.899 149.355 188.447 149.568 186.676C149.851 184.905 149.993 183.135 149.993 181.364V119.102H168.905V178.495C168.905 184.516 168.126 189.616 166.567 193.795C165.08 197.903 162.494 201.055 158.811 203.251C155.128 205.376 149.993 206.438 143.405 206.438ZM181.005 205.163V119.102H194.393L212.03 160.539V119.102H227.755V205.163H214.899L197.262 160.539V205.163H181.005ZM248.319 205.163V133.233H235.357V119.102L280.3 119.102V133.233H267.444V205.163H248.319ZM322.817 205.163V133.233H309.855V119.102H354.798V133.233H341.942V205.163H322.817ZM386.195 206.438C379.749 206.438 374.649 205.305 370.895 203.038C367.141 200.772 364.449 197.514 362.82 193.264C361.191 189.014 360.376 183.949 360.376 178.07V146.089C360.376 140.139 361.191 135.075 362.82 130.896C364.449 126.717 367.141 123.529 370.895 121.333C374.649 119.067 379.749 117.933 386.195 117.933C392.711 117.933 397.846 119.067 401.601 121.333C405.426 123.529 408.153 126.717 409.782 130.896C411.411 135.075 412.225 140.139 412.225 146.089V178.07C412.225 183.949 411.411 189.014 409.782 193.264C408.153 197.514 405.426 200.772 401.601 203.038C397.846 205.305 392.711 206.438 386.195 206.438ZM386.195 192.945C388.178 192.945 389.63 192.449 390.551 191.457C391.472 190.466 392.074 189.191 392.357 187.632C392.64 186.074 392.782 184.48 392.782 182.851V141.414C392.782 139.714 392.64 138.121 392.357 136.633C392.074 135.075 391.472 133.8 390.551 132.808C389.63 131.817 388.178 131.321 386.195 131.321C384.353 131.321 382.972 131.817 382.051 132.808C381.13 133.8 380.528 135.075 380.245 136.633C379.961 138.121 379.82 139.714 379.82 141.414V182.851C379.82 184.48 379.926 186.074 380.138 187.632C380.422 189.191 380.988 190.466 381.838 191.457C382.759 192.449 384.211 192.945 386.195 192.945ZM423.8 205.163V119.102H442.818V154.27L457.268 119.102H475.862L459.924 157.989L476.605 205.163H457.268L444.837 167.126L442.818 170.526V205.163H423.8ZM484.083 205.163V119.102H522.758V132.064H503.102V153.42H518.083V166.595H503.102V192.307H522.97V205.163H484.083ZM531.605 205.163V119.102H544.992L562.629 160.539V119.102H578.354V205.163H565.498L547.861 160.539V205.163H531.605Z" fill="#FFAF3A"/>
<path d="M6.58777 205.163H6.08777V205.663H6.58777V205.163ZM6.58777 119.102V118.602H6.08777V119.102H6.58777ZM25.6063 119.102H26.1063V118.602H25.6063V119.102ZM25.6063 192.307H25.1063V192.807H25.6063V192.307ZM45.3685 192.307H45.8685V191.807H45.3685V192.307ZM45.3685 205.163V205.663H45.8685V205.163H45.3685ZM7.08777 205.163L7.08777 119.102H6.08777L6.08777 205.163H7.08777ZM6.58777 119.602H25.6063V118.602H6.58777V119.602ZM25.1063 119.102L25.1063 192.307H26.1063L26.1063 119.102H25.1063ZM25.6063 192.807H45.3685V191.807H25.6063V192.807ZM44.8685 192.307V205.163H45.8685V192.307H44.8685ZM45.3685 204.663H6.58777V205.663H45.3685V204.663ZM54.0128 205.163H53.5128V205.663H54.0128V205.163ZM54.0128 119.102V118.602H53.5128V119.102H54.0128ZM73.0313 119.102H73.5313V118.602H73.0313V119.102ZM73.0313 153.952H72.5313V154.452H73.0313V153.952ZM86.4186 153.952V154.452H86.9186V153.952H86.4186ZM86.4186 119.102V118.602H85.9186V119.102H86.4186ZM105.437 119.102H105.937V118.602H105.437V119.102ZM105.437 205.163V205.663H105.937V205.163H105.437ZM86.4186 205.163H85.9186V205.663H86.4186V205.163ZM86.4186 167.551H86.9186V167.051H86.4186V167.551ZM73.0313 167.551V167.051H72.5313V167.551H73.0313ZM73.0313 205.163V205.663H73.5313V205.163H73.0313ZM54.5128 205.163V119.102H53.5128V205.163H54.5128ZM54.0128 119.602H73.0313V118.602H54.0128V119.602ZM72.5313 119.102V153.952H73.5313V119.102H72.5313ZM73.0313 154.452H86.4186V153.452H73.0313V154.452ZM86.9186 153.952V119.102H85.9186V153.952H86.9186ZM86.4186 119.602H105.437V118.602H86.4186V119.602ZM104.937 119.102V205.163H105.937V119.102H104.937ZM105.437 204.663H86.4186V205.663H105.437V204.663ZM86.9186 205.163V167.551H85.9186V205.163H86.9186ZM86.4186 167.051H73.0313V168.051H86.4186V167.051ZM72.5313 167.551V205.163H73.5313V167.551H72.5313ZM73.0313 204.663H54.0128V205.663H73.0313V204.663ZM127.893 203.251L127.637 203.681L127.647 203.686L127.893 203.251ZM120.137 193.795L119.666 193.963L119.667 193.965L120.137 193.795ZM117.905 119.102V118.602H117.405V119.102H117.905ZM136.711 119.102H137.211V118.602H136.711V119.102ZM137.136 186.676L137.63 186.597L137.63 186.597L137.136 186.676ZM138.943 191.032L138.555 191.348L138.56 191.355L138.566 191.362L138.943 191.032ZM147.868 191.032L148.256 191.348L148.256 191.348L147.868 191.032ZM149.568 186.676L149.074 186.597L149.072 186.607L149.071 186.617L149.568 186.676ZM149.993 119.102V118.602H149.493V119.102H149.993ZM168.905 119.102H169.405V118.602H168.905V119.102ZM166.567 193.795L166.099 193.62L166.097 193.625L166.567 193.795ZM158.811 203.251L159.061 203.684L159.067 203.68L158.811 203.251ZM143.405 205.938C136.862 205.938 131.789 204.882 128.139 202.816L127.647 203.686C131.505 205.87 136.773 206.938 143.405 206.938V205.938ZM128.149 202.822C124.567 200.686 122.056 197.627 120.607 193.625L119.667 193.965C121.193 198.18 123.852 201.424 127.637 203.68L128.149 202.822ZM120.608 193.627C119.145 189.517 118.405 184.478 118.405 178.495H117.405C117.405 184.554 118.154 189.714 119.666 193.963L120.608 193.627ZM118.405 178.495V119.102H117.405V178.495H118.405ZM117.905 119.602H136.711V118.602H117.905V119.602ZM136.211 119.102V181.364H137.211V119.102H136.211ZM136.211 181.364C136.211 183.161 136.355 184.959 136.643 186.755L137.63 186.597C137.351 184.852 137.211 183.108 137.211 181.364H136.211ZM136.643 186.755C136.937 188.593 137.567 190.132 138.555 191.348L139.331 190.717C138.477 189.666 137.903 188.301 137.63 186.597L136.643 186.755ZM138.566 191.362C139.681 192.635 141.326 193.232 143.405 193.232V192.232C141.518 192.232 140.188 191.696 139.319 190.703L138.566 191.362ZM143.405 193.232C145.546 193.232 147.206 192.64 148.256 191.348L147.48 190.717C146.688 191.691 145.373 192.232 143.405 192.232V193.232ZM148.256 191.348C149.248 190.126 149.843 188.58 150.064 186.736L149.071 186.617C148.867 188.315 148.329 189.672 147.48 190.717L148.256 191.348ZM150.061 186.755C150.349 184.959 150.493 183.161 150.493 181.364H149.493C149.493 183.108 149.353 184.852 149.074 186.597L150.061 186.755ZM150.493 181.364V119.102H149.493V181.364H150.493ZM149.993 119.602H168.905V118.602H149.993V119.602ZM168.405 119.102V178.495H169.405V119.102H168.405ZM168.405 178.495C168.405 184.476 167.63 189.513 166.099 193.62L167.036 193.97C168.621 189.719 169.405 184.556 169.405 178.495H168.405ZM166.097 193.625C164.648 197.627 162.137 200.686 158.555 202.822L159.067 203.68C162.852 201.424 165.511 198.18 167.037 193.965L166.097 193.625ZM158.561 202.818C154.985 204.881 149.949 205.938 143.405 205.938V206.938C150.036 206.938 155.271 205.871 159.061 203.684L158.561 202.818ZM181.005 205.163H180.505V205.663H181.005V205.163ZM181.005 119.102V118.602H180.505V119.102H181.005ZM194.393 119.102L194.853 118.906L194.723 118.602H194.393V119.102ZM212.03 160.539L211.57 160.735L212.53 160.539H212.03ZM212.03 119.102V118.602H211.53V119.102H212.03ZM227.755 119.102H228.255V118.602H227.755V119.102ZM227.755 205.163V205.663H228.255V205.163H227.755ZM214.899 205.163L214.434 205.347L214.559 205.663H214.899V205.163ZM197.262 160.539L197.727 160.355L196.762 160.539H197.262ZM197.262 205.163V205.663H197.762V205.163H197.262ZM181.505 205.163V119.102H180.505V205.163H181.505ZM181.005 119.602H194.393V118.602H181.005V119.602ZM193.933 119.298L211.57 160.735L212.49 160.343L194.853 118.906L193.933 119.298ZM212.53 160.539V119.102H211.53V160.539H212.53ZM212.03 119.602H227.755V118.602H212.03V119.602ZM227.255 119.102V205.163H228.255V119.102H227.255ZM227.755 204.663H214.899V205.663H227.755V204.663ZM215.364 204.98L197.727 160.355L196.797 160.723L214.434 205.347L215.364 204.98ZM196.762 160.539V205.163H197.762V160.539H196.762ZM197.262 204.663H181.005V205.663H197.262V204.663ZM248.319 205.163H247.819V205.663H248.319V205.163ZM248.319 133.233H248.819V132.733H248.319V133.233ZM235.357 133.233H234.857V133.733H235.357V133.233ZM235.357 119.102V118.602H234.857V119.102H235.357ZM280.3 119.102H280.8V118.602H280.3V119.102ZM280.3 133.233V133.733H280.8V133.233H280.3ZM267.444 133.233V132.733H266.944V133.233H267.444ZM267.444 205.163V205.663H267.944V205.163H267.444ZM248.819 205.163V133.233H247.819V205.163H248.819ZM248.319 132.733H235.357V133.733H248.319V132.733ZM235.857 133.233V119.102H234.857V133.233H235.857ZM235.357 119.602L280.3 119.602V118.602L235.357 118.602V119.602ZM279.8 119.102V133.233H280.8V119.102H279.8ZM280.3 132.733H267.444V133.733H280.3V132.733ZM266.944 133.233V205.163H267.944V133.233H266.944ZM267.444 204.663H248.319V205.663H267.444V204.663ZM322.817 205.163H322.317V205.663H322.817V205.163ZM322.817 133.233H323.317V132.733H322.817V133.233ZM309.855 133.233H309.355V133.733H309.855V133.233ZM309.855 119.102V118.602H309.355V119.102H309.855ZM354.798 119.102H355.298V118.602H354.798V119.102ZM354.798 133.233V133.733H355.298V133.233H354.798ZM341.942 133.233V132.733H341.442V133.233H341.942ZM341.942 205.163V205.663H342.442V205.163H341.942ZM323.317 205.163V133.233H322.317V205.163H323.317ZM322.817 132.733H309.855V133.733H322.817V132.733ZM310.355 133.233V119.102H309.355V133.233H310.355ZM309.855 119.602H354.798V118.602H309.855V119.602ZM354.298 119.102V133.233H355.298V119.102H354.298ZM354.798 132.733H341.942V133.733H354.798V132.733ZM341.442 133.233V205.163H342.442V133.233H341.442ZM341.942 204.663H322.817V205.663H341.942V204.663ZM370.895 203.038L370.636 203.467L370.636 203.467L370.895 203.038ZM362.82 130.896L362.354 130.714L362.354 130.714L362.82 130.896ZM370.895 121.333L371.147 121.765L371.153 121.761L370.895 121.333ZM401.601 121.333L401.342 121.762L401.352 121.767L401.601 121.333ZM409.782 130.896L409.316 131.077L409.316 131.077L409.782 130.896ZM409.782 193.264L409.315 193.085L409.315 193.085L409.782 193.264ZM401.601 203.038L401.346 202.608L401.342 202.61L401.601 203.038ZM390.551 191.457L390.184 191.117L390.184 191.117L390.551 191.457ZM392.357 187.632L392.849 187.722L392.849 187.722L392.357 187.632ZM392.357 136.633L391.865 136.723L391.866 136.727L392.357 136.633ZM390.551 132.808L390.184 133.148L390.184 133.148L390.551 132.808ZM382.051 132.808L382.417 133.148L382.417 133.148L382.051 132.808ZM380.245 136.633L380.736 136.727L380.737 136.723L380.245 136.633ZM380.138 187.632L379.643 187.7L379.644 187.711L379.646 187.722L380.138 187.632ZM381.838 191.457L381.459 191.783L381.465 191.79L381.472 191.798L381.838 191.457ZM386.195 205.938C379.8 205.938 374.801 204.813 371.153 202.61L370.636 203.467C374.497 205.797 379.698 206.938 386.195 206.938V205.938ZM371.153 202.61C367.498 200.404 364.878 197.235 363.287 193.085L362.353 193.443C364.02 197.792 366.783 201.14 370.636 203.467L371.153 202.61ZM363.287 193.085C361.685 188.906 360.876 183.905 360.876 178.07H359.876C359.876 183.993 360.697 189.122 362.353 193.443L363.287 193.085ZM360.876 178.07V146.089H359.876V178.07H360.876ZM360.876 146.089C360.876 140.182 361.685 135.183 363.286 131.077L362.354 130.714C360.696 134.967 359.876 140.096 359.876 146.089H360.876ZM363.286 131.077C364.875 127 367.494 123.902 371.147 121.765L370.642 120.902C366.788 123.156 364.023 126.434 362.354 130.714L363.286 131.077ZM371.153 121.761C374.801 119.559 379.8 118.433 386.195 118.433V117.433C379.698 117.433 374.497 118.575 370.636 120.905L371.153 121.761ZM386.195 118.433C392.661 118.433 397.695 119.559 401.342 121.761L401.859 120.905C397.998 118.574 392.761 117.433 386.195 117.433V118.433ZM401.352 121.767C405.076 123.905 407.727 127.003 409.316 131.077L410.248 130.714C408.578 126.431 405.775 123.153 401.85 120.9L401.352 121.767ZM409.316 131.077C410.916 135.183 411.725 140.182 411.725 146.089H412.725C412.725 140.096 411.905 134.967 410.248 130.714L409.316 131.077ZM411.725 146.089V178.07H412.725V146.089H411.725ZM411.725 178.07C411.725 183.905 410.917 188.906 409.315 193.085L410.249 193.443C411.905 189.122 412.725 183.993 412.725 178.07H411.725ZM409.315 193.085C407.725 197.232 405.071 200.401 401.346 202.608L401.856 203.469C405.78 201.143 408.58 197.795 410.249 193.443L409.315 193.085ZM401.342 202.61C397.695 204.812 392.661 205.938 386.195 205.938V206.938C392.761 206.938 397.998 205.798 401.859 203.467L401.342 202.61ZM386.195 193.445C388.252 193.445 389.865 192.931 390.917 191.798L390.184 191.117C389.395 191.967 388.104 192.445 386.195 192.445V193.445ZM390.917 191.798C391.913 190.725 392.551 189.358 392.849 187.722L391.865 187.543C391.596 189.024 391.03 190.207 390.184 191.117L390.917 191.798ZM392.849 187.722C393.138 186.133 393.282 184.51 393.282 182.851H392.282C392.282 184.451 392.143 186.015 391.865 187.543L392.849 187.722ZM393.282 182.851V141.414H392.282V182.851H393.282ZM393.282 141.414C393.282 139.687 393.138 138.061 392.848 136.54L391.866 136.727C392.143 138.18 392.282 139.742 392.282 141.414H393.282ZM392.849 136.544C392.551 134.908 391.913 133.541 390.917 132.468L390.184 133.148C391.03 134.059 391.596 135.242 391.865 136.723L392.849 136.544ZM390.917 132.468C389.865 131.335 388.252 130.821 386.195 130.821V131.821C388.104 131.821 389.395 132.298 390.184 133.148L390.917 132.468ZM386.195 130.821C384.266 130.821 382.73 131.342 381.684 132.468L382.417 133.148C383.213 132.291 384.44 131.821 386.195 131.821V130.821ZM381.684 132.468C380.688 133.541 380.05 134.908 379.753 136.544L380.737 136.723C381.006 135.242 381.572 134.059 382.417 133.148L381.684 132.468ZM379.753 136.54C379.464 138.061 379.32 139.687 379.32 141.414H380.32C380.32 139.742 380.459 138.18 380.736 136.727L379.753 136.54ZM379.32 141.414V182.851H380.32V141.414H379.32ZM379.32 182.851C379.32 184.502 379.427 186.119 379.643 187.7L380.634 187.565C380.424 186.03 380.32 184.459 380.32 182.851H379.32ZM379.646 187.722C379.942 189.349 380.54 190.711 381.459 191.783L382.218 191.132C381.437 190.221 380.901 189.033 380.63 187.543L379.646 187.722ZM381.472 191.798C382.524 192.931 384.138 193.445 386.195 193.445V192.445C384.285 192.445 382.994 191.967 382.205 191.117L381.472 191.798ZM423.8 205.163H423.3V205.663H423.8V205.163ZM423.8 119.102V118.602H423.3V119.102H423.8ZM442.818 119.102H443.318V118.602H442.818V119.102ZM442.818 154.27H442.318L443.281 154.46L442.818 154.27ZM457.268 119.102V118.602H456.933L456.806 118.912L457.268 119.102ZM475.862 119.102L476.324 119.292L476.607 118.602H475.862V119.102ZM459.924 157.989L459.462 157.8L459.389 157.976L459.453 158.156L459.924 157.989ZM476.605 205.163V205.663H477.313L477.077 204.997L476.605 205.163ZM457.268 205.163L456.793 205.319L456.906 205.663H457.268V205.163ZM444.837 167.126L445.312 166.971L444.97 165.923L444.407 166.871L444.837 167.126ZM442.818 170.526L442.388 170.271L442.318 170.389V170.526H442.818ZM442.818 205.163V205.663H443.318V205.163H442.818ZM424.3 205.163V119.102H423.3V205.163H424.3ZM423.8 119.602H442.818V118.602H423.8V119.602ZM442.318 119.102V154.27H443.318V119.102H442.318ZM443.281 154.46L457.731 119.292L456.806 118.912L442.356 154.08L443.281 154.46ZM457.268 119.602H475.862V118.602H457.268V119.602ZM475.399 118.913L459.462 157.8L460.387 158.179L476.324 119.292L475.399 118.913ZM459.453 158.156L476.134 205.33L477.077 204.997L460.396 157.822L459.453 158.156ZM476.605 204.663H457.268V205.663H476.605V204.663ZM457.743 205.008L445.312 166.971L444.362 167.282L456.793 205.319L457.743 205.008ZM444.407 166.871L442.388 170.271L443.248 170.782L445.267 167.382L444.407 166.871ZM442.318 170.526V205.163H443.318V170.526H442.318ZM442.818 204.663H423.8V205.663H442.818V204.663ZM484.083 205.163H483.583V205.663H484.083V205.163ZM484.083 119.102V118.602H483.583V119.102H484.083ZM522.758 119.102H523.258V118.602H522.758V119.102ZM522.758 132.064V132.564H523.258V132.064H522.758ZM503.102 132.064V131.564H502.602V132.064H503.102ZM503.102 153.42H502.602V153.92H503.102V153.42ZM518.083 153.42H518.583V152.92H518.083V153.42ZM518.083 166.595V167.095H518.583V166.595H518.083ZM503.102 166.595V166.095H502.602V166.595H503.102ZM503.102 192.307H502.602V192.807H503.102V192.307ZM522.97 192.307H523.47V191.807H522.97V192.307ZM522.97 205.163V205.663H523.47V205.163H522.97ZM484.583 205.163V119.102H483.583V205.163H484.583ZM484.083 119.602H522.758V118.602H484.083V119.602ZM522.258 119.102V132.064H523.258V119.102H522.258ZM522.758 131.564H503.102V132.564H522.758V131.564ZM502.602 132.064V153.42H503.602V132.064H502.602ZM503.102 153.92H518.083V152.92H503.102V153.92ZM517.583 153.42V166.595H518.583V153.42H517.583ZM518.083 166.095H503.102V167.095H518.083V166.095ZM502.602 166.595V192.307H503.602V166.595H502.602ZM503.102 192.807H522.97V191.807H503.102V192.807ZM522.47 192.307V205.163H523.47V192.307H522.47ZM522.97 204.663H484.083V205.663H522.97V204.663ZM531.605 205.163H531.105V205.663H531.605V205.163ZM531.605 119.102V118.602H531.105V119.102H531.605ZM544.992 119.102L545.452 118.906L545.323 118.602H544.992V119.102ZM562.629 160.539L562.169 160.735L563.129 160.539H562.629ZM562.629 119.102V118.602H562.129V119.102H562.629ZM578.354 119.102H578.854V118.602H578.354V119.102ZM578.354 205.163V205.663H578.854V205.163H578.354ZM565.498 205.163L565.033 205.347L565.158 205.663H565.498V205.163ZM547.861 160.539L548.326 160.355L547.361 160.539H547.861ZM547.861 205.163V205.663H548.361V205.163H547.861ZM532.105 205.163V119.102H531.105V205.163H532.105ZM531.605 119.602H544.992V118.602H531.605V119.602ZM544.532 119.298L562.169 160.735L563.089 160.343L545.452 118.906L544.532 119.298ZM563.129 160.539V119.102H562.129V160.539H563.129ZM562.629 119.602H578.354V118.602H562.629V119.602ZM577.854 119.102V205.163H578.854V119.102H577.854ZM578.354 204.663H565.498V205.663H578.354V204.663ZM565.963 204.98L548.326 160.355L547.396 160.723L565.033 205.347L565.963 204.98ZM547.361 160.539V205.163H548.361V160.539H547.361ZM547.861 204.663H531.605V205.663H547.861V204.663Z" fill="black"/>
<path d="M636.562 119H661.232L634.67 205.327H610L636.562 119Z" fill="#FFAF3A" stroke="black"/>
<path d="M672.557 119H697.227L670.665 205.327H645.995L672.557 119Z" fill="#FFAF3A" stroke="black"/>
<path d="M728.815 205.163V119.102H747.833V192.307H767.595V205.163H728.815ZM776.24 205.163V119.102H795.258V153.952H808.645V119.102H827.664V205.163H808.645V167.551H795.258V205.163H776.24ZM865.632 206.438C859.044 206.438 853.874 205.376 850.12 203.251C846.436 201.055 843.851 197.903 842.363 193.795C840.876 189.616 840.132 184.516 840.132 178.495V119.102H858.938V181.364C858.938 183.135 859.08 184.905 859.363 186.676C859.647 188.447 860.249 189.899 861.169 191.032C862.161 192.166 863.649 192.732 865.632 192.732C867.686 192.732 869.173 192.166 870.094 191.032C871.015 189.899 871.582 188.447 871.794 186.676C872.078 184.905 872.219 183.135 872.219 181.364V119.102H891.132V178.495C891.132 184.516 890.352 189.616 888.794 193.795C887.307 197.903 884.721 201.055 881.038 203.251C877.355 205.376 872.219 206.438 865.632 206.438ZM903.232 205.163V119.102H916.62L934.257 160.539V119.102H949.982V205.163H937.125L919.488 160.539V205.163H903.232ZM970.546 205.163V133.233H957.583V119.102L1002.53 119.102V133.233H989.67V205.163H970.546ZM1045.04 205.163V133.233H1032.08V119.102H1077.02V133.233H1064.17V205.163H1045.04ZM1108.42 206.438C1101.98 206.438 1096.88 205.305 1093.12 203.038C1089.37 200.772 1086.68 197.514 1085.05 193.264C1083.42 189.014 1082.6 183.949 1082.6 178.07V146.089C1082.6 140.139 1083.42 135.075 1085.05 130.896C1086.68 126.717 1089.37 123.529 1093.12 121.333C1096.88 119.067 1101.98 117.933 1108.42 117.933C1114.94 117.933 1120.07 119.067 1123.83 121.333C1127.65 123.529 1130.38 126.717 1132.01 130.896C1133.64 135.075 1134.45 140.139 1134.45 146.089V178.07C1134.45 183.949 1133.64 189.014 1132.01 193.264C1130.38 197.514 1127.65 200.772 1123.83 203.038C1120.07 205.305 1114.94 206.438 1108.42 206.438ZM1108.42 192.945C1110.4 192.945 1111.86 192.449 1112.78 191.457C1113.7 190.466 1114.3 189.191 1114.58 187.632C1114.87 186.074 1115.01 184.48 1115.01 182.851V141.414C1115.01 139.714 1114.87 138.121 1114.58 136.633C1114.3 135.075 1113.7 133.8 1112.78 132.808C1111.86 131.817 1110.4 131.321 1108.42 131.321C1106.58 131.321 1105.2 131.817 1104.28 132.808C1103.36 133.8 1102.75 135.075 1102.47 136.633C1102.19 138.121 1102.05 139.714 1102.05 141.414V182.851C1102.05 184.48 1102.15 186.074 1102.37 187.632C1102.65 189.191 1103.22 190.466 1104.07 191.457C1104.99 192.449 1106.44 192.945 1108.42 192.945ZM1146.03 205.163V119.102H1165.05V154.27L1179.49 119.102H1198.09L1182.15 157.989L1198.83 205.163H1179.49L1167.06 167.126L1165.05 170.526V205.163H1146.03ZM1206.31 205.163V119.102H1244.98V132.064H1225.33V153.42H1240.31V166.595H1225.33V192.307H1245.2V205.163H1206.31ZM1253.83 205.163V119.102H1267.22L1284.86 160.539V119.102H1300.58V205.163H1287.72L1270.09 160.539V205.163H1253.83Z" fill="#FFAF3A"/>
<path d="M728.815 205.163H728.315V205.663H728.815V205.163ZM728.815 119.102V118.602H728.315V119.102H728.815ZM747.833 119.102H748.333V118.602H747.833V119.102ZM747.833 192.307H747.333V192.807H747.833V192.307ZM767.595 192.307H768.095V191.807H767.595V192.307ZM767.595 205.163V205.663H768.095V205.163H767.595ZM729.315 205.163V119.102H728.315V205.163H729.315ZM728.815 119.602H747.833V118.602H728.815V119.602ZM747.333 119.102V192.307H748.333V119.102H747.333ZM747.833 192.807H767.595V191.807H747.833V192.807ZM767.095 192.307V205.163H768.095V192.307H767.095ZM767.595 204.663H728.815V205.663H767.595V204.663ZM776.24 205.163H775.74V205.663H776.24V205.163ZM776.24 119.102V118.602H775.74V119.102H776.24ZM795.258 119.102H795.758V118.602H795.258V119.102ZM795.258 153.952H794.758V154.452H795.258V153.952ZM808.645 153.952V154.452H809.145V153.952H808.645ZM808.645 119.102V118.602H808.145V119.102H808.645ZM827.664 119.102H828.164V118.602H827.664V119.102ZM827.664 205.163V205.663H828.164V205.163H827.664ZM808.645 205.163H808.145V205.663H808.645V205.163ZM808.645 167.551H809.145V167.051H808.645V167.551ZM795.258 167.551V167.051H794.758V167.551H795.258ZM795.258 205.163V205.663H795.758V205.163H795.258ZM776.74 205.163V119.102H775.74V205.163H776.74ZM776.24 119.602H795.258V118.602H776.24V119.602ZM794.758 119.102V153.952H795.758V119.102H794.758ZM795.258 154.452H808.645V153.452H795.258V154.452ZM809.145 153.952V119.102H808.145V153.952H809.145ZM808.645 119.602H827.664V118.602H808.645V119.602ZM827.164 119.102V205.163H828.164V119.102H827.164ZM827.664 204.663H808.645V205.663H827.664V204.663ZM809.145 205.163V167.551H808.145V205.163H809.145ZM808.645 167.051H795.258V168.051H808.645V167.051ZM794.758 167.551V205.163H795.758V167.551H794.758ZM795.258 204.663H776.24V205.663H795.258V204.663ZM850.12 203.251L849.863 203.681L849.873 203.686L850.12 203.251ZM842.363 193.795L841.892 193.963L841.893 193.965L842.363 193.795ZM840.132 119.102V118.602H839.632V119.102H840.132ZM858.938 119.102H859.438V118.602H858.938V119.102ZM859.363 186.676L859.857 186.597L859.857 186.597L859.363 186.676ZM861.169 191.032L860.781 191.348L860.787 191.355L860.793 191.362L861.169 191.032ZM870.094 191.032L870.482 191.348L870.482 191.348L870.094 191.032ZM871.794 186.676L871.301 186.597L871.299 186.607L871.298 186.617L871.794 186.676ZM872.219 119.102V118.602H871.719V119.102H872.219ZM891.132 119.102H891.632V118.602H891.132V119.102ZM888.794 193.795L888.326 193.62L888.324 193.625L888.794 193.795ZM881.038 203.251L881.288 203.684L881.294 203.68L881.038 203.251ZM865.632 205.938C859.089 205.938 854.015 204.882 850.366 202.816L849.873 203.686C853.732 205.87 859 206.938 865.632 206.938V205.938ZM850.376 202.822C846.794 200.686 844.283 197.627 842.834 193.625L841.893 193.965C843.419 198.18 846.079 201.424 849.864 203.68L850.376 202.822ZM842.835 193.627C841.372 189.517 840.632 184.478 840.632 178.495H839.632C839.632 184.554 840.38 189.714 841.892 193.963L842.835 193.627ZM840.632 178.495V119.102H839.632V178.495H840.632ZM840.132 119.602H858.938V118.602H840.132V119.602ZM858.438 119.102V181.364H859.438V119.102H858.438ZM858.438 181.364C858.438 183.161 858.582 184.959 858.869 186.755L859.857 186.597C859.578 184.852 859.438 183.108 859.438 181.364H858.438ZM858.869 186.755C859.164 188.593 859.794 190.132 860.781 191.348L861.557 190.717C860.703 189.666 860.13 188.301 859.857 186.597L858.869 186.755ZM860.793 191.362C861.908 192.635 863.553 193.232 865.632 193.232V192.232C863.744 192.232 862.415 191.696 861.546 190.703L860.793 191.362ZM865.632 193.232C867.772 193.232 869.432 192.64 870.482 191.348L869.706 190.717C868.915 191.691 867.6 192.232 865.632 192.232V193.232ZM870.482 191.348C871.475 190.126 872.069 188.58 872.291 186.736L871.298 186.617C871.094 188.315 870.556 189.672 869.706 190.717L870.482 191.348ZM872.288 186.755C872.575 184.959 872.719 183.161 872.719 181.364H871.719C871.719 183.108 871.58 184.852 871.301 186.597L872.288 186.755ZM872.719 181.364V119.102H871.719V181.364H872.719ZM872.219 119.602H891.132V118.602H872.219V119.602ZM890.632 119.102V178.495H891.632V119.102H890.632ZM890.632 178.495C890.632 184.476 889.857 189.513 888.326 193.62L889.263 193.97C890.848 189.719 891.632 184.556 891.632 178.495H890.632ZM888.324 193.625C886.875 197.627 884.364 200.686 880.782 202.822L881.294 203.68C885.078 201.424 887.738 198.18 889.264 193.965L888.324 193.625ZM880.788 202.818C877.211 204.881 872.176 205.938 865.632 205.938V206.938C872.263 206.938 877.498 205.871 881.288 203.684L880.788 202.818ZM903.232 205.163H902.732V205.663H903.232V205.163ZM903.232 119.102V118.602H902.732V119.102H903.232ZM916.62 119.102L917.08 118.906L916.95 118.602H916.62V119.102ZM934.257 160.539L933.797 160.735L934.757 160.539H934.257ZM934.257 119.102V118.602H933.757V119.102H934.257ZM949.982 119.102H950.482V118.602H949.982V119.102ZM949.982 205.163V205.663H950.482V205.163H949.982ZM937.125 205.163L936.661 205.347L936.785 205.663H937.125V205.163ZM919.488 160.539L919.953 160.355L918.988 160.539H919.488ZM919.488 205.163V205.663H919.988V205.163H919.488ZM903.732 205.163V119.102H902.732V205.163H903.732ZM903.232 119.602H916.62V118.602H903.232V119.602ZM916.159 119.298L933.797 160.735L934.717 160.343L917.08 118.906L916.159 119.298ZM934.757 160.539V119.102H933.757V160.539H934.757ZM934.257 119.602H949.982V118.602H934.257V119.602ZM949.482 119.102V205.163H950.482V119.102H949.482ZM949.982 204.663H937.125V205.663H949.982V204.663ZM937.59 204.98L919.953 160.355L919.023 160.723L936.661 205.347L937.59 204.98ZM918.988 160.539V205.163H919.988V160.539H918.988ZM919.488 204.663H903.232V205.663H919.488V204.663ZM970.546 205.163H970.046V205.663H970.546V205.163ZM970.546 133.233H971.046V132.733H970.546V133.233ZM957.583 133.233H957.083V133.733H957.583V133.233ZM957.583 119.102V118.602H957.083V119.102H957.583ZM1002.53 119.102H1003.03V118.602H1002.53V119.102ZM1002.53 133.233V133.733H1003.03V133.233H1002.53ZM989.67 133.233V132.733H989.17V133.233H989.67ZM989.67 205.163V205.663H990.17V205.163H989.67ZM971.046 205.163V133.233H970.046V205.163H971.046ZM970.546 132.733H957.583V133.733H970.546V132.733ZM958.083 133.233V119.102H957.083V133.233H958.083ZM957.583 119.602L1002.53 119.602V118.602L957.583 118.602V119.602ZM1002.03 119.102V133.233H1003.03V119.102H1002.03ZM1002.53 132.733H989.67V133.733H1002.53V132.733ZM989.17 133.233V205.163H990.17V133.233H989.17ZM989.67 204.663H970.546V205.663H989.67V204.663ZM1045.04 205.163H1044.54V205.663H1045.04V205.163ZM1045.04 133.233H1045.54V132.733H1045.04V133.233ZM1032.08 133.233H1031.58V133.733H1032.08V133.233ZM1032.08 119.102V118.602H1031.58V119.102H1032.08ZM1077.02 119.102H1077.52V118.602H1077.02V119.102ZM1077.02 133.233V133.733H1077.52V133.233H1077.02ZM1064.17 133.233V132.733H1063.67V133.233H1064.17ZM1064.17 205.163V205.663H1064.67V205.163H1064.17ZM1045.54 205.163V133.233H1044.54V205.163H1045.54ZM1045.04 132.733H1032.08V133.733H1045.04V132.733ZM1032.58 133.233V119.102H1031.58V133.233H1032.58ZM1032.08 119.602H1077.02V118.602H1032.08V119.602ZM1076.52 119.102V133.233H1077.52V119.102H1076.52ZM1077.02 132.733H1064.17V133.733H1077.02V132.733ZM1063.67 133.233V205.163H1064.67V133.233H1063.67ZM1064.17 204.663H1045.04V205.663H1064.17V204.663ZM1093.12 203.038L1092.86 203.467L1092.86 203.467L1093.12 203.038ZM1085.05 130.896L1084.58 130.714L1084.58 130.714L1085.05 130.896ZM1093.12 121.333L1093.37 121.765L1093.38 121.761L1093.12 121.333ZM1123.83 121.333L1123.57 121.762L1123.58 121.767L1123.83 121.333ZM1132.01 130.896L1131.54 131.077L1131.54 131.077L1132.01 130.896ZM1132.01 193.264L1131.54 193.085L1131.54 193.085L1132.01 193.264ZM1123.83 203.038L1123.57 202.608L1123.57 202.61L1123.83 203.038ZM1112.78 191.457L1112.41 191.117L1112.41 191.117L1112.78 191.457ZM1114.58 187.632L1115.08 187.722L1115.08 187.722L1114.58 187.632ZM1114.58 136.633L1114.09 136.723L1114.09 136.727L1114.58 136.633ZM1112.78 132.808L1112.41 133.148L1112.41 133.148L1112.78 132.808ZM1104.28 132.808L1104.64 133.148L1104.64 133.148L1104.28 132.808ZM1102.47 136.633L1102.96 136.727L1102.96 136.723L1102.47 136.633ZM1102.37 187.632L1101.87 187.7L1101.87 187.711L1101.87 187.722L1102.37 187.632ZM1104.07 191.457L1103.69 191.783L1103.69 191.79L1103.7 191.798L1104.07 191.457ZM1108.42 205.938C1102.03 205.938 1097.03 204.813 1093.38 202.61L1092.86 203.467C1096.72 205.797 1101.92 206.938 1108.42 206.938V205.938ZM1093.38 202.61C1089.72 200.404 1087.1 197.235 1085.51 193.085L1084.58 193.443C1086.25 197.792 1089.01 201.14 1092.86 203.467L1093.38 202.61ZM1085.51 193.085C1083.91 188.906 1083.1 183.905 1083.1 178.07H1082.1C1082.1 183.993 1082.92 189.122 1084.58 193.443L1085.51 193.085ZM1083.1 178.07V146.089H1082.1V178.07H1083.1ZM1083.1 146.089C1083.1 140.182 1083.91 135.183 1085.51 131.077L1084.58 130.714C1082.92 134.967 1082.1 140.096 1082.1 146.089H1083.1ZM1085.51 131.077C1087.1 127 1089.72 123.902 1093.37 121.765L1092.87 120.902C1089.01 123.156 1086.25 126.434 1084.58 130.714L1085.51 131.077ZM1093.38 121.761C1097.03 119.559 1102.03 118.433 1108.42 118.433V117.433C1101.92 117.433 1096.72 118.575 1092.86 120.905L1093.38 121.761ZM1108.42 118.433C1114.89 118.433 1119.92 119.559 1123.57 121.761L1124.09 120.905C1120.22 118.574 1114.99 117.433 1108.42 117.433V118.433ZM1123.58 121.767C1127.3 123.905 1129.95 127.003 1131.54 131.077L1132.47 130.714C1130.8 126.431 1128 123.153 1124.08 120.9L1123.58 121.767ZM1131.54 131.077C1133.14 135.183 1133.95 140.182 1133.95 146.089H1134.95C1134.95 140.096 1134.13 134.967 1132.47 130.714L1131.54 131.077ZM1133.95 146.089V178.07H1134.95V146.089H1133.95ZM1133.95 178.07C1133.95 183.905 1133.14 188.906 1131.54 193.085L1132.48 193.443C1134.13 189.122 1134.95 183.993 1134.95 178.07H1133.95ZM1131.54 193.085C1129.95 197.232 1127.3 200.401 1123.57 202.608L1124.08 203.469C1128.01 201.143 1130.81 197.795 1132.48 193.443L1131.54 193.085ZM1123.57 202.61C1119.92 204.812 1114.89 205.938 1108.42 205.938V206.938C1114.99 206.938 1120.22 205.798 1124.09 203.467L1123.57 202.61ZM1108.42 193.445C1110.48 193.445 1112.09 192.931 1113.14 191.798L1112.41 191.117C1111.62 191.967 1110.33 192.445 1108.42 192.445V193.445ZM1113.14 191.798C1114.14 190.725 1114.78 189.358 1115.08 187.722L1114.09 187.543C1113.82 189.024 1113.26 190.207 1112.41 191.117L1113.14 191.798ZM1115.08 187.722C1115.36 186.133 1115.51 184.51 1115.51 182.851H1114.51C1114.51 184.451 1114.37 186.015 1114.09 187.543L1115.08 187.722ZM1115.51 182.851V141.414H1114.51V182.851H1115.51ZM1115.51 141.414C1115.51 139.687 1115.36 138.061 1115.07 136.54L1114.09 136.727C1114.37 138.18 1114.51 139.742 1114.51 141.414H1115.51ZM1115.08 136.544C1114.78 134.908 1114.14 133.541 1113.14 132.468L1112.41 133.148C1113.26 134.059 1113.82 135.242 1114.09 136.723L1115.08 136.544ZM1113.14 132.468C1112.09 131.335 1110.48 130.821 1108.42 130.821V131.821C1110.33 131.821 1111.62 132.298 1112.41 133.148L1113.14 132.468ZM1108.42 130.821C1106.49 130.821 1104.96 131.342 1103.91 132.468L1104.64 133.148C1105.44 132.291 1106.67 131.821 1108.42 131.821V130.821ZM1103.91 132.468C1102.92 133.541 1102.28 134.908 1101.98 136.544L1102.96 136.723C1103.23 135.242 1103.8 134.059 1104.64 133.148L1103.91 132.468ZM1101.98 136.54C1101.69 138.061 1101.55 139.687 1101.55 141.414H1102.55C1102.55 139.742 1102.69 138.18 1102.96 136.727L1101.98 136.54ZM1101.55 141.414V182.851H1102.55V141.414H1101.55ZM1101.55 182.851C1101.55 184.502 1101.65 186.119 1101.87 187.7L1102.86 187.565C1102.65 186.03 1102.55 184.459 1102.55 182.851H1101.55ZM1101.87 187.722C1102.17 189.349 1102.77 190.711 1103.69 191.783L1104.44 191.132C1103.66 190.221 1103.13 189.033 1102.86 187.543L1101.87 187.722ZM1103.7 191.798C1104.75 192.931 1106.36 193.445 1108.42 193.445V192.445C1106.51 192.445 1105.22 191.967 1104.43 191.117L1103.7 191.798ZM1146.03 205.163H1145.53V205.663H1146.03V205.163ZM1146.03 119.102V118.602H1145.53V119.102H1146.03ZM1165.05 119.102H1165.55V118.602H1165.05V119.102ZM1165.05 154.27H1164.55L1165.51 154.46L1165.05 154.27ZM1179.49 119.102V118.602H1179.16L1179.03 118.912L1179.49 119.102ZM1198.09 119.102L1198.55 119.292L1198.83 118.602H1198.09V119.102ZM1182.15 157.989L1181.69 157.8L1181.62 157.976L1181.68 158.156L1182.15 157.989ZM1198.83 205.163V205.663H1199.54L1199.3 204.997L1198.83 205.163ZM1179.49 205.163L1179.02 205.319L1179.13 205.663H1179.49V205.163ZM1167.06 167.126L1167.54 166.971L1167.2 165.923L1166.63 166.871L1167.06 167.126ZM1165.05 170.526L1164.62 170.271L1164.55 170.389V170.526H1165.05ZM1165.05 205.163V205.663H1165.55V205.163H1165.05ZM1146.53 205.163V119.102H1145.53V205.163H1146.53ZM1146.03 119.602H1165.05V118.602H1146.03V119.602ZM1164.55 119.102V154.27H1165.55V119.102H1164.55ZM1165.51 154.46L1179.96 119.292L1179.03 118.912L1164.58 154.08L1165.51 154.46ZM1179.49 119.602H1198.09V118.602H1179.49V119.602ZM1197.63 118.913L1181.69 157.8L1182.61 158.179L1198.55 119.292L1197.63 118.913ZM1181.68 158.156L1198.36 205.33L1199.3 204.997L1182.62 157.822L1181.68 158.156ZM1198.83 204.663H1179.49V205.663H1198.83V204.663ZM1179.97 205.008L1167.54 166.971L1166.59 167.282L1179.02 205.319L1179.97 205.008ZM1166.63 166.871L1164.62 170.271L1165.48 170.782L1167.49 167.382L1166.63 166.871ZM1164.55 170.526V205.163H1165.55V170.526H1164.55ZM1165.05 204.663H1146.03V205.663H1165.05V204.663ZM1206.31 205.163H1205.81V205.663H1206.31V205.163ZM1206.31 119.102V118.602H1205.81V119.102H1206.31ZM1244.98 119.102H1245.48V118.602H1244.98V119.102ZM1244.98 132.064V132.564H1245.48V132.064H1244.98ZM1225.33 132.064V131.564H1224.83V132.064H1225.33ZM1225.33 153.42H1224.83V153.92H1225.33V153.42ZM1240.31 153.42H1240.81V152.92H1240.31V153.42ZM1240.31 166.595V167.095H1240.81V166.595H1240.31ZM1225.33 166.595V166.095H1224.83V166.595H1225.33ZM1225.33 192.307H1224.83V192.807H1225.33V192.307ZM1245.2 192.307H1245.7V191.807H1245.2V192.307ZM1245.2 205.163V205.663H1245.7V205.163H1245.2ZM1206.81 205.163V119.102H1205.81V205.163H1206.81ZM1206.31 119.602H1244.98V118.602H1206.31V119.602ZM1244.48 119.102V132.064H1245.48V119.102H1244.48ZM1244.98 131.564H1225.33V132.564H1244.98V131.564ZM1224.83 132.064V153.42H1225.83V132.064H1224.83ZM1225.33 153.92H1240.31V152.92H1225.33V153.92ZM1239.81 153.42V166.595H1240.81V153.42H1239.81ZM1240.31 166.095H1225.33V167.095H1240.31V166.095ZM1224.83 166.595V192.307H1225.83V166.595H1224.83ZM1225.33 192.807H1245.2V191.807H1225.33V192.807ZM1244.7 192.307V205.163H1245.7V192.307H1244.7ZM1245.2 204.663H1206.31V205.663H1245.2V204.663ZM1253.83 205.163H1253.33V205.663H1253.83V205.163ZM1253.83 119.102V118.602H1253.33V119.102H1253.83ZM1267.22 119.102L1267.68 118.906L1267.55 118.602H1267.22V119.102ZM1284.86 160.539L1284.4 160.735L1285.36 160.539H1284.86ZM1284.86 119.102V118.602H1284.36V119.102H1284.86ZM1300.58 119.102H1301.08V118.602H1300.58V119.102ZM1300.58 205.163V205.663H1301.08V205.163H1300.58ZM1287.72 205.163L1287.26 205.347L1287.38 205.663H1287.72V205.163ZM1270.09 160.539L1270.55 160.355L1269.59 160.539H1270.09ZM1270.09 205.163V205.663H1270.59V205.163H1270.09ZM1254.33 205.163V119.102H1253.33V205.163H1254.33ZM1253.83 119.602H1267.22V118.602H1253.83V119.602ZM1266.76 119.298L1284.4 160.735L1285.32 160.343L1267.68 118.906L1266.76 119.298ZM1285.36 160.539V119.102H1284.36V160.539H1285.36ZM1284.86 119.602H1300.58V118.602H1284.86V119.602ZM1300.08 119.102V205.163H1301.08V119.102H1300.08ZM1300.58 204.663H1287.72V205.663H1300.58V204.663ZM1288.19 204.98L1270.55 160.355L1269.62 160.723L1287.26 205.347L1288.19 204.98ZM1269.59 160.539V205.163H1270.59V160.539H1269.59ZM1270.09 204.663H1253.83V205.663H1270.09V204.663Z" fill="black"/>
<path d="M1358.79 119H1383.46L1356.9 205.327H1332.23L1358.79 119Z" fill="#FFAF3A" stroke="black"/>
<path d="M1394.78 119H1419.45L1392.89 205.327H1368.22L1394.78 119Z" fill="#FFAF3A" stroke="black"/>
<path d="M1451.04 205.163V119.102H1470.06V192.307H1489.82V205.163H1451.04ZM1498.47 205.163V119.102H1517.48V153.952H1530.87V119.102H1549.89V205.163H1530.87V167.551H1517.48V205.163H1498.47ZM1587.86 206.438C1581.27 206.438 1576.1 205.376 1572.35 203.251C1568.66 201.055 1566.08 197.903 1564.59 193.795C1563.1 189.616 1562.36 184.516 1562.36 178.495V119.102H1581.17V181.364C1581.17 183.135 1581.31 184.905 1581.59 186.676C1581.87 188.447 1582.48 189.899 1583.4 191.032C1584.39 192.166 1585.88 192.732 1587.86 192.732C1589.91 192.732 1591.4 192.166 1592.32 191.032C1593.24 189.899 1593.81 188.447 1594.02 186.676C1594.3 184.905 1594.45 183.135 1594.45 181.364V119.102H1613.36V178.495C1613.36 184.516 1612.58 189.616 1611.02 193.795C1609.53 197.903 1606.95 201.055 1603.26 203.251C1599.58 205.376 1594.45 206.438 1587.86 206.438ZM1625.46 205.163V119.102H1638.85L1656.48 160.539V119.102H1672.21V205.163H1659.35L1641.72 160.539V205.163H1625.46ZM1692.77 205.163V133.233H1679.81V119.102L1724.75 119.102V133.233H1711.9V205.163H1692.77ZM1767.27 205.163V133.233H1754.31V119.102H1799.25V133.233H1786.4V205.163H1767.27ZM1830.65 206.438C1824.2 206.438 1819.1 205.305 1815.35 203.038C1811.59 200.772 1808.9 197.514 1807.27 193.264C1805.64 189.014 1804.83 183.949 1804.83 178.07V146.089C1804.83 140.139 1805.64 135.075 1807.27 130.896C1808.9 126.717 1811.59 123.529 1815.35 121.333C1819.1 119.067 1824.2 117.933 1830.65 117.933C1837.16 117.933 1842.3 119.067 1846.05 121.333C1849.88 123.529 1852.61 126.717 1854.24 130.896C1855.86 135.075 1856.68 140.139 1856.68 146.089V178.07C1856.68 183.949 1855.86 189.014 1854.24 193.264C1852.61 197.514 1849.88 200.772 1846.05 203.038C1842.3 205.305 1837.16 206.438 1830.65 206.438ZM1830.65 192.945C1832.63 192.945 1834.08 192.449 1835 191.457C1835.93 190.466 1836.53 189.191 1836.81 187.632C1837.09 186.074 1837.24 184.48 1837.24 182.851V141.414C1837.24 139.714 1837.09 138.121 1836.81 136.633C1836.53 135.075 1835.93 133.8 1835 132.808C1834.08 131.817 1832.63 131.321 1830.65 131.321C1828.81 131.321 1827.43 131.817 1826.5 132.808C1825.58 133.8 1824.98 135.075 1824.7 136.633C1824.41 138.121 1824.27 139.714 1824.27 141.414V182.851C1824.27 184.48 1824.38 186.074 1824.59 187.632C1824.88 189.191 1825.44 190.466 1826.29 191.457C1827.21 192.449 1828.66 192.945 1830.65 192.945ZM1868.25 205.163V119.102H1887.27V154.27L1901.72 119.102H1920.32L1904.38 157.989L1921.06 205.163H1901.72L1889.29 167.126L1887.27 170.526V205.163H1868.25ZM1928.54 205.163V119.102H1967.21V132.064H1947.56V153.42H1962.54V166.595H1947.56V192.307H1967.42V205.163H1928.54ZM1976.06 205.163V119.102H1989.45L2007.08 160.539V119.102H2022.81V205.163H2009.95L1992.31 160.539V205.163H1976.06Z" fill="#FFAF3A"/>
<path d="M1451.04 205.163H1450.54V205.663H1451.04V205.163ZM1451.04 119.102V118.602H1450.54V119.102H1451.04ZM1470.06 119.102H1470.56V118.602H1470.06V119.102ZM1470.06 192.307H1469.56V192.807H1470.06V192.307ZM1489.82 192.307H1490.32V191.807H1489.82V192.307ZM1489.82 205.163V205.663H1490.32V205.163H1489.82ZM1451.54 205.163V119.102H1450.54V205.163H1451.54ZM1451.04 119.602H1470.06V118.602H1451.04V119.602ZM1469.56 119.102V192.307H1470.56V119.102H1469.56ZM1470.06 192.807H1489.82V191.807H1470.06V192.807ZM1489.32 192.307V205.163H1490.32V192.307H1489.32ZM1489.82 204.663H1451.04V205.663H1489.82V204.663ZM1498.47 205.163H1497.97V205.663H1498.47V205.163ZM1498.47 119.102V118.602H1497.97V119.102H1498.47ZM1517.48 119.102H1517.98V118.602H1517.48V119.102ZM1517.48 153.952H1516.98V154.452H1517.48V153.952ZM1530.87 153.952V154.452H1531.37V153.952H1530.87ZM1530.87 119.102V118.602H1530.37V119.102H1530.87ZM1549.89 119.102H1550.39V118.602H1549.89V119.102ZM1549.89 205.163V205.663H1550.39V205.163H1549.89ZM1530.87 205.163H1530.37V205.663H1530.87V205.163ZM1530.87 167.551H1531.37V167.051H1530.87V167.551ZM1517.48 167.551V167.051H1516.98V167.551H1517.48ZM1517.48 205.163V205.663H1517.98V205.163H1517.48ZM1498.97 205.163V119.102H1497.97V205.163H1498.97ZM1498.47 119.602H1517.48V118.602H1498.47V119.602ZM1516.98 119.102V153.952H1517.98V119.102H1516.98ZM1517.48 154.452H1530.87V153.452H1517.48V154.452ZM1531.37 153.952V119.102H1530.37V153.952H1531.37ZM1530.87 119.602H1549.89V118.602H1530.87V119.602ZM1549.39 119.102V205.163H1550.39V119.102H1549.39ZM1549.89 204.663H1530.87V205.663H1549.89V204.663ZM1531.37 205.163V167.551H1530.37V205.163H1531.37ZM1530.87 167.051H1517.48V168.051H1530.87V167.051ZM1516.98 167.551V205.163H1517.98V167.551H1516.98ZM1517.48 204.663H1498.47V205.663H1517.48V204.663ZM1572.35 203.251L1572.09 203.681L1572.1 203.686L1572.35 203.251ZM1564.59 193.795L1564.12 193.963L1564.12 193.965L1564.59 193.795ZM1562.36 119.102V118.602H1561.86V119.102H1562.36ZM1581.17 119.102H1581.67V118.602H1581.17V119.102ZM1581.59 186.676L1582.08 186.597L1582.08 186.597L1581.59 186.676ZM1583.4 191.032L1583.01 191.348L1583.01 191.355L1583.02 191.362L1583.4 191.032ZM1592.32 191.032L1592.71 191.348L1592.71 191.348L1592.32 191.032ZM1594.02 186.676L1593.53 186.597L1593.53 186.607L1593.52 186.617L1594.02 186.676ZM1594.45 119.102V118.602H1593.95V119.102H1594.45ZM1613.36 119.102H1613.86V118.602H1613.36V119.102ZM1611.02 193.795L1610.55 193.62L1610.55 193.625L1611.02 193.795ZM1603.26 203.251L1603.51 203.684L1603.52 203.68L1603.26 203.251ZM1587.86 205.938C1581.32 205.938 1576.24 204.882 1572.59 202.816L1572.1 203.686C1575.96 205.87 1581.23 206.938 1587.86 206.938V205.938ZM1572.6 202.822C1569.02 200.686 1566.51 197.627 1565.06 193.625L1564.12 193.965C1565.65 198.18 1568.31 201.424 1572.09 203.68L1572.6 202.822ZM1565.06 193.627C1563.6 189.517 1562.86 184.478 1562.86 178.495H1561.86C1561.86 184.554 1562.61 189.714 1564.12 193.963L1565.06 193.627ZM1562.86 178.495V119.102H1561.86V178.495H1562.86ZM1562.36 119.602H1581.17V118.602H1562.36V119.602ZM1580.67 119.102V181.364H1581.67V119.102H1580.67ZM1580.67 181.364C1580.67 183.161 1580.81 184.959 1581.1 186.755L1582.08 186.597C1581.8 184.852 1581.67 183.108 1581.67 181.364H1580.67ZM1581.1 186.755C1581.39 188.593 1582.02 190.132 1583.01 191.348L1583.78 190.717C1582.93 189.666 1582.36 188.301 1582.08 186.597L1581.1 186.755ZM1583.02 191.362C1584.13 192.635 1585.78 193.232 1587.86 193.232V192.232C1585.97 192.232 1584.64 191.696 1583.77 190.703L1583.02 191.362ZM1587.86 193.232C1590 193.232 1591.66 192.64 1592.71 191.348L1591.93 190.717C1591.14 191.691 1589.83 192.232 1587.86 192.232V193.232ZM1592.71 191.348C1593.7 190.126 1594.3 188.58 1594.52 186.736L1593.52 186.617C1593.32 188.315 1592.78 189.672 1591.93 190.717L1592.71 191.348ZM1594.51 186.755C1594.8 184.959 1594.95 183.161 1594.95 181.364H1593.95C1593.95 183.108 1593.81 184.852 1593.53 186.597L1594.51 186.755ZM1594.95 181.364V119.102H1593.95V181.364H1594.95ZM1594.45 119.602H1613.36V118.602H1594.45V119.602ZM1612.86 119.102V178.495H1613.86V119.102H1612.86ZM1612.86 178.495C1612.86 184.476 1612.08 189.513 1610.55 193.62L1611.49 193.97C1613.07 189.719 1613.86 184.556 1613.86 178.495H1612.86ZM1610.55 193.625C1609.1 197.627 1606.59 200.686 1603.01 202.822L1603.52 203.68C1607.31 201.424 1609.97 198.18 1611.49 193.965L1610.55 193.625ZM1603.01 202.818C1599.44 204.881 1594.4 205.938 1587.86 205.938V206.938C1594.49 206.938 1599.72 205.871 1603.51 203.684L1603.01 202.818ZM1625.46 205.163H1624.96V205.663H1625.46V205.163ZM1625.46 119.102V118.602H1624.96V119.102H1625.46ZM1638.85 119.102L1639.31 118.906L1639.18 118.602H1638.85V119.102ZM1656.48 160.539L1656.02 160.735L1656.98 160.539H1656.48ZM1656.48 119.102V118.602H1655.98V119.102H1656.48ZM1672.21 119.102H1672.71V118.602H1672.21V119.102ZM1672.21 205.163V205.663H1672.71V205.163H1672.21ZM1659.35 205.163L1658.89 205.347L1659.01 205.663H1659.35V205.163ZM1641.72 160.539L1642.18 160.355L1641.22 160.539H1641.72ZM1641.72 205.163V205.663H1642.22V205.163H1641.72ZM1625.96 205.163V119.102H1624.96V205.163H1625.96ZM1625.46 119.602H1638.85V118.602H1625.46V119.602ZM1638.39 119.298L1656.02 160.735L1656.94 160.343L1639.31 118.906L1638.39 119.298ZM1656.98 160.539V119.102H1655.98V160.539H1656.98ZM1656.48 119.602H1672.21V118.602H1656.48V119.602ZM1671.71 119.102V205.163H1672.71V119.102H1671.71ZM1672.21 204.663H1659.35V205.663H1672.21V204.663ZM1659.82 204.98L1642.18 160.355L1641.25 160.723L1658.89 205.347L1659.82 204.98ZM1641.22 160.539V205.163H1642.22V160.539H1641.22ZM1641.72 204.663H1625.46V205.663H1641.72V204.663ZM1692.77 205.163H1692.27V205.663H1692.77V205.163ZM1692.77 133.233H1693.27V132.733H1692.77V133.233ZM1679.81 133.233H1679.31V133.733H1679.81V133.233ZM1679.81 119.102V118.602H1679.31V119.102H1679.81ZM1724.75 119.102H1725.25V118.602H1724.75V119.102ZM1724.75 133.233V133.733H1725.25V133.233H1724.75ZM1711.9 133.233V132.733H1711.4V133.233H1711.9ZM1711.9 205.163V205.663H1712.4V205.163H1711.9ZM1693.27 205.163V133.233H1692.27V205.163H1693.27ZM1692.77 132.733H1679.81V133.733H1692.77V132.733ZM1680.31 133.233V119.102H1679.31V133.233H1680.31ZM1679.81 119.602L1724.75 119.602V118.602L1679.81 118.602V119.602ZM1724.25 119.102V133.233H1725.25V119.102H1724.25ZM1724.75 132.733H1711.9V133.733H1724.75V132.733ZM1711.4 133.233V205.163H1712.4V133.233H1711.4ZM1711.9 204.663H1692.77V205.663H1711.9V204.663ZM1767.27 205.163H1766.77V205.663H1767.27V205.163ZM1767.27 133.233H1767.77V132.733H1767.27V133.233ZM1754.31 133.233H1753.81V133.733H1754.31V133.233ZM1754.31 119.102V118.602H1753.81V119.102H1754.31ZM1799.25 119.102H1799.75V118.602H1799.25V119.102ZM1799.25 133.233V133.733H1799.75V133.233H1799.25ZM1786.4 133.233V132.733H1785.9V133.233H1786.4ZM1786.4 205.163V205.663H1786.9V205.163H1786.4ZM1767.77 205.163V133.233H1766.77V205.163H1767.77ZM1767.27 132.733H1754.31V133.733H1767.27V132.733ZM1754.81 133.233V119.102H1753.81V133.233H1754.81ZM1754.31 119.602H1799.25V118.602H1754.31V119.602ZM1798.75 119.102V133.233H1799.75V119.102H1798.75ZM1799.25 132.733H1786.4V133.733H1799.25V132.733ZM1785.9 133.233V205.163H1786.9V133.233H1785.9ZM1786.4 204.663H1767.27V205.663H1786.4V204.663ZM1815.35 203.038L1815.09 203.467L1815.09 203.467L1815.35 203.038ZM1807.27 130.896L1806.81 130.714L1806.81 130.714L1807.27 130.896ZM1815.35 121.333L1815.6 121.765L1815.61 121.761L1815.35 121.333ZM1846.05 121.333L1845.8 121.762L1845.81 121.767L1846.05 121.333ZM1854.24 130.896L1853.77 131.077L1853.77 131.077L1854.24 130.896ZM1854.24 193.264L1853.77 193.085L1853.77 193.085L1854.24 193.264ZM1846.05 203.038L1845.8 202.608L1845.8 202.61L1846.05 203.038ZM1835 191.457L1834.64 191.117L1834.64 191.117L1835 191.457ZM1836.81 187.632L1837.3 187.722L1837.3 187.722L1836.81 187.632ZM1836.81 136.633L1836.32 136.723L1836.32 136.727L1836.81 136.633ZM1835 132.808L1834.64 133.148L1834.64 133.148L1835 132.808ZM1826.5 132.808L1826.87 133.148L1826.87 133.148L1826.5 132.808ZM1824.7 136.633L1825.19 136.727L1825.19 136.723L1824.7 136.633ZM1824.59 187.632L1824.1 187.7L1824.1 187.711L1824.1 187.722L1824.59 187.632ZM1826.29 191.457L1825.91 191.783L1825.92 191.79L1825.93 191.798L1826.29 191.457ZM1830.65 205.938C1824.25 205.938 1819.25 204.813 1815.61 202.61L1815.09 203.467C1818.95 205.797 1824.15 206.938 1830.65 206.938V205.938ZM1815.61 202.61C1811.95 200.404 1809.33 197.235 1807.74 193.085L1806.81 193.443C1808.47 197.792 1811.24 201.14 1815.09 203.467L1815.61 202.61ZM1807.74 193.085C1806.14 188.906 1805.33 183.905 1805.33 178.07H1804.33C1804.33 183.993 1805.15 189.122 1806.81 193.443L1807.74 193.085ZM1805.33 178.07V146.089H1804.33V178.07H1805.33ZM1805.33 146.089C1805.33 140.182 1806.14 135.183 1807.74 131.077L1806.81 130.714C1805.15 134.967 1804.33 140.096 1804.33 146.089H1805.33ZM1807.74 131.077C1809.33 127 1811.95 123.902 1815.6 121.765L1815.1 120.902C1811.24 123.156 1808.48 126.434 1806.81 130.714L1807.74 131.077ZM1815.61 121.761C1819.25 119.559 1824.25 118.433 1830.65 118.433V117.433C1824.15 117.433 1818.95 118.575 1815.09 120.905L1815.61 121.761ZM1830.65 118.433C1837.11 118.433 1842.15 119.559 1845.8 121.761L1846.31 120.905C1842.45 118.574 1837.21 117.433 1830.65 117.433V118.433ZM1845.81 121.767C1849.53 123.905 1852.18 127.003 1853.77 131.077L1854.7 130.714C1853.03 126.431 1850.23 123.153 1846.3 120.9L1845.81 121.767ZM1853.77 131.077C1855.37 135.183 1856.18 140.182 1856.18 146.089H1857.18C1857.18 140.096 1856.36 134.967 1854.7 130.714L1853.77 131.077ZM1856.18 146.089V178.07H1857.18V146.089H1856.18ZM1856.18 178.07C1856.18 183.905 1855.37 188.906 1853.77 193.085L1854.7 193.443C1856.36 189.122 1857.18 183.993 1857.18 178.07H1856.18ZM1853.77 193.085C1852.18 197.232 1849.52 200.401 1845.8 202.608L1846.31 203.469C1850.23 201.143 1853.03 197.795 1854.7 193.443L1853.77 193.085ZM1845.8 202.61C1842.15 204.812 1837.11 205.938 1830.65 205.938V206.938C1837.21 206.938 1842.45 205.798 1846.31 203.467L1845.8 202.61ZM1830.65 193.445C1832.71 193.445 1834.32 192.931 1835.37 191.798L1834.64 191.117C1833.85 191.967 1832.56 192.445 1830.65 192.445V193.445ZM1835.37 191.798C1836.37 190.725 1837.01 189.358 1837.3 187.722L1836.32 187.543C1836.05 189.024 1835.48 190.207 1834.64 191.117L1835.37 191.798ZM1837.3 187.722C1837.59 186.133 1837.74 184.51 1837.74 182.851H1836.74C1836.74 184.451 1836.6 186.015 1836.32 187.543L1837.3 187.722ZM1837.74 182.851V141.414H1836.74V182.851H1837.74ZM1837.74 141.414C1837.74 139.687 1837.59 138.061 1837.3 136.54L1836.32 136.727C1836.6 138.18 1836.74 139.742 1836.74 141.414H1837.74ZM1837.3 136.544C1837.01 134.908 1836.37 133.541 1835.37 132.468L1834.64 133.148C1835.48 134.059 1836.05 135.242 1836.32 136.723L1837.3 136.544ZM1835.37 132.468C1834.32 131.335 1832.71 130.821 1830.65 130.821V131.821C1832.56 131.821 1833.85 132.298 1834.64 133.148L1835.37 132.468ZM1830.65 130.821C1828.72 130.821 1827.18 131.342 1826.14 132.468L1826.87 133.148C1827.67 132.291 1828.89 131.821 1830.65 131.821V130.821ZM1826.14 132.468C1825.14 133.541 1824.5 134.908 1824.21 136.544L1825.19 136.723C1825.46 135.242 1826.03 134.059 1826.87 133.148L1826.14 132.468ZM1824.21 136.54C1823.92 138.061 1823.77 139.687 1823.77 141.414H1824.77C1824.77 139.742 1824.91 138.18 1825.19 136.727L1824.21 136.54ZM1823.77 141.414V182.851H1824.77V141.414H1823.77ZM1823.77 182.851C1823.77 184.502 1823.88 186.119 1824.1 187.7L1825.09 187.565C1824.88 186.03 1824.77 184.459 1824.77 182.851H1823.77ZM1824.1 187.722C1824.4 189.349 1824.99 190.711 1825.91 191.783L1826.67 191.132C1825.89 190.221 1825.35 189.033 1825.08 187.543L1824.1 187.722ZM1825.93 191.798C1826.98 192.931 1828.59 193.445 1830.65 193.445V192.445C1828.74 192.445 1827.45 191.967 1826.66 191.117L1825.93 191.798ZM1868.25 205.163H1867.75V205.663H1868.25V205.163ZM1868.25 119.102V118.602H1867.75V119.102H1868.25ZM1887.27 119.102H1887.77V118.602H1887.27V119.102ZM1887.27 154.27H1886.77L1887.73 154.46L1887.27 154.27ZM1901.72 119.102V118.602H1901.39L1901.26 118.912L1901.72 119.102ZM1920.32 119.102L1920.78 119.292L1921.06 118.602H1920.32V119.102ZM1904.38 157.989L1903.92 157.8L1903.84 157.976L1903.91 158.156L1904.38 157.989ZM1921.06 205.163V205.663H1921.77L1921.53 204.997L1921.06 205.163ZM1901.72 205.163L1901.25 205.319L1901.36 205.663H1901.72V205.163ZM1889.29 167.126L1889.77 166.971L1889.42 165.923L1888.86 166.871L1889.29 167.126ZM1887.27 170.526L1886.84 170.271L1886.77 170.389V170.526H1887.27ZM1887.27 205.163V205.663H1887.77V205.163H1887.27ZM1868.75 205.163V119.102H1867.75V205.163H1868.75ZM1868.25 119.602H1887.27V118.602H1868.25V119.602ZM1886.77 119.102V154.27H1887.77V119.102H1886.77ZM1887.73 154.46L1902.18 119.292L1901.26 118.912L1886.81 154.08L1887.73 154.46ZM1901.72 119.602H1920.32V118.602H1901.72V119.602ZM1919.85 118.913L1903.92 157.8L1904.84 158.179L1920.78 119.292L1919.85 118.913ZM1903.91 158.156L1920.59 205.33L1921.53 204.997L1904.85 157.822L1903.91 158.156ZM1921.06 204.663H1901.72V205.663H1921.06V204.663ZM1902.2 205.008L1889.77 166.971L1888.82 167.282L1901.25 205.319L1902.2 205.008ZM1888.86 166.871L1886.84 170.271L1887.7 170.782L1889.72 167.382L1888.86 166.871ZM1886.77 170.526V205.163H1887.77V170.526H1886.77ZM1887.27 204.663H1868.25V205.663H1887.27V204.663ZM1928.54 205.163H1928.04V205.663H1928.54V205.163ZM1928.54 119.102V118.602H1928.04V119.102H1928.54ZM1967.21 119.102H1967.71V118.602H1967.21V119.102ZM1967.21 132.064V132.564H1967.71V132.064H1967.21ZM1947.56 132.064V131.564H1947.06V132.064H1947.56ZM1947.56 153.42H1947.06V153.92H1947.56V153.42ZM1962.54 153.42H1963.04V152.92H1962.54V153.42ZM1962.54 166.595V167.095H1963.04V166.595H1962.54ZM1947.56 166.595V166.095H1947.06V166.595H1947.56ZM1947.56 192.307H1947.06V192.807H1947.56V192.307ZM1967.42 192.307H1967.92V191.807H1967.42V192.307ZM1967.42 205.163V205.663H1967.92V205.163H1967.42ZM1929.04 205.163V119.102H1928.04V205.163H1929.04ZM1928.54 119.602H1967.21V118.602H1928.54V119.602ZM1966.71 119.102V132.064H1967.71V119.102H1966.71ZM1967.21 131.564H1947.56V132.564H1967.21V131.564ZM1947.06 132.064V153.42H1948.06V132.064H1947.06ZM1947.56 153.92H1962.54V152.92H1947.56V153.92ZM1962.04 153.42V166.595H1963.04V153.42H1962.04ZM1962.54 166.095H1947.56V167.095H1962.54V166.095ZM1947.06 166.595V192.307H1948.06V166.595H1947.06ZM1947.56 192.807H1967.42V191.807H1947.56V192.807ZM1966.92 192.307V205.163H1967.92V192.307H1966.92ZM1967.42 204.663H1928.54V205.663H1967.42V204.663ZM1976.06 205.163H1975.56V205.663H1976.06V205.163ZM1976.06 119.102V118.602H1975.56V119.102H1976.06ZM1989.45 119.102L1989.91 118.906L1989.78 118.602H1989.45V119.102ZM2007.08 160.539L2006.62 160.735L2007.58 160.539H2007.08ZM2007.08 119.102V118.602H2006.58V119.102H2007.08ZM2022.81 119.102H2023.31V118.602H2022.81V119.102ZM2022.81 205.163V205.663H2023.31V205.163H2022.81ZM2009.95 205.163L2009.49 205.347L2009.61 205.663H2009.95V205.163ZM1992.31 160.539L1992.78 160.355L1991.81 160.539H1992.31ZM1992.31 205.163V205.663H1992.81V205.163H1992.31ZM1976.56 205.163V119.102H1975.56V205.163H1976.56ZM1976.06 119.602H1989.45V118.602H1976.06V119.602ZM1988.99 119.298L2006.62 160.735L2007.54 160.343L1989.91 118.906L1988.99 119.298ZM2007.58 160.539V119.102H2006.58V160.539H2007.58ZM2007.08 119.602H2022.81V118.602H2007.08V119.602ZM2022.31 119.102V205.163H2023.31V119.102H2022.31ZM2022.81 204.663H2009.95V205.663H2022.81V204.663ZM2010.42 204.98L1992.78 160.355L1991.85 160.723L2009.49 205.347L2010.42 204.98ZM1991.81 160.539V205.163H1992.81V160.539H1991.81ZM1992.31 204.663H1976.06V205.663H1992.31V204.663Z" fill="black"/>
<path d="M287.588 88.1635V2.10216H306.606V75.3074H326.368V88.1635H287.588ZM335.013 88.1635V2.10216H354.031V36.9517H367.419V2.10216H386.437V88.1635H367.419V50.5515H354.031V88.1635H335.013ZM424.405 89.4384C417.818 89.4384 412.647 88.3759 408.893 86.251C405.21 84.0552 402.624 80.9031 401.137 76.7949C399.649 72.6158 398.905 67.5158 398.905 61.4951V2.10216H417.711V64.3638C417.711 66.1346 417.853 67.9054 418.136 69.6762C418.42 71.447 419.022 72.8991 419.943 74.0324C420.934 75.1657 422.422 75.7324 424.405 75.7324C426.459 75.7324 427.947 75.1657 428.868 74.0324C429.788 72.8991 430.355 71.447 430.568 69.6762C430.851 67.9054 430.993 66.1346 430.993 64.3638V2.10216H449.905V61.4951C449.905 67.5158 449.126 72.6158 447.567 76.7949C446.08 80.9031 443.494 84.0552 439.811 86.251C436.128 88.3759 430.993 89.4384 424.405 89.4384ZM462.005 88.1635V2.10216H475.393L493.03 43.5391V2.10216H508.755V88.1635H495.899L478.262 43.5391V88.1635H462.005ZM529.319 88.1635V16.2332H516.357V2.10216H561.3V16.2332H548.444V88.1635H529.319ZM603.817 88.1635V16.2332H590.855V2.10216H635.798V16.2332H622.942V88.1635H603.817ZM667.195 89.4384C660.749 89.4384 655.649 88.3051 651.895 86.0385C648.141 83.7718 645.449 80.5136 643.82 76.2636C642.191 72.0137 641.376 66.9492 641.376 61.0701V29.0893C641.376 23.1394 642.191 18.0748 643.82 13.8957C645.449 9.71664 648.141 6.52918 651.895 4.33338C655.649 2.06674 660.749 0.933426 667.195 0.933426C673.711 0.933426 678.846 2.06674 682.601 4.33338C686.426 6.52918 689.153 9.71664 690.782 13.8957C692.411 18.0748 693.225 23.1394 693.225 29.0893V61.0701C693.225 66.9492 692.411 72.0137 690.782 76.2636C689.153 80.5136 686.426 83.7718 682.601 86.0385C678.846 88.3051 673.711 89.4384 667.195 89.4384ZM667.195 75.9449C669.178 75.9449 670.63 75.449 671.551 74.4574C672.472 73.4657 673.074 72.1908 673.357 70.6324C673.64 69.0741 673.782 67.4804 673.782 65.8513V24.4143C673.782 22.7144 673.64 21.1206 673.357 19.6332C673.074 18.0748 672.472 16.7999 671.551 15.8082C670.63 14.8166 669.178 14.3207 667.195 14.3207C665.353 14.3207 663.972 14.8166 663.051 15.8082C662.13 16.7999 661.528 18.0748 661.245 19.6332C660.961 21.1206 660.82 22.7144 660.82 24.4143V65.8513C660.82 67.4804 660.926 69.0741 661.138 70.6324C661.422 72.1908 661.988 73.4657 662.838 74.4574C663.759 75.449 665.211 75.9449 667.195 75.9449ZM704.8 88.1635V2.10216H723.818V37.2704L738.268 2.10216H756.862L740.924 40.9891L757.605 88.1635H738.268L725.837 50.1265L723.818 53.5264V88.1635H704.8ZM765.083 88.1635V2.10216H803.758V15.0645H784.102V36.4204H799.083V49.5952H784.102V75.3074H803.97V88.1635H765.083ZM812.605 88.1635V2.10216H825.992L843.629 43.5391V2.10216H859.354V88.1635H846.498L828.861 43.5391V88.1635H812.605Z" fill="#FFAF3A"/>
<path d="M917.562 2H942.232L915.67 88.3269H891L917.562 2Z" fill="#FFAF3A"/>
<path d="M953.557 2H978.227L951.665 88.3269H926.995L953.557 2Z" fill="#FFAF3A"/>
<path d="M1009.81 88.1635V2.10216H1028.83V75.3074H1048.6V88.1635H1009.81ZM1057.24 88.1635V2.10216H1076.26V36.9517H1089.65V2.10216H1108.66V88.1635H1089.65V50.5515H1076.26V88.1635H1057.24ZM1146.63 89.4384C1140.04 89.4384 1134.87 88.3759 1131.12 86.251C1127.44 84.0552 1124.85 80.9031 1123.36 76.7949C1121.88 72.6158 1121.13 67.5158 1121.13 61.4951V2.10216H1139.94V64.3638C1139.94 66.1346 1140.08 67.9054 1140.36 69.6762C1140.65 71.447 1141.25 72.8991 1142.17 74.0324C1143.16 75.1657 1144.65 75.7324 1146.63 75.7324C1148.69 75.7324 1150.17 75.1657 1151.09 74.0324C1152.02 72.8991 1152.58 71.447 1152.79 69.6762C1153.08 67.9054 1153.22 66.1346 1153.22 64.3638V2.10216H1172.13V61.4951C1172.13 67.5158 1171.35 72.6158 1169.79 76.7949C1168.31 80.9031 1165.72 84.0552 1162.04 86.251C1158.35 88.3759 1153.22 89.4384 1146.63 89.4384ZM1184.23 88.1635V2.10216H1197.62L1215.26 43.5391V2.10216H1230.98V88.1635H1218.13L1200.49 43.5391V88.1635H1184.23ZM1251.55 88.1635V16.2332H1238.58V2.10216H1283.53V16.2332H1270.67V88.1635H1251.55ZM1326.04 88.1635V16.2332H1313.08V2.10216H1358.02V16.2332H1345.17V88.1635H1326.04ZM1389.42 89.4384C1382.98 89.4384 1377.88 88.3051 1374.12 86.0385C1370.37 83.7718 1367.68 80.5136 1366.05 76.2636C1364.42 72.0137 1363.6 66.9492 1363.6 61.0701V29.0893C1363.6 23.1394 1364.42 18.0748 1366.05 13.8957C1367.68 9.71664 1370.37 6.52918 1374.12 4.33338C1377.88 2.06674 1382.98 0.933426 1389.42 0.933426C1395.94 0.933426 1401.07 2.06674 1404.83 4.33338C1408.65 6.52918 1411.38 9.71664 1413.01 13.8957C1414.64 18.0748 1415.45 23.1394 1415.45 29.0893V61.0701C1415.45 66.9492 1414.64 72.0137 1413.01 76.2636C1411.38 80.5136 1408.65 83.7718 1404.83 86.0385C1401.07 88.3051 1395.94 89.4384 1389.42 89.4384ZM1389.42 75.9449C1391.4 75.9449 1392.86 75.449 1393.78 74.4574C1394.7 73.4657 1395.3 72.1908 1395.58 70.6324C1395.87 69.0741 1396.01 67.4804 1396.01 65.8513V24.4143C1396.01 22.7144 1395.87 21.1206 1395.58 19.6332C1395.3 18.0748 1394.7 16.7999 1393.78 15.8082C1392.86 14.8166 1391.4 14.3207 1389.42 14.3207C1387.58 14.3207 1386.2 14.8166 1385.28 15.8082C1384.36 16.7999 1383.75 18.0748 1383.47 19.6332C1383.19 21.1206 1383.05 22.7144 1383.05 24.4143V65.8513C1383.05 67.4804 1383.15 69.0741 1383.37 70.6324C1383.65 72.1908 1384.22 73.4657 1385.07 74.4574C1385.99 75.449 1387.44 75.9449 1389.42 75.9449ZM1427.03 88.1635V2.10216H1446.05V37.2704L1460.49 2.10216H1479.09L1463.15 40.9891L1479.83 88.1635H1460.49L1448.06 50.1265L1446.05 53.5264V88.1635H1427.03ZM1487.31 88.1635V2.10216H1525.98V15.0645H1506.33V36.4204H1521.31V49.5952H1506.33V75.3074H1526.2V88.1635H1487.31ZM1534.83 88.1635V2.10216H1548.22L1565.86 43.5391V2.10216H1581.58V88.1635H1568.72L1551.09 43.5391V88.1635H1534.83Z" fill="#FFAF3A"/>
<path d="M1639.79 2H1664.46L1637.9 88.3269H1613.23L1639.79 2Z" fill="#FFAF3A"/>
<path d="M1675.78 2H1700.45L1673.89 88.3269H1649.22L1675.78 2Z" fill="#FFAF3A"/>
<path d="M1732.04 88.1635V2.10216H1751.06V75.3074H1770.82V88.1635H1732.04ZM1779.47 88.1635V2.10216H1798.48V36.9517H1811.87V2.10216H1830.89V88.1635H1811.87V50.5515H1798.48V88.1635H1779.47ZM1868.86 89.4384C1862.27 89.4384 1857.1 88.3759 1853.35 86.251C1849.66 84.0552 1847.08 80.9031 1845.59 76.7949C1844.1 72.6158 1843.36 67.5158 1843.36 61.4951V2.10216H1862.17V64.3638C1862.17 66.1346 1862.31 67.9054 1862.59 69.6762C1862.87 71.447 1863.48 72.8991 1864.4 74.0324C1865.39 75.1657 1866.88 75.7324 1868.86 75.7324C1870.91 75.7324 1872.4 75.1657 1873.32 74.0324C1874.24 72.8991 1874.81 71.447 1875.02 69.6762C1875.3 67.9054 1875.45 66.1346 1875.45 64.3638V2.10216H1894.36V61.4951C1894.36 67.5158 1893.58 72.6158 1892.02 76.7949C1890.53 80.9031 1887.95 84.0552 1884.26 86.251C1880.58 88.3759 1875.45 89.4384 1868.86 89.4384ZM1906.46 88.1635V2.10216H1919.85L1937.48 43.5391V2.10216H1953.21V88.1635H1940.35L1922.72 43.5391V88.1635H1906.46ZM1973.77 88.1635V16.2332H1960.81V2.10216H2005.75V16.2332H1992.9V88.1635H1973.77ZM2048.27 88.1635V16.2332H2035.31V2.10216H2080.25V16.2332H2067.4V88.1635H2048.27ZM2111.65 89.4384C2105.2 89.4384 2100.1 88.3051 2096.35 86.0385C2092.59 83.7718 2089.9 80.5136 2088.27 76.2636C2086.64 72.0137 2085.83 66.9492 2085.83 61.0701V29.0893C2085.83 23.1394 2086.64 18.0748 2088.27 13.8957C2089.9 9.71664 2092.59 6.52918 2096.35 4.33338C2100.1 2.06674 2105.2 0.933426 2111.65 0.933426C2118.16 0.933426 2123.3 2.06674 2127.05 4.33338C2130.88 6.52918 2133.61 9.71664 2135.24 13.8957C2136.86 18.0748 2137.68 23.1394 2137.68 29.0893V61.0701C2137.68 66.9492 2136.86 72.0137 2135.24 76.2636C2133.61 80.5136 2130.88 83.7718 2127.05 86.0385C2123.3 88.3051 2118.16 89.4384 2111.65 89.4384ZM2111.65 75.9449C2113.63 75.9449 2115.08 75.449 2116 74.4574C2116.93 73.4657 2117.53 72.1908 2117.81 70.6324C2118.09 69.0741 2118.24 67.4804 2118.24 65.8513V24.4143C2118.24 22.7144 2118.09 21.1206 2117.81 19.6332C2117.53 18.0748 2116.93 16.7999 2116 15.8082C2115.08 14.8166 2113.63 14.3207 2111.65 14.3207C2109.81 14.3207 2108.43 14.8166 2107.5 15.8082C2106.58 16.7999 2105.98 18.0748 2105.7 19.6332C2105.41 21.1206 2105.27 22.7144 2105.27 24.4143V65.8513C2105.27 67.4804 2105.38 69.0741 2105.59 70.6324C2105.88 72.1908 2106.44 73.4657 2107.29 74.4574C2108.21 75.449 2109.66 75.9449 2111.65 75.9449ZM2149.25 88.1635V2.10216H2168.27V37.2704L2182.72 2.10216H2201.32L2185.38 40.9891L2202.06 88.1635H2182.72L2170.29 50.1265L2168.27 53.5264V88.1635H2149.25ZM2209.54 88.1635V2.10216H2248.21V15.0645H2228.56V36.4204H2243.54V49.5952H2228.56V75.3074H2248.42V88.1635H2209.54ZM2257.06 88.1635V2.10216H2270.45L2288.08 43.5391V2.10216H2303.81V88.1635H2290.95L2273.31 43.5391V88.1635H2257.06Z" fill="#FFAF3A"/>
</svg>
