<svg width="277" height="292" viewBox="0 0 277 292" fill="none" xmlns="http://www.w3.org/2000/svg">
<g filter="url(#filter0_bd_1001_1489)">
<mask id="path-1-inside-1_1001_1489" fill="white">
<path fill-rule="evenodd" clip-rule="evenodd" d="M236.629 67.7766C225.575 52.2647 211.014 39.5817 194.132 30.7597C177.25 21.9377 158.524 17.226 139.477 17.0079C120.43 16.7898 101.601 21.0716 84.5215 29.5047C67.442 37.9378 52.5947 50.284 41.1877 65.5388L47.516 70.2708C33.3756 89.1505 25 112.597 25 138C25 163.403 33.3755 186.85 47.5156 205.729L41.1877 210.461C52.5947 225.716 67.442 238.062 84.5215 246.495C101.601 254.928 120.43 259.21 139.477 258.992C158.524 258.774 177.25 254.062 194.132 245.24C211.014 236.418 225.575 223.735 236.629 208.223L230.196 203.639C243.409 185.131 251.183 162.474 251.183 138C251.183 113.527 243.409 90.869 230.196 72.3615L236.629 67.7766Z"/>
</mask>
<path fill-rule="evenodd" clip-rule="evenodd" d="M236.629 67.7766C225.575 52.2647 211.014 39.5817 194.132 30.7597C177.25 21.9377 158.524 17.226 139.477 17.0079C120.43 16.7898 101.601 21.0716 84.5215 29.5047C67.442 37.9378 52.5947 50.284 41.1877 65.5388L47.516 70.2708C33.3756 89.1505 25 112.597 25 138C25 163.403 33.3755 186.85 47.5156 205.729L41.1877 210.461C52.5947 225.716 67.442 238.062 84.5215 246.495C101.601 254.928 120.43 259.21 139.477 258.992C158.524 258.774 177.25 254.062 194.132 245.24C211.014 236.418 225.575 223.735 236.629 208.223L230.196 203.639C243.409 185.131 251.183 162.474 251.183 138C251.183 113.527 243.409 90.869 230.196 72.3615L236.629 67.7766Z" fill="url(#paint0_linear_1001_1489)" shape-rendering="crispEdges"/>
<path d="M194.132 30.7597L193.206 32.5323L194.132 30.7597ZM236.629 67.7766L237.79 69.4054L239.419 68.2446L238.258 66.6159L236.629 67.7766ZM139.477 17.0079L139.454 19.0078L139.477 17.0079ZM84.5215 29.5047L83.6361 27.7113L84.5215 29.5047ZM41.1877 65.5388L39.586 64.3411L38.3883 65.9428L39.99 67.1405L41.1877 65.5388ZM47.516 70.2708L49.1168 71.4698L50.3167 69.8678L48.7137 68.6691L47.516 70.2708ZM47.5156 205.729L48.7133 207.331L50.3163 206.133L49.1164 204.53L47.5156 205.729ZM41.1877 210.461L39.99 208.859L38.3883 210.057L39.586 211.659L41.1877 210.461ZM84.5215 246.495L83.6361 248.289L84.5215 246.495ZM139.477 258.992L139.5 260.992L139.477 258.992ZM194.132 245.24L195.058 247.013L194.132 245.24ZM236.629 208.223L238.258 209.384L239.419 207.755L237.79 206.595L236.629 208.223ZM230.196 203.639L228.569 202.477L227.405 204.106L229.036 205.267L230.196 203.639ZM230.196 72.3615L229.035 70.7328L227.405 71.8945L228.568 73.5236L230.196 72.3615ZM193.206 32.5323C209.809 41.2084 224.129 53.6818 235.001 68.9374L238.258 66.6159C227.021 50.8476 212.219 37.9549 195.058 28.9872L193.206 32.5323ZM139.454 19.0078C158.186 19.2223 176.603 23.8561 193.206 32.5323L195.058 28.9872C177.897 20.0194 158.862 15.2298 139.5 15.0081L139.454 19.0078ZM85.407 31.298C102.204 23.0043 120.722 18.7933 139.454 19.0078L139.5 15.0081C120.138 14.7864 100.998 19.1389 83.6361 27.7113L85.407 31.298ZM42.7894 66.7365C54.0079 51.7339 68.6098 39.5917 85.407 31.298L83.6361 27.7113C66.2742 36.2838 51.1815 48.8342 39.586 64.3411L42.7894 66.7365ZM48.7137 68.6691L42.3854 63.9371L39.99 67.1405L46.3183 71.8726L48.7137 68.6691ZM27 138C27 113.044 35.2266 90.0154 49.1168 71.4698L45.9152 69.0719C31.5246 88.2857 23 112.15 23 138H27ZM49.1164 204.53C35.2265 185.985 27 162.956 27 138H23C23 163.85 31.5245 187.715 45.9148 206.928L49.1164 204.53ZM42.3854 212.063L48.7133 207.331L46.3179 204.128L39.99 208.859L42.3854 212.063ZM85.407 244.702C68.6098 236.408 54.0079 224.266 42.7894 209.263L39.586 211.659C51.1815 227.166 66.2742 239.716 83.6361 248.289L85.407 244.702ZM139.454 256.992C120.722 257.207 102.204 252.996 85.407 244.702L83.6361 248.289C100.998 256.861 120.138 261.214 139.5 260.992L139.454 256.992ZM193.206 243.468C176.603 252.144 158.186 256.778 139.454 256.992L139.5 260.992C158.862 260.77 177.897 255.981 195.058 247.013L193.206 243.468ZM235.001 207.063C224.129 222.318 209.809 234.792 193.206 243.468L195.058 247.013C212.219 238.045 227.021 225.152 238.258 209.384L235.001 207.063ZM229.036 205.267L235.469 209.852L237.79 206.595L231.357 202.01L229.036 205.267ZM249.183 138C249.183 162.043 241.547 184.297 228.569 202.477L231.824 204.801C245.271 185.966 253.183 162.904 253.183 138H249.183ZM228.568 73.5236C241.547 91.7032 249.183 113.957 249.183 138H253.183C253.183 113.097 245.271 90.0348 231.824 71.1994L228.568 73.5236ZM235.469 66.1479L229.035 70.7328L231.357 73.9902L237.79 69.4054L235.469 66.1479Z" fill="white" fill-opacity="0.2" mask="url(#path-1-inside-1_1001_1489)"/>
</g>
<defs>
<filter id="filter0_bd_1001_1489" x="0" y="-8" width="276.183" height="300" filterUnits="userSpaceOnUse" color-interpolation-filters="sRGB">
<feFlood flood-opacity="0" result="BackgroundImageFix"/>
<feGaussianBlur in="BackgroundImageFix" stdDeviation="12.5"/>
<feComposite in2="SourceAlpha" operator="in" result="effect1_backgroundBlur_1001_1489"/>
<feColorMatrix in="SourceAlpha" type="matrix" values="0 0 0 0 0 0 0 0 0 0 0 0 0 0 0 0 0 0 127 0" result="hardAlpha"/>
<feOffset dy="8"/>
<feGaussianBlur stdDeviation="12.5"/>
<feComposite in2="hardAlpha" operator="out"/>
<feColorMatrix type="matrix" values="0 0 0 0 0.900556 0 0 0 0 0.254167 0 0 0 0 1 0 0 0 0.27 0"/>
<feBlend mode="normal" in2="effect1_backgroundBlur_1001_1489" result="effect2_dropShadow_1001_1489"/>
<feBlend mode="normal" in="SourceGraphic" in2="effect2_dropShadow_1001_1489" result="shape"/>
</filter>
<linearGradient id="paint0_linear_1001_1489" x1="138.091" y1="17" x2="138.091" y2="259" gradientUnits="userSpaceOnUse">
<stop stop-color="#E641FF"/>
<stop offset="0.5" stop-color="#00AAFF" stop-opacity="0"/>
<stop offset="1" stop-color="#E641FF"/>
</linearGradient>
</defs>
</svg>
